<svg width="73" height="57" viewBox="0 0 73 57" fill="none" xmlns="http://www.w3.org/2000/svg">
<path d="M52.2164 29.1361H60.6679L67.9195 25.7095C67.9195 25.7095 67.9054 23.8673 69.5976 23.8673C71.2898 23.8673 72.7851 24.7439 72.7851 26.5017C72.7851 28.2595 72.7851 47.0752 72.7851 47.0752C72.7851 47.0752 73.2632 49.8642 70.3945 49.8642C67.5257 49.8642 67.9195 47.3142 67.9195 47.3142L59.707 44.047L51.8132 44.4642L52.2164 29.1361Z" fill="#E1F5FF"/>
<path d="M1.98985 21.2705C18.4992 20.1548 35.0508 19.6251 51.5977 19.6767C52.2961 19.6767 53.0508 19.7001 53.6086 20.1173C54.4992 20.7876 54.4898 22.1048 54.3914 23.2111C53.5523 32.6142 52.7133 42.0173 51.8742 51.4205C51.8367 51.8142 51.7945 52.2361 51.5367 52.5408C51.1805 52.9626 50.557 53.0048 50.0086 53.0142C34.0664 53.347 18.1383 54.3455 2.27578 56.0002C1.88672 56.0423 1.47422 56.0751 1.12735 55.8923C0.494536 55.5548 0.42891 54.6923 0.438285 53.9751C0.602348 44.4455 0.76172 34.9205 0.925782 25.3908C0.953907 23.7642 1.07579 21.9267 2.31329 20.872" fill="#E1F5FF"/>
<path d="M28.1929 16.7705L28.6335 16.7892C28.6241 16.7751 28.5163 16.7658 28.1929 16.7705Z" fill="#084242"/>
<path d="M2.61792 53.272C2.58042 53.2439 2.53355 53.2111 2.50073 53.183C2.58042 53.2486 2.60855 53.2627 2.61792 53.272Z" fill="#084242"/>
<path d="M45.26 17.5205C45.2506 17.5205 45.2412 17.5205 45.2365 17.5205C45.199 17.5252 45.1568 17.5252 45.124 17.5298L45.26 17.5205Z" fill="#084242"/>
<path d="M22.9054 17.9798C28.7694 17.797 30.3304 17.8955 36.4054 17.6939C39.3069 17.6377 42.4007 17.5767 45.2366 17.5205C46.5819 17.3892 48.9585 17.497 50.5522 17.3939L51.171 17.4642C51.7194 17.4314 52.3616 17.408 52.9147 17.4455L52.8819 17.4642C53.2944 17.4408 53.7351 17.4267 54.0725 17.4455C54.4194 17.4642 54.6679 17.5252 54.8085 17.5673L54.7804 17.5767C55.0054 17.6517 55.1788 17.7689 55.3194 17.9283L55.2257 17.8673C55.5679 18.1486 55.7179 18.7673 55.7225 19.4095C55.7319 20.047 55.6288 20.7502 55.5679 21.397L55.6569 21.2986C55.3194 24.0595 55.3991 25.0861 55.0663 27.5752L55.0476 27.5377C54.9819 30.7158 54.4569 32.5158 54.3679 35.7877C54.3772 35.3798 54.3116 35.9564 54.2929 35.9236C54.1804 37.4236 54.0491 39.0267 54.2085 39.0642C54.1101 40.1564 54.0772 39.9502 54.0069 40.0861C54.0772 40.0861 54.021 41.0377 53.9507 41.8908L53.9601 41.497L53.7679 43.9439L53.9413 43.4752C53.7866 44.7689 53.7491 43.7892 53.6741 45.0314L53.7866 45.0267C53.6976 45.922 53.585 46.6298 53.4679 47.3283C53.4069 47.6752 53.3507 48.0267 53.2897 48.3923C53.2335 48.7627 53.1679 49.1189 53.0272 49.2736C52.9288 49.433 52.6569 49.5408 52.2491 49.5689C51.8554 49.5923 51.3585 49.5923 50.9085 49.6111C49.9897 49.6392 49.0663 49.6673 48.1382 49.6955C46.2866 49.7752 44.4257 49.8548 42.5788 49.9345C38.8897 50.108 35.2616 50.3048 31.8913 50.3986L31.5913 50.333C31.4554 50.2158 29.7444 50.6189 29.4819 50.5252L28.7038 50.6283C28.4835 50.6189 28.0194 50.6236 28.4038 50.5767C27.6819 50.6142 27.6632 50.6377 27.1429 50.708L26.3601 50.6845C23.5007 50.8111 21.0866 51.1345 18.0819 51.3408C14.4725 51.4627 7.67567 52.2361 3.82723 52.7236C3.51786 52.7517 3.28349 52.7283 3.1288 52.6017C2.96474 52.4845 2.84755 52.2408 2.7913 51.9408C2.73505 51.6361 2.73505 51.308 2.74442 50.947C2.7538 50.5861 2.76317 50.2205 2.77255 49.8548C2.8288 48.3923 2.88036 46.9017 2.93661 45.4017C3.05849 42.4064 3.18036 39.397 3.12411 36.5798C3.14286 36.397 3.11474 35.9189 3.10068 35.9236L3.20379 30.7627C3.20379 30.7627 3.22723 29.197 3.25536 27.1486C3.26473 26.122 3.27411 24.9783 3.28349 23.8486C3.29286 22.7095 3.25536 21.5986 3.36786 20.6892C3.47098 19.7705 3.75223 19.072 4.01942 18.6642C4.28192 18.2611 4.46942 18.083 4.29598 18.1252C4.16005 18.1814 3.5788 18.4627 3.10068 19.5455C2.8663 20.0798 2.69286 20.7923 2.58973 21.6595C2.4913 22.5361 2.43505 23.5439 2.34599 24.7298L2.32255 24.6033C2.21005 27.4252 2.16786 29.2064 2.26629 31.1564C2.09754 31.4611 2.21005 33.4767 2.14442 34.1377L2.13036 34.0767C2.22411 35.8017 1.9663 37.6252 2.05067 39.2845C2.03661 39.2189 1.99442 39.1814 1.99911 38.8017C1.99911 40.0111 2.00848 41.6658 1.91005 41.7548C1.88661 44.647 1.77411 48.6783 1.8913 50.5345L1.86786 50.408C1.91474 50.933 1.89599 51.2752 1.91942 51.6689C1.93349 51.8658 1.95223 52.0673 2.01786 52.3111C2.08817 52.5502 2.18661 52.8502 2.48661 53.1361C2.53817 53.2111 2.63192 53.2861 2.61317 53.2767C2.95067 53.5252 3.45692 53.5861 3.86473 53.5439C4.2538 53.5064 4.6663 53.4642 5.07411 53.422C5.88036 53.3423 6.66317 53.272 7.12255 53.2064L7.18817 53.2626L9.46161 53.0283L8.60849 53.0986C8.88505 52.897 10.3429 53.0377 11.9835 52.7798C13.5304 52.658 15.0913 52.147 16.7038 52.0955C17.4632 51.9548 16.0382 52.283 17.1819 52.1283C17.2288 52.2127 16.6522 52.2267 16.9522 52.2736C18.0725 52.1423 18.8038 52.2127 20.1866 52.0486L20.2475 52.1142C22.0475 51.847 23.6694 51.9548 24.8694 51.7486C26.7351 51.5658 26.1351 51.8752 28.0757 51.608L28.8397 51.6548C29.6741 51.622 29.4304 51.5048 30.3538 51.4955C30.3022 51.5564 31.5257 51.472 30.9866 51.5611C33.0819 51.5377 35.2241 51.1955 37.985 51.2283C38.5804 51.0877 39.9679 51.0923 40.4132 50.9892C40.4882 51.0361 43.1929 50.8908 41.6413 51.0595C41.5101 51.0736 41.271 51.083 41.285 51.0595L41.1022 51.1345C42.6772 51.2002 43.9569 50.9564 45.5132 50.9236C45.0491 50.9142 44.4397 50.9423 44.8476 50.8814L46.2913 50.8439L45.9913 50.9095L48.1429 50.8814L47.8429 50.8205C48.8975 50.8252 49.2726 50.9377 50.4585 50.8111C50.9929 50.7408 49.46 50.7361 50.571 50.6892C50.9225 50.6939 51.321 50.6986 51.7429 50.7033C52.16 50.6986 52.6851 50.7502 53.3038 50.483C53.6085 50.3517 53.9225 50.0752 54.0866 49.7517C54.2554 49.433 54.3069 49.1283 54.3444 48.8658C54.396 48.3877 54.4476 47.9142 54.4991 47.4642C54.4054 47.6236 54.4476 47.1408 54.4757 46.6439L54.5507 46.5923C54.6257 44.6798 54.7663 45.908 54.86 44.0142L54.8929 44.183L54.7897 43.672C54.8038 41.9564 55.0147 42.7673 54.996 40.8548C54.9397 41.6048 54.8085 41.1923 54.921 40.2736L54.9679 40.5127C55.0007 40.0017 54.9866 39.8283 55.0288 39.4908C55.0382 39.8002 55.1132 39.6595 55.1694 38.9095L55.2069 39.4205L55.2116 37.9908C55.3804 36.9033 55.446 35.1595 55.5819 34.7189C55.5819 34.7189 55.8397 32.3705 55.7835 31.822C55.8069 32.3002 55.9475 31.0064 55.9897 31.3814C55.971 30.7673 56.0741 28.958 56.2147 28.2455L56.21 28.3814C56.5288 25.7189 56.5101 23.8111 56.8194 21.4252C56.7304 21.5283 56.885 20.2673 56.7538 20.572C56.7866 19.9439 56.8288 19.3111 56.7491 18.6923C56.6788 18.0783 56.4491 17.4361 55.9991 17.0002C55.5538 16.5595 55.0054 16.4002 54.6069 16.3533C54.1944 16.3064 53.8804 16.3486 53.6507 16.4236C52.5116 16.4377 52.3101 16.3486 51.7194 16.3298L51.9913 16.3111C49.8725 16.3345 49.2538 16.3439 47.6788 16.3392C46.8913 16.372 46.7694 16.5267 45.3632 16.4986C45.8179 16.4377 45.2413 16.4517 44.7163 16.4564C45.0538 16.4423 45.1569 16.4236 44.4632 16.3861C44.3647 16.4048 44.2147 16.4189 44.0741 16.4283C44.0694 16.4236 44.0413 16.4189 44.0554 16.4142C43.1741 16.447 43.3288 16.4611 43.7366 16.4658C43.7179 16.4752 43.7507 16.4845 43.8772 16.5033C42.9632 16.4377 41.3319 16.5408 41.2194 16.4377C38.5757 16.5033 36.6866 16.6439 34.4882 16.733C34.2397 16.6861 34.7507 16.6252 35.3929 16.5923L33.8319 16.6486C33.8413 16.5736 34.7272 16.583 35.2101 16.5548C33.3491 16.4752 31.3804 16.7705 29.2007 16.7283L28.7507 16.8033L28.6194 16.7986C28.6288 16.8314 28.1413 16.8877 27.8179 16.9111C27.5085 16.8548 27.8366 16.7611 26.7538 16.7986C25.9007 16.7611 24.3304 16.9205 23.2147 16.9955C23.8147 16.9814 23.6225 17.0283 23.3647 17.0611C22.8257 17.0845 22.5116 17.0283 22.0991 17.0752L22.0429 16.9908C22.2585 17.0658 20.6366 17.1408 20.4397 17.1877C20.1304 17.1361 21.2741 17.0939 21.4054 17.0377C19.2444 17.1408 20.3226 17.0892 18.1616 17.197C17.0132 17.3189 18.3772 17.272 17.8288 17.3752C16.8116 17.4408 15.8226 17.5486 14.6507 17.558L15.0257 17.6189C13.1179 17.7783 11.9741 17.8345 10.6804 17.8298C3.58349 18.5752 2.85224 18.8705 3.88817 18.9314C4.92411 19.0017 7.73192 18.8798 7.73192 18.8798C13.3616 18.7111 16.2397 18.322 22.9054 17.9798Z" fill="#084242"/>
<path d="M18.5039 9.77671L18.5508 9.64546C18.5367 9.64546 18.518 9.67827 18.5039 9.77671Z" fill="#084242"/>
<path d="M43.9666 6.49077L43.9712 6.52358C43.9712 6.50014 43.9666 6.49077 43.9666 6.49077Z" fill="#084242"/>
<path d="M20.4305 4.8642C20.4305 4.86888 20.4305 4.86889 20.4305 4.86889L20.4258 4.9017L20.4305 4.8642Z" fill="#084242"/>
<path d="M19.343 11.5205C19.5633 9.72983 19.7696 9.27046 19.9524 7.41421C20.0836 6.52358 20.1821 5.61421 20.4258 4.87358C20.4305 4.6814 20.529 4.44233 20.6508 4.21733C20.7727 3.99233 20.9227 3.79077 21.0211 3.60796L21.1758 3.53765C21.2508 3.42046 21.3539 3.28921 21.4899 3.24234L21.4946 3.26109C21.6258 3.09702 21.8602 3.00796 21.9446 2.94234V2.96577C22.0243 2.92358 22.0993 2.88608 22.1836 2.85327L22.1508 2.89546C22.4789 2.69858 22.8914 2.59077 23.2664 2.5439L23.2196 2.4689C24.0352 2.41265 24.3352 2.22515 25.1133 2.23452L25.104 2.25327C26.0461 1.92984 26.6461 2.22983 27.6305 1.93452C27.5086 1.97202 27.6868 1.97202 27.6774 1.99077C28.1368 1.92515 28.6289 1.87358 28.6243 1.71421C28.9618 1.69077 28.9008 1.74234 28.9524 1.80327C28.943 1.73296 29.2336 1.6814 29.4961 1.65796L29.379 1.69077L30.129 1.62046L29.9743 1.49858C30.3774 1.51265 30.0868 1.65327 30.4665 1.59702L30.4571 1.48921C31.0102 1.48452 31.343 1.62983 31.8821 1.69077C34.104 1.63921 36.4993 1.36265 38.5665 1.62515L38.6555 1.70952C38.6883 1.8314 39.2321 1.55484 39.3071 1.66734L39.5508 1.62046C39.6164 1.6439 39.7571 1.67671 39.6399 1.69546C39.8602 1.70952 39.8696 1.69077 40.029 1.66265L40.2633 1.75171C40.704 1.80327 41.1024 1.7939 41.4446 1.83609C41.7914 1.87827 42.0774 1.96734 42.2836 2.22984C42.3868 2.40327 42.4993 2.64233 42.5977 2.94702C42.7008 3.24702 42.7665 3.63609 42.8602 4.0064C43.0055 4.76109 43.104 5.54858 43.118 6.13921C43.268 7.81733 42.4008 9.67827 42.3399 11.4455C42.3165 11.5017 42.3305 11.6517 42.3446 11.6517C42.2602 12.1814 42.1758 12.7158 42.1289 13.2595C42.1289 13.2595 42.068 13.7517 42.0633 14.408C42.0446 14.7314 42.0821 15.1064 42.1008 15.4673C42.1289 15.8283 42.204 16.1892 42.2555 16.4939C42.4243 17.1033 42.593 17.5017 42.7055 17.3658C42.8414 17.2298 42.804 16.5783 43.0055 15.1533L43.0336 15.1908C43.0711 14.347 43.1415 13.822 43.0618 13.222C43.2258 13.147 43.1602 12.5236 43.2352 12.3314L43.2446 12.3501C43.1883 11.8111 43.5024 11.2955 43.4789 10.7705C43.4883 10.7939 43.5305 10.808 43.5118 10.9251C43.5539 10.5548 43.6008 10.0439 43.6946 10.0298C43.8211 9.14858 44.0461 7.89233 43.9383 7.28765L43.9618 7.32983C43.8868 6.98765 43.9899 6.89858 43.9524 6.52358C43.9664 6.50483 43.9711 6.47671 43.9758 6.4814C43.9336 6.29858 43.9383 6.0314 43.9477 5.77358C43.943 5.51577 43.943 5.26265 43.9196 5.11733L43.9805 5.0939C43.9758 4.85015 43.9289 4.6064 43.9008 4.36265L43.9196 4.63921C43.7274 4.56421 43.9946 4.07202 43.7555 3.56108C43.6805 3.05484 43.2024 2.66108 43.0289 2.18296C42.8321 2.00483 43.2586 2.30952 43.0102 2.01421C43.0805 1.95327 43.1508 2.14077 43.1602 2.0189C43.0383 1.85952 42.9586 1.71421 42.8461 1.5689C42.7336 1.42359 42.5836 1.27358 42.3399 1.17983L42.3539 1.10952C41.6977 0.931398 41.1868 0.72046 40.793 0.804835C40.2071 0.83296 40.4133 0.575149 39.7993 0.682961L39.5696 0.579836C39.3118 0.556398 39.3774 0.687648 39.0915 0.631398C39.1102 0.570461 38.7305 0.57046 38.8993 0.518898C38.2477 0.40171 37.5727 0.607961 36.7149 0.439211C36.5274 0.551711 36.0961 0.481399 35.9555 0.565774C35.9321 0.514211 35.0883 0.556398 35.5758 0.443898C35.618 0.434523 35.693 0.439211 35.6883 0.457961L35.7446 0.387648C35.2524 0.256398 34.854 0.462649 34.3711 0.448586C34.5165 0.467336 34.704 0.462647 34.5774 0.509522L34.1274 0.504836L34.2211 0.443898L33.5508 0.42046L33.6446 0.490774C33.3165 0.457961 33.1946 0.34546 32.8289 0.453273C32.6649 0.51421 33.143 0.542336 32.7961 0.575149C32.3555 0.537649 31.6946 0.490773 31.1368 0.49546C31.193 0.575148 31.043 0.579835 30.8883 0.603273L30.8649 0.532961C30.2743 0.664211 30.6399 0.387647 30.054 0.500147L30.1008 0.448586L29.9555 0.603273C29.4352 0.77671 29.6602 0.472023 29.0836 0.706398C29.318 0.678273 29.2055 0.851711 28.9149 0.842336L28.9805 0.767336C28.8211 0.795461 28.7696 0.823585 28.6664 0.818897C28.7602 0.77671 28.7086 0.715772 28.4743 0.743897L28.6243 0.64546L28.193 0.804835C27.8461 0.762648 27.3165 0.898585 27.1665 0.818897C27.1665 0.818897 26.4305 0.842335 26.2711 0.96421C26.4118 0.884523 26.004 0.903273 26.1118 0.81421C25.929 0.90796 25.3758 1.02984 25.1461 0.973585L25.1883 0.959524C24.3493 0.982961 23.7961 1.22202 22.9993 1.27359C23.0508 1.3439 22.6336 1.38609 22.7555 1.47046C22.3711 1.61109 21.9961 1.67202 21.6868 1.77515C21.3774 1.87827 21.143 2.00952 21.1008 2.22984C20.7868 2.45952 20.6743 2.43608 20.5102 2.56265L20.5711 2.48296C20.0414 3.02202 19.9383 3.2189 19.6618 3.68296C19.5727 3.94077 19.6805 4.03452 19.4836 4.45171C19.4836 4.29233 19.418 4.47046 19.3711 4.63452C19.3946 4.52671 19.3852 4.48452 19.2774 4.69077C19.2868 4.72827 19.2821 4.77515 19.2774 4.82202C19.2727 4.82202 19.268 4.8314 19.2633 4.82202C19.2071 5.10327 19.2352 5.06109 19.2821 4.93452C19.2868 4.9439 19.3008 4.93452 19.329 4.90171C19.1696 5.16421 19.1415 5.69858 19.0383 5.70796C18.9024 6.54702 18.9446 7.13296 18.8883 7.81733C18.8274 7.88765 18.7993 7.72358 18.8086 7.52202L18.7618 8.00483C18.6868 7.99077 18.7571 7.72358 18.7618 7.57358C18.5649 8.1314 18.729 8.7689 18.5415 9.42515L18.5836 9.57046L18.5696 9.60796C18.6024 9.60796 18.6258 9.76265 18.6258 9.86577C18.5508 9.95483 18.4758 9.84233 18.443 10.1751C18.3493 10.433 18.3961 10.9251 18.3961 11.2767C18.4243 11.0939 18.4571 11.1548 18.4711 11.2392C18.4571 11.408 18.3821 11.497 18.4008 11.6283L18.293 11.6705C18.3821 11.6142 18.3399 12.1158 18.3727 12.1767C18.2977 12.2658 18.3399 11.9142 18.293 11.8673C18.2461 12.5376 18.2696 12.2001 18.218 12.8705C18.2555 13.2314 18.3071 12.8142 18.3727 12.9876C18.3633 13.3017 18.4055 13.6158 18.3258 13.972L18.4102 13.8642C18.429 14.4595 18.4008 14.8111 18.2977 15.2048C18.5039 17.4267 18.7336 17.6611 18.879 17.347C19.029 17.033 19.1274 16.1751 19.1274 16.1751C19.3899 14.4689 19.2165 13.5689 19.343 11.5205Z" fill="#084242"/>
<path d="M23.9929 12.6923L24.0257 12.6033C24.0117 12.6033 23.9976 12.6267 23.9929 12.6923Z" fill="#084242"/>
<path d="M38.304 11.4173C38.304 11.4267 38.3086 11.4314 38.3086 11.4361C38.3086 11.422 38.3086 11.4173 38.304 11.4173Z" fill="#084242"/>
<path d="M25.0289 13.7236C25.0429 12.5845 25.1695 12.2892 25.2398 11.1876C25.3242 10.6673 25.432 10.1236 25.596 9.65014C25.5726 9.38296 25.8585 9.05483 25.9195 8.77358L26.0367 8.72202C26.0601 8.62827 26.1023 8.51577 26.196 8.46889L26.2054 8.48764C26.2476 8.34233 26.3789 8.24858 26.407 8.18296L26.4164 8.20171C26.4539 8.15952 26.4867 8.11265 26.5288 8.07515V8.11265C26.6648 7.91108 26.857 7.74702 27.0585 7.65796L26.9976 7.59702C27.4429 7.43296 27.546 7.21733 28.0054 7.17983V7.19858C28.2445 7.01577 28.4835 7.00171 28.7179 7.00171C28.9523 7.00171 29.1867 7.01108 29.4867 6.88921C29.4117 6.92202 29.5242 6.92671 29.5195 6.95015C29.8007 6.90327 30.1054 6.88452 30.1054 6.72515C30.3164 6.72046 30.2788 6.77202 30.307 6.83296C30.307 6.76265 30.4898 6.72983 30.6539 6.72515L30.5789 6.75327L31.057 6.72983L30.9632 6.59858C31.221 6.63608 31.0289 6.76265 31.2726 6.72983L31.2679 6.62202C31.6242 6.64546 31.8304 6.81421 32.1726 6.89858C32.8851 6.92671 33.6304 6.87046 34.357 6.83764C34.7226 6.81889 35.0835 6.80483 35.4351 6.80952C35.7773 6.81421 36.1617 6.82827 36.4289 6.8939L36.4664 6.97827C36.471 7.09077 36.7382 6.84702 36.7289 6.9689C36.757 6.96421 36.7898 6.95483 36.8226 6.95483C36.832 6.98764 36.8601 7.03452 36.8085 7.02983C36.8648 7.07671 36.8789 7.06265 36.9492 7.0814C36.9539 7.12358 36.9585 7.16577 36.9585 7.20796C37.1367 7.54077 37.4179 7.89702 37.4554 8.42671C37.4226 8.75015 37.4273 9.21421 37.4179 9.72046C37.4132 10.2267 37.4273 10.7705 37.446 11.1548C37.5492 12.2517 36.9867 13.4798 37.1179 14.6048C37.0992 14.6376 37.132 14.7361 37.146 14.7361L37.0617 15.7533C37.0617 15.7533 36.6773 20.6798 37.9335 17.0048L37.957 17.033C38.0601 16.4798 38.0976 16.133 37.9898 15.7392C38.1539 15.6876 38.0367 15.2845 38.0976 15.158L38.1117 15.172C38.0085 14.8251 38.2617 14.4783 38.1726 14.1455C38.1867 14.1595 38.2289 14.1689 38.2242 14.2439C38.2195 14.0048 38.2054 13.6767 38.3039 13.6626C38.3179 13.0908 38.4164 12.2986 38.2898 11.9236L38.3132 11.9517C38.2242 11.7361 38.3179 11.6798 38.2804 11.4455C38.2945 11.4314 38.2992 11.4173 38.3039 11.422C38.2195 11.1876 38.332 10.7611 38.3039 10.5736L38.3695 10.5642L38.3835 10.1095L38.3601 10.2783C38.1914 10.208 38.4914 9.94546 38.3976 9.59858C38.4351 9.27983 38.0601 8.95171 38.121 8.63296C38.032 8.48296 38.2617 8.75952 38.182 8.52983C38.271 8.51577 38.2476 8.63765 38.3132 8.56733C38.2523 8.33765 38.3648 8.16889 38.2429 7.88296L38.3085 7.85483C38.1023 7.50796 38.1632 7.09077 37.9148 6.89858C37.7789 6.72983 37.7742 6.64077 37.7554 6.55171C37.7367 6.46733 37.7085 6.36421 37.4554 6.24702C37.4179 6.1814 37.3804 6.11108 37.3289 6.04546C37.1085 5.91421 37.1226 6.06421 36.8929 5.94233C36.921 5.8814 36.5976 5.83452 36.7476 5.8064C36.4757 5.71265 36.2273 5.75483 36.007 5.77358C35.782 5.79702 35.5382 5.81108 35.2664 5.7314C35.1492 5.84858 34.8726 5.77827 34.7835 5.86265C34.7695 5.81108 34.2351 5.85327 34.5445 5.74546C34.5726 5.73608 34.6195 5.74077 34.6148 5.75952L34.6523 5.68921C34.3429 5.55796 34.0851 5.75952 33.7804 5.73608C33.8695 5.75952 33.9913 5.75483 33.9117 5.80171L33.6257 5.79233L33.6867 5.73608L33.2601 5.69858L33.3164 5.7689C33.1101 5.7314 33.0351 5.60952 32.8007 5.70796C32.6929 5.76421 32.9976 5.8064 32.7773 5.82515C32.5007 5.77358 32.0835 5.69858 31.7273 5.67515C31.7601 5.75483 31.6663 5.75483 31.5679 5.7689L31.5585 5.69858C31.1789 5.79233 31.4226 5.5439 31.0476 5.6189L31.0804 5.57202L30.982 5.71733C30.6398 5.85327 30.7992 5.57202 30.4148 5.76421C30.5648 5.75015 30.4898 5.91889 30.3023 5.89077L30.3492 5.82046C30.246 5.83452 30.2132 5.86265 30.1429 5.85327C30.2039 5.81577 30.1757 5.75483 30.021 5.7689L30.1195 5.67983L29.8335 5.81577C29.6039 5.75014 29.2523 5.86733 29.1492 5.78296C29.1492 5.78296 28.6476 5.78765 28.5492 5.9189C28.6382 5.83921 28.3617 5.85796 28.4273 5.77358C28.3101 5.86264 27.9445 6.00796 27.771 5.97983L27.7992 5.96577C27.1992 6.05015 26.8757 6.39702 26.3648 6.59858C26.4304 6.65483 26.1632 6.77202 26.2804 6.8189C25.896 7.20327 25.3664 7.3439 25.4789 7.70483C25.3382 7.9064 25.2351 7.88296 25.1507 7.9814L25.1695 7.92514C24.9257 8.31889 24.8742 8.44077 24.7101 8.73608C24.6585 8.90015 24.7898 8.98921 24.6398 9.24233C24.621 9.12983 24.5835 9.24702 24.546 9.35014C24.5601 9.27983 24.5507 9.25171 24.4617 9.37358C24.471 9.39702 24.471 9.43452 24.471 9.46265C24.4664 9.46265 24.4617 9.46733 24.457 9.46265C24.4148 9.64546 24.4476 9.61733 24.4804 9.54233C24.4898 9.55171 24.4992 9.54702 24.5273 9.52827C24.3914 9.68296 24.3726 10.0345 24.2742 10.0298C24.157 10.5736 24.1992 10.9767 24.1898 11.422C24.1335 11.4689 24.0914 11.3564 24.0914 11.2251C24.082 11.333 24.082 11.4408 24.0773 11.5439C24.0023 11.5345 24.0492 11.3564 24.0492 11.258C23.8804 11.6283 24.1007 12.0548 23.9835 12.4861L24.0398 12.5798L24.0304 12.608C24.0632 12.608 24.1007 12.7064 24.1148 12.772C24.0492 12.833 23.9648 12.7673 23.9695 12.9876C23.9085 13.1611 24.0117 13.4751 24.0538 13.6955C24.0632 13.5736 24.1007 13.6111 24.1242 13.6626C24.1289 13.7705 24.0679 13.8361 24.096 13.9158L24.007 13.9298C24.0867 13.883 24.1101 14.2064 24.1476 14.2439C24.0867 14.3095 24.082 14.0798 24.0351 14.0564C24.0632 14.483 24.0492 14.2673 24.0726 14.6939C24.1476 14.9189 24.157 14.647 24.2367 14.7548C24.2601 14.9564 24.3304 15.1486 24.2835 15.3783L24.3585 15.3033C24.4289 15.6783 24.4195 15.9033 24.3398 16.1564C24.4898 16.8548 24.5788 17.2626 24.6679 17.4642C24.757 17.6705 24.846 17.6611 24.9304 17.572C25.0101 17.4736 25.0851 17.2767 25.1273 17.108C25.1742 16.9345 25.1976 16.7892 25.1976 16.7892C25.4179 15.6173 25.1367 15.0267 25.0289 13.7236Z" fill="#084242"/>
<path d="M24.8883 31.2783L24.4617 23.0986H32.0039L31.7648 31.2876L39.1758 31.0204L39.0398 37.4704L31.6711 37.1376L32.0976 45.3126H24.5508L24.7945 37.1236L17.3789 37.3954L17.5148 30.9454L24.8883 31.2783Z" fill="#F3EBE1"/>
<path d="M31.104 21.1111L31.3337 21.1439C31.3337 21.1298 31.2728 21.1158 31.104 21.1111Z" fill="#084242"/>
<path d="M24.2508 36.0595C24.2321 36.0642 24.2133 36.0642 24.1946 36.0689C24.2368 36.0642 24.2461 36.0595 24.2508 36.0595Z" fill="#084242"/>
<path d="M33.0821 27.6642C33.0821 27.6595 33.0821 27.6548 33.0821 27.6501C33.0821 27.6314 33.0774 27.608 33.0774 27.5892L33.0821 27.6642Z" fill="#084242"/>
<path d="M28.2867 22.1236C29.5664 22.1376 30.4617 22.1751 31.2961 22.208C31.7133 22.222 32.1164 22.2361 32.5477 22.2501C32.7492 22.2548 32.9508 22.2595 33.1711 22.2642C33.1805 22.2689 33.1805 22.2689 33.1898 22.2689C33.1898 22.2736 33.1898 22.2783 33.1945 22.283C33.1898 22.4986 33.1898 22.7283 33.1852 22.9767C33.1289 24.5095 33.1148 26.1501 33.0867 27.6501C33.1242 27.908 33.1242 28.2361 33.1148 28.5923C33.0961 29.1642 33.082 29.783 33.0633 30.3642C33.5742 30.3408 34.0664 30.3126 34.4789 30.2705C34.5961 30.2751 34.6101 30.2892 34.6758 30.2986L34.8398 30.3267C35.1305 30.2845 35.468 30.247 35.7633 30.2705L35.7445 30.2892C36.1758 30.2236 36.668 30.2376 36.8789 30.2001L36.8601 30.2189L37.3851 30.1908L37.2961 30.2236C38.0508 30.1439 38.8289 30.1111 39.518 30.1111L39.457 30.0314C39.6398 30.0314 39.8039 30.0361 39.9586 30.0361C40.0992 30.0314 40.2258 30.0314 40.3476 30.0267C40.418 30.022 40.4883 30.0126 40.5633 29.9986C40.5726 30.0595 40.5773 30.1345 40.5773 30.2142C40.5726 30.3361 40.568 30.458 40.5633 30.5939C40.5539 30.7392 40.5398 30.8986 40.5258 31.0673L40.507 31.0486C40.5961 31.8876 40.5492 32.5486 40.493 33.2189C40.4648 33.5517 40.4414 33.8892 40.432 34.2501C40.4273 34.4283 40.4273 34.6158 40.432 34.8126C40.4367 34.9017 40.4414 35.0283 40.4461 35.0939C40.4555 35.1267 40.4648 35.1595 40.4742 35.1923C40.4508 35.1173 40.432 35.2017 40.4133 35.183L40.4227 35.2814C40.3852 35.2861 40.3477 35.2908 40.3102 35.2955C40.2914 35.3001 40.2726 35.3048 40.2539 35.3048C40.2398 35.3048 40.2445 35.3095 40.2164 35.3095C40.1836 35.3095 40.1555 35.3142 40.1226 35.3142C39.8836 35.3283 39.7289 35.3658 39.7195 35.4314C39.1383 35.4033 39.2508 35.3611 39.1758 35.2955C39.1758 35.3658 38.6695 35.3705 38.2195 35.3564L38.4305 35.3376L37.132 35.3048L37.3805 35.4501C36.6961 35.3798 37.2117 35.2814 36.5555 35.2814L36.5602 35.3892C36.0867 35.3564 35.7117 35.2908 35.3414 35.2205C35.1586 35.183 34.9711 35.1501 34.7742 35.1126C34.6711 35.0939 34.568 35.0798 34.4602 35.0611C34.2773 35.0423 34.0851 35.0236 33.8883 35.0001C33.5977 34.9861 33.3117 34.972 33.0164 34.958C33.0445 35.5017 33.0727 36.0501 33.1008 36.5986C33.1242 36.9408 33.143 37.283 33.1664 37.6251C33.2133 38.3095 33.2648 38.9986 33.3164 39.683C33.368 40.372 33.4148 41.0564 33.4664 41.7361C33.4992 42.2564 33.532 42.772 33.5648 43.2783C33.2461 43.2736 32.9273 43.2689 32.6133 43.2642C32.1445 43.2548 31.6805 43.2361 31.2305 43.2126L31.0758 43.1283C31.0055 43.0064 30.0914 43.3064 29.9555 43.1939L29.543 43.2501C29.4258 43.2267 29.182 43.2033 29.3883 43.1798C29.0039 43.1751 28.9945 43.1939 28.718 43.2314L28.3055 43.1564C27.9914 43.1423 27.6867 43.1423 27.3867 43.1423L27.2601 43.147L27.2086 43.1517L27.0914 43.1658L27.0726 43.0111L27.068 42.9689V42.8189V42.5001C27.068 42.0736 27.0773 41.6376 27.0961 41.1736C27.1711 40.4798 27.218 39.5611 27.2414 38.5767C27.2508 38.0845 27.2555 37.5736 27.2648 37.0626C27.2695 36.3642 27.2789 35.6705 27.2836 35.0048C26.7258 35.0376 26.1867 35.0705 25.6805 35.0986C25.3523 35.122 25.043 35.1455 24.7617 35.1689C23.9086 35.2533 23.0133 35.2814 22.0945 35.2861C21.6398 35.2861 21.1758 35.2861 20.707 35.2814L20.3602 35.2767C20.2523 35.2767 20.0883 35.2767 20.0883 35.272L19.8914 35.2486L19.9148 35.0986C19.9242 35.0423 19.9289 35.0658 19.9336 34.8501C19.9477 34.5267 19.957 34.2033 19.9711 33.8845C19.9898 33.2423 19.9898 32.6142 19.957 31.9955C19.9758 31.897 19.943 31.6486 19.9289 31.6486L19.9805 29.9142L20.1258 29.9236C20.1258 29.9236 20.8523 29.9517 21.8086 29.9892C22.8914 30.0267 24.232 30.0595 25.2586 30.0501C27.3117 30.0314 28.118 29.8251 23.1211 29.1033L23.1914 29.0798C22.4461 29.0142 21.8414 28.9673 21.2883 28.9486C21.0117 28.9392 20.7539 28.9345 20.4961 28.9392C20.3367 28.9439 20.182 28.9439 20.018 28.9486C19.8305 28.9533 19.6383 28.958 19.4461 28.9673C19.3664 28.9251 19.2117 28.897 19.0148 28.8783C18.9914 29.1642 18.9914 29.6142 18.9914 30.022C18.9914 30.1673 18.9914 30.3033 18.9914 30.4251C18.9914 30.533 18.9867 30.6267 18.9726 30.6923L18.9586 30.6595C19.0664 31.5736 18.818 32.5345 18.9117 33.4158C18.8976 33.383 18.8555 33.3595 18.8555 33.158C18.8648 33.8001 18.8789 34.672 18.7852 34.7189C18.7758 35.2392 18.7664 35.8064 18.7617 36.397C19.2914 36.3783 19.8305 36.3548 20.3648 36.3361C20.7023 36.3173 21.0305 36.3033 21.3445 36.2845C21.9726 36.247 22.5258 36.1955 22.9055 36.1251L22.8398 36.1533C23.393 36.0314 23.5617 36.1111 24.1805 36.0361C24.2133 36.0455 24.2602 36.0501 24.2508 36.0595C24.5508 35.9986 24.9961 35.9798 25.4227 35.9658C25.6195 35.9611 25.8117 35.9564 25.9852 35.9517C26.0789 35.947 26.1633 35.9423 26.2383 35.9283L26.2055 35.9939L26.3039 35.9892L26.2992 36.5376L26.3133 36.3361L26.3226 36.2283C26.3648 36.233 26.3789 36.2751 26.3789 36.3361C26.3789 36.4017 26.3555 36.5658 26.3367 36.7158C26.2945 37.0345 26.2383 37.4423 26.2805 37.883C26.2336 38.7033 26.5898 39.5611 26.482 40.4095C26.5523 40.8173 26.3602 40.0486 26.407 40.658C26.318 40.6767 26.3601 40.372 26.2852 40.5267C26.3086 41.1267 26.1633 41.5017 26.2055 42.2423L26.1351 42.2705C26.1492 42.4017 26.1539 42.533 26.1586 42.6595C26.1586 42.7251 26.1586 42.7861 26.1586 42.847C26.1586 42.922 26.1539 43.0017 26.1539 43.0767C26.1398 43.4423 26.1164 43.7986 26.093 44.1501C26.3648 44.1595 26.632 44.1689 26.8898 44.1689C27.0211 44.1689 27.143 44.1642 27.2648 44.1595C27.368 44.1548 27.4242 44.1455 27.5039 44.1314C28.493 44.0751 28.1695 44.3376 29.2008 44.2017L29.6039 44.2955C30.0445 44.3095 29.918 44.1783 30.4101 44.2251C30.382 44.2861 31.0289 44.272 30.743 44.3283C31.2445 44.3705 31.7555 44.347 32.2992 44.3236C32.5711 44.3095 32.8523 44.3001 33.143 44.2955C33.368 44.2955 33.6023 44.2955 33.8367 44.2955C34.1039 44.3001 34.3805 44.3095 34.6664 44.3142C34.6664 44.0986 34.6664 43.8783 34.6664 43.6439C34.507 42.8517 34.5492 42.2986 34.4461 42.0314C34.493 41.9892 34.3758 40.5595 34.5305 41.3798C34.5445 41.4501 34.5492 41.5767 34.5258 41.5673L34.6008 41.6611C34.6851 40.822 34.4508 40.1564 34.4273 39.3314C34.418 39.5751 34.4414 39.8986 34.3805 39.6876L34.3477 38.9236L34.4133 39.0783L34.3898 37.9392L34.3242 38.0986C34.3336 37.5408 34.4414 37.3392 34.3101 36.7158C34.2398 36.4345 34.2398 37.2501 34.1883 36.6595C34.1883 36.5798 34.1883 36.4955 34.193 36.4064C34.193 36.3361 34.2023 36.3361 34.207 36.3033C34.2164 36.2611 34.2258 36.2095 34.2351 36.1626C34.3008 36.1814 34.3711 36.2001 34.4414 36.2142C34.7273 36.2376 35.0086 36.2611 35.2805 36.2798C35.1961 36.1955 35.4492 36.2095 35.7164 36.2048L35.7445 36.2751C36.757 36.2236 36.1055 36.4439 37.1133 36.4158L37.0242 36.4626L37.2961 36.3267C38.2055 36.2283 37.7789 36.4955 38.7914 36.3501C38.393 36.3455 38.6133 36.1861 39.1008 36.2376L38.9742 36.2986C39.2461 36.2986 39.3352 36.2705 39.518 36.2939C39.3539 36.322 39.4289 36.3876 39.8273 36.397L39.5555 36.4673L39.9351 36.4205C40.0758 36.4064 40.1414 36.3876 40.3898 36.3783C40.7273 36.4158 41.1398 36.4439 41.5476 36.4626C41.557 36.0689 41.5617 35.6798 41.5711 35.3517C41.5758 35.272 41.5758 35.1923 41.5805 35.1173C41.5852 35.0751 41.5898 35.033 41.5898 34.9955C41.5992 34.9251 41.6086 34.8642 41.6273 34.8267C41.6273 34.8267 41.6977 33.5798 41.5992 33.2892C41.6602 33.5423 41.6976 32.8533 41.768 33.0501C41.7023 32.7267 41.6601 31.7658 41.7492 31.3861L41.7586 31.4611C41.7867 31.0861 41.7961 30.7392 41.7961 30.4064C41.7961 29.8439 41.7961 29.3001 41.7961 28.7705C41.2945 28.7986 40.7977 28.822 40.2961 28.8501C40.0195 28.8595 39.7383 28.8642 39.4383 28.8548C39.4992 28.9345 38.8289 28.9158 38.9976 29.0095C37.6898 29.1595 36.593 28.883 36.1336 29.2251C35.5383 29.2626 35.4211 29.1736 35.1117 29.1689L35.2523 29.1455C34.7695 29.1736 34.5117 29.1923 34.2258 29.2064C34.2305 29.1314 34.2305 29.0423 34.2351 28.9298C34.2258 28.9158 34.2164 28.7798 34.2023 28.7189C34.1883 28.6439 34.1695 28.5689 34.1508 28.4892C34.118 28.3251 34.0945 28.1236 34.1273 27.7533C34.1789 27.997 34.1789 27.6923 34.1836 27.4111C34.1883 27.5892 34.207 27.6455 34.2586 27.2798C34.2398 27.2283 34.2352 27.1486 34.2258 27.0736C34.2305 27.0689 34.2352 27.0548 34.2398 27.0642C34.2305 26.6001 34.2117 26.6798 34.1977 26.8955C34.1883 26.8861 34.1789 26.9001 34.1601 26.9705C34.2492 26.4923 34.193 25.6251 34.2961 25.5689C34.3055 24.8705 34.2914 24.2705 34.2727 23.6986C34.2633 23.4126 34.2539 23.1361 34.2492 22.8548C34.2398 22.5689 34.2352 22.3298 34.2398 21.8939C34.268 21.7955 34.2914 21.8283 34.3101 21.9595C34.3289 22.0814 34.3383 22.3486 34.343 22.4845L34.357 21.3361C34.3945 21.308 34.3992 21.4861 34.3992 21.7158C34.3945 21.833 34.3945 21.9595 34.3898 22.0861C34.3852 22.2126 34.3851 22.3392 34.3851 22.3861C34.3945 22.3345 34.4039 22.2033 34.4133 22.0908C34.4226 21.9736 34.4273 21.8564 34.4367 21.7439C34.4461 21.5095 34.4555 21.2751 34.4555 21.0408C34.1648 21.0501 33.8648 21.0595 33.5555 21.0689C33.3211 21.0783 33.0867 21.0923 32.8523 21.1017C32.468 21.1205 32.0695 21.1251 31.6617 21.083L31.4226 21.1439L31.3523 21.1345C31.357 21.1673 31.0992 21.2095 30.9258 21.2189C30.7617 21.1533 30.9351 21.0689 30.368 21.0736C29.918 21.008 29.0883 21.1064 28.4977 21.1392C28.8164 21.1486 28.7133 21.1861 28.5773 21.2095C28.2914 21.2095 28.1273 21.1439 27.907 21.172L27.8789 21.083C27.9351 21.1251 27.7477 21.1486 27.5367 21.1626C27.4289 21.172 27.3117 21.1767 27.218 21.1861C27.0867 21.1908 26.9836 21.2001 26.9508 21.2095C26.8289 21.1767 26.9789 21.1626 27.1852 21.1486C27.3586 21.1345 27.5039 21.1251 27.5461 21.1017C26.5242 21.1064 26.4961 21.1064 26.0133 21.1111C26.0133 21.1251 26.032 21.4158 26.0648 22.0205C26.1773 22.883 26.1445 21.8986 26.243 22.2923C26.2898 22.8455 26.3789 23.3564 26.3555 23.9798L26.4258 23.7783C26.5383 24.7861 26.5617 25.3908 26.5195 26.0751C27.5508 33.5705 27.4758 27.6173 27.4758 27.6173C27.4852 26.4267 27.4383 25.4658 27.368 24.5189C27.3258 24.0455 27.2836 23.572 27.2414 23.0751C27.218 22.8267 27.1945 22.5689 27.1664 22.3064C27.1523 22.2361 27.1383 22.2267 27.1242 22.1658C27.1383 22.1611 27.157 22.1564 27.1805 22.1517L27.218 22.1423C27.2414 22.1376 27.2133 22.1376 27.3211 22.1376C27.607 22.1423 27.9351 22.133 28.2867 22.1236Z" fill="#084242"/>
<path d="M61.1318 26.2252L61.1646 26.2439C61.16 26.2298 61.1459 26.2205 61.1318 26.2252Z" fill="#084242"/>
<path d="M62.3741 26.858C62.3741 26.8627 62.3694 26.8627 62.3694 26.8673L62.3741 26.858Z" fill="#084242"/>
<path d="M61.3241 27.2564C61.6054 27.1673 61.7413 27.2705 61.9898 27.0877C62.1257 27.0361 62.2523 26.9377 62.3694 26.8627C62.3788 26.7267 62.5382 26.783 62.5663 26.6564L62.6226 26.7033C62.6319 26.6611 62.6507 26.6283 62.6929 26.647L62.6976 26.6658C62.7116 26.6002 62.7679 26.6095 62.7772 26.5767L62.7819 26.5955L62.8241 26.5673L62.8288 26.5955C62.871 26.5158 62.9366 26.483 63.0069 26.4783L62.9694 26.408C63.1335 26.4314 63.1054 26.258 63.2648 26.3002L63.2694 26.3189C63.321 26.0564 63.5601 26.3423 63.621 26.0892C63.6116 26.122 63.6491 26.122 63.6538 26.1408C63.7101 26.0892 63.7804 26.0423 63.7101 25.897C63.7616 25.8736 63.771 25.9252 63.8038 25.9767C63.7757 25.9111 63.8038 25.8689 63.8413 25.8455L63.8366 25.8783L63.9351 25.8033L63.8554 25.6955C63.9304 25.7002 63.9397 25.8361 63.9819 25.7798L63.9351 25.6814C64.0241 25.6627 64.146 25.7892 64.2585 25.8267C64.6054 25.7142 64.8351 25.297 65.2241 25.3252L65.271 25.3955C65.3272 25.5033 65.2804 25.1939 65.3366 25.2877L65.3507 25.222C65.3694 25.2361 65.4022 25.2502 65.3929 25.283C65.4257 25.2736 65.421 25.2548 65.4257 25.208L65.4913 25.2595C65.646 25.2502 65.6929 25.0673 65.8429 25.0298C66.0726 25.0908 66.3163 24.8189 66.4616 24.6595C66.6351 24.3783 67.1272 24.6783 67.296 24.3689C67.31 24.3783 67.3147 24.3361 67.31 24.322L67.5491 24.2283C67.5491 24.2283 68.6975 23.7361 67.4132 23.2392L67.4085 23.2111C67.2538 23.2158 67.1694 23.2392 67.1366 23.3986C67.0522 23.258 67.0241 23.4314 66.9725 23.3986L66.9772 23.3892C66.9538 23.5392 66.771 23.3705 66.7476 23.5064C66.7429 23.4923 66.7288 23.4502 66.7429 23.4408C66.696 23.483 66.6397 23.5533 66.5929 23.4689C66.471 23.5533 66.2741 23.6002 66.2507 23.7736L66.246 23.7455C66.2413 23.858 66.1897 23.7877 66.1616 23.858C66.1522 23.8486 66.1476 23.8439 66.1476 23.8392C66.1382 23.9564 66.0022 23.9236 65.9788 23.9845L65.9507 23.9283L65.8522 23.9892L65.8944 23.9845C65.9554 24.1486 65.7679 23.9236 65.7444 24.0595C65.6647 24.0736 65.7538 24.4486 65.646 24.4064C65.646 24.4955 65.6226 24.2752 65.5944 24.3548C65.5522 24.2752 65.5944 24.2939 65.5522 24.233C65.5194 24.2939 65.4304 24.1908 65.3929 24.2752L65.3601 24.2142C65.3319 24.3689 65.1679 24.2048 65.1632 24.3408C65.1022 24.4345 65.0179 24.1814 64.9897 24.3455L64.9147 24.2752C64.8726 24.2798 64.9382 24.3923 64.8772 24.3689C64.8538 24.3126 64.8022 24.3502 64.8022 24.2892C64.6663 24.2517 64.6663 24.5002 64.4741 24.4158C64.4976 24.533 64.4038 24.5002 64.4226 24.5892C64.3991 24.547 64.2913 24.6408 64.3147 24.5095C64.3147 24.5002 64.3288 24.4955 64.3382 24.5142L64.3194 24.4486C64.1929 24.3642 64.221 24.5752 64.1413 24.5892C64.1741 24.5986 64.1976 24.5798 64.1976 24.6314L64.1272 24.6548L64.1179 24.5939L64.0054 24.608L64.0476 24.6642C63.9819 24.6548 63.9163 24.5517 63.9069 24.6689C63.9069 24.7298 63.9913 24.7345 63.9538 24.7767C63.8694 24.7627 63.7429 24.7392 63.6538 24.758C63.696 24.8283 63.6726 24.833 63.6585 24.8611L63.6257 24.8002C63.5788 24.9267 63.5272 24.6736 63.4757 24.7861L63.4616 24.7392L63.4991 24.8845C63.4804 25.0486 63.396 24.772 63.3913 24.983C63.4194 24.9548 63.471 25.1142 63.4194 25.1048L63.4007 25.0392C63.3819 25.0627 63.3866 25.0908 63.3679 25.0861C63.3679 25.0486 63.3351 24.9923 63.3022 25.0205L63.2882 24.9314L63.2788 25.072C63.1991 25.0298 63.1569 25.147 63.096 25.072C63.096 25.072 62.9694 25.0814 62.9882 25.1845C62.9835 25.1142 62.9132 25.1189 62.8991 25.0439C62.9038 25.1236 62.8476 25.2173 62.7819 25.1611L62.7866 25.1517C62.6319 25.1377 62.6272 25.3486 62.4772 25.3111C62.5147 25.3814 62.4397 25.3673 62.5007 25.4564C62.4304 25.6017 62.2054 25.3627 62.3038 25.672C62.2616 25.7095 62.2101 25.6345 62.1772 25.6298L62.1819 25.6111C62.0976 25.6814 62.0694 25.6955 61.9944 25.7236C61.971 25.7705 62.0319 25.9064 61.9522 25.9017C61.9476 25.8361 61.9241 25.8595 61.9007 25.8736C61.9101 25.8595 61.9054 25.8361 61.8585 25.8127C61.8632 25.8314 61.8585 25.8455 61.8585 25.8548C61.8585 25.8502 61.8538 25.8502 61.8491 25.8408C61.8163 25.8783 61.8351 25.8923 61.8538 25.8923C61.8585 25.9017 61.8632 25.9111 61.8772 25.9252C61.8022 25.8736 61.7647 25.9861 61.7179 25.8923C61.6101 25.972 61.5679 26.1033 61.4835 26.1877C61.4507 26.1455 61.4554 26.0939 61.4741 26.0611L61.4132 26.1127C61.3804 26.0423 61.4366 26.0564 61.4507 26.0283C61.3147 25.958 61.3288 26.2205 61.1835 26.1642L61.1882 26.2298L61.1788 26.2252C61.1929 26.2533 61.1882 26.3048 61.1788 26.3189C61.1366 26.2673 61.1132 26.183 61.0663 26.2064C61.0007 26.1689 60.9726 26.2861 60.9351 26.3423C60.9679 26.3377 60.9726 26.3752 60.9726 26.4033C60.9491 26.4173 60.9069 26.3658 60.9022 26.3986L60.8601 26.3189C60.9069 26.3892 60.8366 26.4314 60.8413 26.4689C60.7991 26.4173 60.8554 26.3986 60.8413 26.3517C60.7476 26.4033 60.7944 26.3798 60.7007 26.4314C60.6773 26.5158 60.7476 26.5017 60.7522 26.5861C60.7147 26.6236 60.696 26.6986 60.621 26.6752L60.6726 26.7361C60.6116 26.8298 60.5554 26.8486 60.4663 26.8017C60.096 27.683 60.7054 27.6595 60.7054 27.6595C61.0147 27.7205 61.0476 27.4533 61.3241 27.2564Z" fill="#084242"/>
<path d="M66.6494 45.3689L66.6447 45.3314C66.6353 45.3408 66.6353 45.3548 66.6494 45.3689Z" fill="#084242"/>
<path d="M61.629 43.0111C61.6243 43.0111 61.6243 43.0111 61.6196 43.0158C61.6243 43.0158 61.6243 43.0111 61.629 43.0111Z" fill="#084242"/>
<path d="M66.3494 44.0095C66.3541 44.0095 66.354 44.0095 66.3587 44.0048L66.3494 44.0095Z" fill="#084242"/>
<path d="M67.3196 44.5673C67.0712 44.408 67.0665 44.2345 66.7665 44.1595C66.6399 44.0845 66.4852 44.0517 66.3493 44.0095C66.2368 44.0892 66.1806 43.9298 66.0681 43.9861V43.9111C66.0306 43.9298 65.9884 43.9392 65.979 43.8923L65.9884 43.8736C65.9274 43.9017 65.8993 43.8548 65.8712 43.8689L65.8806 43.8501L65.8337 43.8361L65.8524 43.8126C65.7634 43.8314 65.6977 43.8033 65.6462 43.7517L65.6181 43.8267C65.5337 43.6861 65.4118 43.8173 65.3462 43.6673L65.3556 43.6486C65.1212 43.7751 65.1915 43.4095 64.9571 43.522C64.9852 43.508 64.9665 43.4798 64.9759 43.4611C64.8962 43.4517 64.8212 43.4283 64.7509 43.5736C64.704 43.5501 64.7321 43.508 64.7509 43.4517C64.7227 43.5173 64.6665 43.522 64.6243 43.508L64.6524 43.4939L64.5306 43.4611L64.4977 43.5923C64.4556 43.5314 64.554 43.4376 64.4837 43.4423L64.4368 43.5408C64.3665 43.4845 64.3899 43.3111 64.3431 43.1986C64.0384 43.0017 63.5649 43.0908 63.3446 42.772L63.3681 42.6923C63.4149 42.5798 63.2087 42.8142 63.2462 42.7064L63.1852 42.7392C63.1852 42.7158 63.1712 42.683 63.204 42.6689C63.1712 42.6501 63.1618 42.6689 63.1243 42.6876L63.1196 42.6033C63.0165 42.4908 62.8431 42.5705 62.7212 42.4767C62.6228 42.2611 62.2571 42.2423 62.0462 42.233C61.7227 42.2798 61.6384 41.708 61.2915 41.7736C61.2915 41.7548 61.254 41.7783 61.2446 41.7923L61.0196 41.6658C61.0196 41.6658 59.9087 41.0892 60.3399 42.4017L60.3212 42.4205C60.4196 42.5376 60.4946 42.5892 60.6399 42.5095C60.5837 42.6642 60.7384 42.5751 60.7431 42.6361L60.7337 42.6455C60.8649 42.5705 60.8509 42.8142 60.9727 42.7486C60.9634 42.758 60.9446 42.8001 60.9259 42.7908C60.9915 42.8001 61.0806 42.8001 61.0431 42.8892C61.1837 42.9267 61.3477 43.0533 61.4977 42.9595L61.479 42.9783C61.568 42.908 61.5493 42.9923 61.6243 42.9736C61.6196 42.9876 61.6243 42.9923 61.6196 42.997C61.7134 42.9314 61.779 43.0533 61.8399 43.0345L61.8165 43.0908L61.9243 43.1283L61.8915 43.1001C61.9806 42.9501 61.9243 43.2361 62.0462 43.1705C62.1071 43.222 62.3415 42.9126 62.379 43.0251C62.4493 42.9689 62.2946 43.1283 62.3696 43.0955C62.3321 43.1798 62.3227 43.133 62.304 43.208C62.3743 43.1939 62.3462 43.3298 62.4352 43.3064L62.4071 43.372C62.5431 43.297 62.5243 43.5267 62.6274 43.4423C62.7352 43.4283 62.5946 43.658 62.7399 43.5736L62.7352 43.6767C62.7681 43.7095 62.8102 43.583 62.8337 43.6439C62.8056 43.6955 62.8665 43.7142 62.8196 43.7517C62.8759 43.883 63.0681 43.7236 63.1243 43.9251C63.1993 43.8314 63.2321 43.9251 63.2931 43.8548C63.2743 43.9017 63.4149 43.9205 63.2977 43.9861C63.2884 43.9908 63.279 43.9861 63.2884 43.9673L63.2509 44.0236C63.2649 44.1736 63.4102 44.0189 63.4712 44.0705C63.4618 44.0423 63.429 44.033 63.4665 44.0001L63.5274 44.0376L63.4899 44.0845L63.5743 44.1595L63.5931 44.0892C63.6259 44.1455 63.5884 44.2626 63.6868 44.197C63.7337 44.1595 63.6821 44.0892 63.7431 44.0939C63.7852 44.1689 63.8509 44.2814 63.9212 44.3376C63.9493 44.2626 63.9681 44.272 63.9962 44.272L63.9681 44.3376C64.0946 44.2908 63.9352 44.4923 64.0524 44.4642L64.0243 44.5064L64.1087 44.3845C64.2446 44.2955 64.0899 44.5345 64.254 44.4033C64.2165 44.3986 64.3056 44.258 64.3337 44.3048L64.2962 44.3611C64.3243 44.3611 64.3431 44.3376 64.3524 44.3564C64.3243 44.3845 64.3056 44.4408 64.3431 44.4455L64.2821 44.5111L64.3993 44.4267C64.4181 44.5158 64.5352 44.4689 64.5165 44.5673C64.5165 44.5673 64.6056 44.6611 64.6712 44.5767C64.6243 44.6236 64.6712 44.6751 64.6196 44.7361C64.6806 44.6845 64.7837 44.6658 64.7837 44.7548L64.7743 44.7595C64.8634 44.8908 65.0274 44.7595 65.0931 44.8955C65.1212 44.8205 65.1634 44.8861 65.1915 44.7876C65.3462 44.7501 65.304 45.0736 65.4821 44.8064C65.5384 44.8158 65.5102 44.9048 65.529 44.9283L65.5102 44.9376C65.6181 44.9611 65.6462 44.9705 65.7165 45.008C65.7634 44.9986 65.8337 44.8626 65.8806 44.9283C65.8337 44.9705 65.8665 44.9751 65.8899 44.9845C65.8712 44.9845 65.8571 45.0033 65.8712 45.0548C65.8853 45.0408 65.8946 45.0314 65.904 45.0267C65.904 45.0314 65.904 45.0361 65.8993 45.0408C65.9462 45.0408 65.9509 45.022 65.9321 45.0033C65.9368 44.9939 65.9415 44.9845 65.9415 44.9658C65.9509 45.0548 66.0587 45.0173 66.0212 45.1111C66.1524 45.1439 66.279 45.0923 66.3962 45.1017C66.3868 45.1533 66.3399 45.1861 66.3024 45.1908L66.3821 45.2048C66.3493 45.2705 66.3212 45.2236 66.2931 45.2283C66.3259 45.3783 66.5181 45.2001 66.5696 45.3455L66.6165 45.3033V45.3126C66.6306 45.2845 66.6681 45.2564 66.6868 45.2517C66.6728 45.3173 66.6212 45.3876 66.6728 45.4064C66.6821 45.4814 66.7946 45.4298 66.8602 45.4205C66.8368 45.397 66.8603 45.3689 66.8837 45.3548C66.9071 45.3642 66.8931 45.4298 66.9259 45.4158L66.8884 45.4955C66.9165 45.4158 66.9915 45.4439 67.0149 45.4158C67.0009 45.4814 66.954 45.4486 66.9259 45.4908C67.029 45.5283 66.9774 45.5095 67.0759 45.547C67.1556 45.5095 67.104 45.4673 67.1603 45.4064C67.2118 45.4111 67.2868 45.3783 67.3149 45.4486L67.3337 45.3689C67.4462 45.3548 67.4931 45.3876 67.5165 45.4861C68.4352 45.2095 68.0274 44.7595 68.0274 44.7595C67.8774 44.5064 67.6478 44.6517 67.3196 44.5673Z" fill="#084242"/>
<path d="M68.9039 30.2798L68.8757 30.4205C68.8898 30.4205 68.9039 30.383 68.9039 30.2798Z" fill="#084242"/>
<path d="M71.0509 30.2611L71.0415 30.2283C71.0462 30.2517 71.0462 30.2611 71.0509 30.2611Z" fill="#084242"/>
<path d="M67.9195 35.7033C67.9195 35.6986 67.9195 35.6939 67.9195 35.6939C67.9149 35.6798 67.9148 35.6705 67.9102 35.6564L67.9195 35.7033Z" fill="#084242"/>
<path d="M67.8586 28.6158C67.8586 30.4767 67.718 30.9736 67.8211 32.9001C67.8305 33.8189 67.8821 34.7986 67.9196 35.6986C68.0461 36.1204 67.9477 36.8798 68.0555 37.3814L67.9946 37.5783C68.0321 37.7517 68.0602 37.9533 68.0274 38.1314L68.0086 38.122C68.0649 38.3798 68.0414 38.6751 68.0696 38.8017L68.0508 38.7923L68.0649 39.1064L68.0367 39.0548C68.1024 39.5048 68.1117 39.9736 68.0977 40.3861L68.1774 40.3486C68.1024 41.2298 68.2805 41.5486 68.1914 42.3454L68.1727 42.3361C68.2899 42.8376 68.2617 43.2314 68.2336 43.6345C68.2102 44.0376 68.1586 44.4314 68.3039 44.9892C68.2664 44.8533 68.2664 45.0548 68.2477 45.0454C68.2992 45.5658 68.5195 46.1611 68.6789 46.1001C68.8383 46.4704 68.7774 46.4236 68.7445 46.5033C68.8008 46.4658 69.0211 46.7892 69.2789 46.9954L69.1477 46.9111C69.3821 47.1314 69.6539 47.3095 69.968 47.4079C69.9211 47.3423 69.8789 47.2814 69.8461 47.2158C70.057 47.3283 70.0852 47.3658 70.1039 47.4079C70.1274 47.4408 70.1414 47.4876 70.4039 47.5017L70.4086 47.3939C70.7555 47.4361 71.0742 47.3845 71.3555 47.2626C71.6414 47.1408 71.8992 46.9158 72.0867 46.597C72.3867 45.8986 72.3399 45.2236 72.3164 44.6423C72.2836 44.0564 72.2508 43.4658 72.218 42.8845C72.1524 41.7173 72.1102 40.5689 72.1852 39.5001L72.2649 39.4064C72.3867 39.3642 72.0727 38.8204 72.1852 38.7361L72.1242 38.4876C72.143 38.4173 72.1664 38.272 72.1946 38.3939C72.1946 38.1642 72.1758 38.1595 72.1336 37.9954L72.2039 37.747C72.2414 36.8423 72.0821 36.0736 72.0914 35.122C72.2227 33.9736 72.0352 31.8267 71.9274 30.5845C71.7117 28.8454 72.1477 26.8064 71.9086 25.0251C71.9227 24.9689 71.8852 24.8189 71.8711 24.8189C71.8571 24.2751 71.8805 23.7361 71.8149 23.1314C71.8149 23.1314 71.8008 22.9954 71.7539 22.7658C71.7024 22.5361 71.6274 22.2033 71.4117 21.847C71.3086 21.6689 71.1727 21.4908 70.9992 21.3361C70.8071 21.1626 70.5539 21.0361 70.3149 20.9751C69.8274 20.8626 69.3586 20.9517 68.9977 21.172C68.6274 21.3783 68.4258 21.8001 68.4445 22.0533C68.4586 22.3111 68.5477 22.3814 68.6039 22.3205C68.6742 22.2642 68.7164 22.0017 69.0024 21.8189C69.143 21.7298 69.3399 21.6736 69.5695 21.6783C69.7945 21.6783 70.0758 21.7533 70.2445 21.922L70.2117 21.9314C70.2727 21.9689 70.2961 22.0017 70.3477 22.058C70.3946 22.1142 70.4367 22.1704 70.4742 22.2267C70.5492 22.3392 70.6008 22.4611 70.6524 22.5829C70.7508 22.8267 70.8258 23.0751 70.9196 23.3564C70.7742 23.4548 70.943 24.0501 70.8914 24.2704L70.8774 24.2517C71.0133 24.7954 70.7977 25.3767 70.9196 25.9017C70.9055 25.8829 70.8633 25.8689 70.8586 25.7517C70.8867 26.1361 70.9336 26.6564 70.8399 26.6892C70.882 27.6033 70.868 28.8829 71.0274 29.4642L70.9992 29.4267C71.1071 29.7595 71.0227 29.8579 71.0836 30.2329C71.0696 30.2517 71.0649 30.2798 71.0602 30.2751C71.168 30.6361 71.0977 31.3392 71.1446 31.6298L71.0836 31.6486L71.1117 32.3751L71.1211 32.1033C71.2945 32.1923 71.0227 32.6517 71.1446 33.1767C71.1352 33.6689 71.5242 34.1658 71.4492 34.6814C71.5336 34.9251 71.3133 34.4705 71.3836 34.8314C71.2945 34.8455 71.3227 34.6626 71.2524 34.7564C71.3039 35.1126 71.1727 35.347 71.243 35.7829L71.1727 35.8017C71.3133 36.3736 71.1024 36.8892 71.2336 37.2689C71.3039 37.8595 71.0321 37.672 71.1821 38.2861L71.093 38.5298C71.0836 38.7923 71.2149 38.7173 71.1727 39.0126C71.1117 38.9939 71.1305 39.3829 71.0742 39.2142C70.9945 39.8798 71.2336 40.5595 71.093 41.4361C71.2149 41.6236 71.1539 42.0642 71.243 42.2048C71.1914 42.2283 71.2524 43.0861 71.1352 42.5939C71.1258 42.5517 71.1258 42.4767 71.1446 42.4814L71.0742 42.4251C70.9524 42.9267 71.1633 43.3298 71.1539 43.822C71.1727 43.6767 71.1633 43.4798 71.2149 43.6111V44.0704L71.1539 43.9767L71.1352 44.6611L71.2055 44.5673C71.1727 44.9048 71.0602 45.0173 71.1492 45.3501C71.2008 45.5048 71.257 45.0689 71.2664 45.3876C71.2289 45.5845 71.1727 45.8236 71.0789 46.0204C70.9852 46.222 70.8727 46.3298 70.7742 46.3861C70.8399 46.4376 70.7789 46.4798 70.718 46.522L70.6852 46.4564C70.5774 46.5361 70.5352 46.4892 70.5164 46.4517C70.4883 46.4048 70.4883 46.3814 70.3289 46.3673L70.3711 46.3298C70.3336 46.3626 70.2867 46.4048 70.2352 46.4329C70.0477 46.4189 70.0196 46.3486 70.0008 46.297C69.9774 46.2361 69.9492 46.1986 69.7524 46.1048C69.8649 46.222 69.6774 46.2736 69.5789 46.0673L69.6633 46.0767C69.5883 45.9876 69.5461 45.9548 69.5227 45.8704C69.5883 45.922 69.6258 45.8704 69.5508 45.7017C69.5883 45.7345 69.6352 45.7579 69.6727 45.7861C69.593 45.7017 69.5133 45.6033 69.443 45.4908C69.4383 45.2048 69.3164 44.7033 69.4102 44.5579C69.4102 44.5579 69.4149 44.3798 69.4102 44.1736C69.4055 43.9673 69.3867 43.7376 69.3305 43.6486C69.4008 43.7986 69.4149 43.3861 69.4945 43.4986C69.4149 43.3064 69.3445 42.7345 69.4195 42.5048L69.4289 42.547C69.4899 41.6986 69.2883 41.0986 69.368 40.3345C69.2883 40.372 69.3211 39.9689 69.2227 40.0673C69.1055 39.2845 69.4055 38.6283 69.0774 38.3517C69.0539 37.9954 69.143 37.9251 69.157 37.7423L69.1758 37.8267C69.1336 37.1564 69.1289 36.9595 69.1242 36.4626C69.0867 36.2142 68.9367 36.1767 68.9649 35.7314C69.0258 35.872 69.0117 35.6939 69.0071 35.5251C69.0164 35.6329 69.0399 35.6658 69.0774 35.4454C69.0586 35.4173 69.0446 35.3658 69.0352 35.3236C69.0399 35.3236 69.0446 35.3142 69.0492 35.3189C69.0211 35.0423 69.007 35.0892 68.9977 35.2204C68.9883 35.2158 68.9789 35.2251 68.9602 35.2673C69.0305 34.9767 68.9367 34.4611 69.0399 34.4236C68.9977 33.5892 68.8805 32.9892 68.8242 32.2954C68.8758 32.2158 68.9227 32.3798 68.9508 32.5814L68.9227 32.0892C68.9977 32.0939 68.9742 32.3704 68.9883 32.5251C69.0961 31.9345 68.843 31.3158 68.9367 30.622L68.8758 30.4814L68.8852 30.4392C68.8524 30.4439 68.8055 30.2892 68.7961 30.1861C68.8617 30.0876 68.9461 30.1908 68.9367 29.8486C68.993 29.5767 68.8899 29.0798 68.8477 28.7283C68.8383 28.9204 68.8008 28.8595 68.7774 28.7751C68.7727 28.6064 68.8336 28.5033 68.8055 28.372L68.8945 28.3533C68.8102 28.4236 68.7961 27.9079 68.7586 27.847C68.8242 27.7486 68.8196 28.1095 68.8711 28.1517C68.8477 27.4673 68.8617 27.8095 68.8383 27.1251C68.7633 26.7595 68.7539 27.1954 68.6742 27.022C68.6508 26.6986 68.5805 26.3845 68.6274 26.0142L68.5524 26.1314C68.4774 25.5267 68.4821 25.1658 68.5524 24.7533C67.8164 20.2533 67.6571 23.8204 67.6571 23.8204C67.5024 25.5876 67.7508 26.5017 67.8586 28.6158Z" fill="#084242"/>
<path d="M57.8508 41.4642L57.9165 41.497C57.9165 41.483 57.8977 41.4689 57.8508 41.4642Z" fill="#084242"/>
<path d="M59.7867 27.8517L59.7773 27.847C59.782 27.8517 59.782 27.8517 59.7867 27.8517Z" fill="#084242"/>
<path d="M60.8977 42.2564C60.8977 42.2611 60.8977 42.2611 60.8977 42.2611C60.9024 42.2751 60.9024 42.2845 60.9071 42.2986L60.8977 42.2564Z" fill="#084242"/>
<path d="M57.0633 42.4767C57.9305 42.5142 58.1602 42.6689 59.0602 42.608C59.2711 42.6173 60.2602 42.5939 60.9071 42.5751C60.9024 42.4673 60.9024 42.3642 60.8977 42.2611C60.8367 42.0267 60.8367 41.783 60.8414 41.5205C60.8414 41.3892 60.8461 41.258 60.8414 41.1314C60.8367 41.0376 60.8274 40.9908 60.7992 40.9251L60.8649 40.8361C60.832 40.7564 60.8086 40.658 60.8461 40.5783L60.8649 40.583C60.8133 40.4611 60.8461 40.3251 60.818 40.2642L60.8367 40.2689L60.8274 40.1236L60.8555 40.147C60.7992 39.9361 60.7992 39.7158 60.8227 39.5236L60.743 39.5376C60.832 39.1251 60.6633 38.9751 60.7711 38.6048L60.7899 38.6095C60.5742 38.1408 60.9352 37.8689 60.7336 37.3861C60.757 37.447 60.7758 37.3626 60.7945 37.3673C60.7711 37.147 60.757 36.908 60.5977 36.9033C60.5977 36.7392 60.6492 36.772 60.7102 36.7486C60.6399 36.7486 60.6117 36.608 60.607 36.4814L60.6352 36.5376L60.6117 36.1767L60.4805 36.247C60.518 36.0548 60.6399 36.2001 60.6117 36.0126L60.5039 36.0173C60.5274 35.7501 60.6914 35.5955 60.7711 35.3376C60.818 34.2689 60.5367 33.1205 60.7336 32.122L60.818 32.0798C60.9399 32.0611 60.6399 31.8033 60.7524 31.7658L60.6961 31.6486C60.7195 31.6158 60.743 31.5455 60.7664 31.6064C60.7711 31.4986 60.7524 31.4986 60.7149 31.4189L60.7899 31.3017C60.8461 30.8798 60.7055 30.5189 60.7336 30.0736C60.8883 29.5392 60.7477 28.5361 60.6633 27.9548C60.6539 27.9173 60.6492 27.8939 60.6445 27.8423C60.6399 27.7861 60.6352 27.7345 60.6305 27.683C60.6258 27.5751 60.6211 27.4673 60.6211 27.3595C60.6211 27.1392 60.6352 26.9095 60.6539 26.6611C60.2274 26.6189 59.7539 26.572 59.332 26.5298C59.0414 26.497 58.7508 26.4876 58.4742 26.558C58.4461 26.5392 58.3758 26.5814 58.3758 26.5908L57.6117 26.572C57.6117 26.572 53.9133 26.5251 56.7211 27.5236L56.7024 27.5517C57.1196 27.6173 57.382 27.6314 57.6727 27.4955C57.7195 27.6595 58.0149 27.5142 58.1133 27.5658L58.1039 27.5798C58.357 27.4533 58.6289 27.683 58.8727 27.5705C58.8633 27.5845 58.8586 27.6267 58.8024 27.6314C58.9805 27.6126 59.2242 27.5751 59.2383 27.6689C59.3274 27.6642 59.4211 27.6595 59.5195 27.6548C59.5664 27.6501 59.6133 27.6455 59.6789 27.6267C59.6977 27.6501 59.7258 27.6642 59.768 27.6783L59.7399 27.6876C59.843 27.7017 59.7539 27.7626 59.8055 27.8283C59.7914 27.833 59.7867 27.8423 59.782 27.8376C59.8055 27.847 59.8195 27.8939 59.8289 27.9548C59.8336 28.0111 59.8336 28.072 59.8336 28.133C59.8289 28.2548 59.8195 28.3673 59.843 28.4376L59.782 28.447L59.7961 28.7845L59.8102 28.658C59.9836 28.7001 59.7024 28.9158 59.8149 29.1595C59.7914 29.3892 60.1711 29.6236 60.0867 29.8626C60.1664 29.9751 59.9555 29.7642 60.0164 29.933C59.9274 29.9376 59.9602 29.8533 59.8899 29.8955C59.932 30.0642 59.7961 30.1673 59.857 30.3736L59.7867 30.383C59.9133 30.6501 59.693 30.8892 59.8149 31.0673C59.8711 31.3439 59.6086 31.2548 59.7445 31.5408L59.6508 31.6533C59.6367 31.7751 59.768 31.7423 59.7211 31.8783C59.6602 31.8689 59.6742 32.0517 59.618 31.972C59.5242 32.2814 59.7492 32.6001 59.5945 33.008C59.7117 33.097 59.6414 33.3033 59.7305 33.3689C59.6789 33.3783 59.7211 33.7814 59.6133 33.5517C59.6039 33.533 59.6039 33.4955 59.6274 33.5001L59.5571 33.472C59.4258 33.7064 59.6274 33.8939 59.6086 34.1236C59.632 34.0533 59.6274 33.9642 59.6742 34.0251L59.6649 34.2408L59.6086 34.1986L59.5758 34.5173L59.6461 34.4751C59.6086 34.6298 59.4867 34.6861 59.5899 34.8595C59.6461 34.9392 59.6883 34.7095 59.707 34.8783C59.6602 35.0845 59.5852 35.3986 59.5617 35.6658C59.6414 35.6423 59.6414 35.7126 59.6555 35.7876L59.5852 35.797C59.6836 36.0783 59.4305 35.9001 59.5102 36.1814L59.4633 36.158L59.6086 36.233C59.7492 36.4861 59.4633 36.3689 59.6508 36.6501C59.6367 36.5376 59.8055 36.5986 59.7727 36.7345L59.707 36.7017C59.7211 36.7767 59.7492 36.8048 59.7352 36.8517C59.6977 36.8048 59.6367 36.8283 59.6461 36.9408L59.5617 36.8658L59.6883 37.0767C59.618 37.2408 59.707 37.4986 59.6133 37.5642C59.6133 37.5642 59.5664 37.9111 59.6695 37.9955C59.6039 37.9251 59.5805 38.1173 59.5055 38.0611C59.5805 38.1501 59.6367 38.4173 59.5617 38.5251L59.5524 38.5064C59.4727 38.9001 59.6602 39.1814 59.5664 39.5376C59.6461 39.5236 59.6039 39.7111 59.707 39.6642C59.8102 40.0298 59.4961 40.3345 59.8149 40.4658C59.8336 40.6345 59.7399 40.6626 59.7211 40.7517L59.7024 40.7142C59.7164 40.8689 59.7211 40.972 59.7258 41.0611V41.1408C59.7258 41.1595 59.7258 41.1736 59.7211 41.197C59.7539 41.2439 59.9039 41.333 59.8664 41.4314C59.8055 41.3517 59.8195 41.4033 59.8195 41.4408C59.8102 41.408 59.7867 41.3892 59.7492 41.3939C59.7633 41.4126 59.7774 41.4314 59.7867 41.4501V41.4548C59.782 41.4501 59.7774 41.4455 59.7727 41.4408C59.7352 41.4595 59.7586 41.4783 59.7961 41.4876C59.8008 41.497 59.8149 41.5064 59.843 41.5251C59.707 41.4501 59.6461 41.5298 59.5852 41.4267C59.5477 41.4314 59.5102 41.4455 59.4727 41.4595L59.4445 41.4689L59.3836 41.4783L59.2617 41.5017C59.1024 41.5345 58.9524 41.572 58.7883 41.5908C58.7508 41.5392 58.8258 41.4923 58.9242 41.4736L58.6946 41.4923C58.6946 41.4173 58.8258 41.4501 58.8961 41.4361C58.6196 41.3142 58.3289 41.558 58.0102 41.4455L57.9446 41.5064L57.9258 41.497C57.9258 41.5298 57.8555 41.572 57.8086 41.5814C57.7617 41.5158 57.8133 41.4314 57.6539 41.4361C57.5274 41.3705 57.2977 41.4689 57.1289 41.5017C57.218 41.5111 57.1899 41.5486 57.1524 41.572C57.0727 41.572 57.0258 41.5064 56.9649 41.5345L56.9555 41.4455C56.9883 41.5298 56.7492 41.5345 56.7164 41.572C56.6696 41.5064 56.8383 41.5158 56.8617 41.4642C56.543 41.4736 56.7024 41.4689 56.3836 41.4783C56.2149 41.5439 56.4164 41.5626 56.3321 41.6376C56.1821 41.6564 56.0367 41.7173 55.8633 41.6658L55.9196 41.7455C55.6383 41.8064 55.4696 41.797 55.2774 41.7173C53.1727 42.3595 54.8321 42.5939 54.8321 42.5939C55.6477 42.7673 56.0742 42.5376 57.0633 42.4767Z" fill="#084242"/>
</svg>
