<svg width="77" height="73" viewBox="0 0 77 73" fill="none" xmlns="http://www.w3.org/2000/svg">
<path d="M40.1309 52.4194C49.8564 52.4194 57.7404 44.5364 57.7404 34.8121C57.7404 25.0879 49.8564 17.2049 40.1309 17.2049C30.4055 17.2049 22.5215 25.0879 22.5215 34.8121C22.5215 44.5364 30.4055 52.4194 40.1309 52.4194Z" fill="#FFEDC9"/>
<path d="M12.9595 2.76863V2.84225C12.9595 2.84225 12.9811 2.81189 12.9595 2.76863Z" fill="#084242"/>
<path d="M11.631 2.76868C12.0637 3.47816 12.0637 3.75507 12.6132 4.43427C12.8425 4.78036 13.1237 5.12205 13.3704 5.44651C13.5867 5.52871 13.6775 5.87914 13.8939 6.00893V6.12141C13.933 6.13927 13.9677 6.16569 13.9954 6.19862C14.0231 6.23154 14.0431 6.27012 14.054 6.31173H14.0324C14.1448 6.37663 14.1924 6.50642 14.2487 6.5367L14.3352 6.64918H14.2962C14.4516 6.77884 14.5784 6.93947 14.6684 7.12077L14.7332 7.06025C14.876 7.44095 15.1097 7.45825 15.2179 7.81732C15.6505 8.05958 15.4947 8.49648 15.9404 8.75172C15.8841 8.72144 15.9404 8.79925 15.8972 8.80791C16.0399 8.9723 16.1827 9.1497 16.3298 9.05452C16.4164 9.18431 16.3601 9.19293 16.3298 9.24485C16.3904 9.20159 16.4942 9.2968 16.5677 9.39197L16.5115 9.36599L16.7322 9.63859L16.81 9.50013C16.8836 9.6775 16.6932 9.63861 16.81 9.76407L16.9052 9.69478C17.035 9.91974 16.9745 10.1274 17.0437 10.4C17.5888 11.2652 18.4714 12.0179 18.8479 12.9264L18.8003 13.013C18.7051 13.1038 19.1119 13.1211 19.034 13.2206L19.1464 13.2768C19.1464 13.3157 19.1464 13.3849 19.1032 13.359C19.1594 13.4455 19.1767 13.4369 19.2545 13.4758V13.6099C19.4363 13.982 19.7608 14.1766 19.9815 14.5487C20.1416 15.0678 20.8165 15.7773 21.2102 16.1883C21.8159 16.7247 21.9155 17.7716 22.5558 18.308C22.5558 18.3383 22.6294 18.3686 22.638 18.36L23.0447 18.9787C23.0447 18.9787 25.0436 21.942 24.3773 19.0997H24.412C24.3094 18.7949 24.1025 18.5361 23.8278 18.3686C23.949 18.2302 23.6548 18.0831 23.6462 17.9749C23.3952 17.8494 23.4515 17.4949 23.2135 17.3651C23.2135 17.3651 23.2697 17.3434 23.3043 17.3866C23.1875 17.2568 23.0231 17.0838 23.0967 17.0146C22.8414 16.6945 22.5515 16.1927 22.266 16.0672H22.3005C22.1231 16.0067 22.1751 15.9158 22.0323 15.8076C22.0323 15.8076 22.0323 15.7815 22.0323 15.7772C21.8463 15.7037 21.7425 15.3924 21.63 15.3102L21.6818 15.2669L21.4828 15.0073L21.539 15.1154C21.3616 15.1846 21.4915 14.8429 21.2578 14.7174C21.154 14.5228 20.6867 14.5704 20.6305 14.3281C20.4964 14.2849 20.7993 14.3281 20.6521 14.2286C20.73 14.1681 20.7473 14.2588 20.7862 14.1809C20.6564 14.0727 20.7171 13.9042 20.5483 13.7787L20.6045 13.731C20.3449 13.5925 20.4055 13.2725 20.2022 13.2033C19.9988 13.0173 20.2844 12.9264 20.0032 12.7707V12.6237C19.9469 12.5155 19.8516 12.6236 19.817 12.4895C19.8733 12.4593 19.7651 12.3207 19.856 12.351C19.7695 12.0481 19.3931 11.9184 19.3108 11.5117C19.1594 11.5117 19.1032 11.3085 18.9907 11.3085C19.0296 11.2696 18.7743 10.9754 18.9907 11.0922C19.0123 11.0922 19.0296 11.1311 18.9907 11.1397H19.0685C19.0685 10.8715 18.7743 10.8455 18.6618 10.6508C18.6618 10.7201 18.7354 10.7893 18.6618 10.7676L18.5494 10.5946H18.6272L18.4802 10.322L18.4412 10.4C18.3893 10.2572 18.4671 10.1361 18.281 10.0582C18.1859 10.0323 18.2811 10.2355 18.1643 10.1187C18.0822 9.87257 17.9794 9.63383 17.857 9.40496C17.8008 9.47418 17.7663 9.40493 17.71 9.37032L17.7662 9.31846C17.5239 9.15407 17.8442 9.14107 17.6235 8.96802H17.6797L17.511 9.00267C17.2471 8.88586 17.5629 8.80358 17.2384 8.69542C17.3119 8.77762 17.1346 8.83386 17.0827 8.69542H17.1648C17.1086 8.64351 17.0697 8.64351 17.0523 8.5916C17.1129 8.5916 17.1562 8.55276 17.0827 8.47056H17.1994L16.9745 8.37963C16.9485 8.20658 16.7235 8.05517 16.7711 7.94702C16.7711 7.94702 16.6197 7.64421 16.4855 7.64421C16.5807 7.64421 16.4855 7.49285 16.5937 7.48853C16.4812 7.46257 16.2779 7.28519 16.2909 7.15108C16.1437 6.78769 15.8235 6.67948 15.711 6.33772C15.6505 6.40261 15.5856 6.22524 15.5164 6.33772C15.2265 6.10843 15.3347 5.6758 14.9799 5.77097C14.8717 5.64551 14.9366 5.56768 14.902 5.48549L14.9409 5.50714C14.8041 5.35432 14.6797 5.1908 14.5689 5.01823C14.478 4.94469 14.3352 5.01826 14.253 4.83224C14.3439 4.83224 14.2876 4.78898 14.253 4.72842C14.2876 4.76303 14.3179 4.75873 14.2962 4.65491C14.272 4.65231 14.2485 4.64494 14.227 4.63326C14.1362 4.54241 14.1319 4.57269 14.1578 4.63326C14.1518 4.63793 14.1467 4.64378 14.143 4.65047C14.1392 4.65717 14.137 4.66461 14.1362 4.67223C14.1362 4.52081 13.9242 4.37801 14.0064 4.30447C13.7863 4.06322 13.5537 3.83358 13.3097 3.61658C13.3357 3.55601 13.418 3.58633 13.4872 3.65122L13.3444 3.47822C13.4136 3.43496 13.4569 3.5561 13.5088 3.60369C13.4656 3.30952 13.0761 3.22727 13.0112 2.90714H12.9204C12.8901 2.90714 12.8165 2.9071 12.7776 2.86384C12.8122 2.78597 12.9161 2.77299 12.8252 2.64753C12.8252 2.5091 12.6002 2.3837 12.4747 2.27555C12.5137 2.35342 12.4748 2.35337 12.4272 2.33607C12.3796 2.31876 12.4271 2.19768 12.3536 2.16739L12.4272 2.10677C12.3709 2.18031 12.2325 1.99429 12.1849 1.99429C12.2195 1.91642 12.3016 2.05922 12.3579 2.04192L12.081 1.66983C11.9296 1.57465 12.0247 1.74776 11.9122 1.73045C11.8127 1.61797 11.6786 1.54007 11.631 1.37135L11.5921 1.46218C11.4182 1.33546 11.3004 1.14627 11.2632 0.934412C9.53258 -0.363421 10.2422 1.1204 10.2422 1.1204C10.5927 1.82123 11.0296 2.02026 11.631 2.76868Z" fill="#084242"/>
<path d="M3.5791 25.9522L3.61808 26.0041C3.61808 26.0041 3.62237 25.9738 3.5791 25.9522Z" fill="#084242"/>
<path d="M2.58852 26.757C3.25915 27.0425 3.38453 27.2631 4.12006 27.4534C4.45321 27.5875 4.82537 27.6826 5.16285 27.7821C5.3662 27.7172 5.59552 27.938 5.82051 27.9034L5.86804 27.9984C5.90485 27.9879 5.94379 27.9874 5.98096 27.9965C6.01813 28.0056 6.05224 28.0241 6.08004 28.0504C6.19686 28.0504 6.2921 28.1023 6.34835 28.0937L6.46517 28.1283H6.43486C6.61288 28.1328 6.7869 28.1819 6.94104 28.2711V28.1803C7.23525 28.3923 7.41272 28.2623 7.668 28.4743V28.4961C8.10066 28.4096 8.20008 28.855 8.65438 28.7815C8.59813 28.7815 8.65438 28.8334 8.65438 28.8507C8.8361 28.8897 9.0308 28.9459 9.08704 28.7815C9.21252 28.8334 9.17365 28.8724 9.165 28.9416C9.19096 28.868 9.31203 28.8811 9.41587 28.9114H9.35968L9.65386 28.9935V28.8379C9.79231 28.9287 9.65389 29.0151 9.79234 29.0324L9.82699 28.92C10.0303 29.0195 10.0952 29.2315 10.2597 29.3873C11.086 29.7377 12.0941 29.7766 12.808 30.2525V30.3476C12.7777 30.4773 13.0893 30.2437 13.0763 30.3476H13.1888C13.1888 30.3778 13.2537 30.4211 13.1888 30.4297C13.271 30.4643 13.2796 30.4297 13.3532 30.4297L13.418 30.5379C13.7295 30.7196 14.067 30.672 14.4045 30.8277C14.7723 31.1349 15.616 31.2604 16.105 31.3556C16.8102 31.4032 17.4029 32.1602 18.1168 32.1862C18.1168 32.2121 18.199 32.1862 18.2033 32.1862L18.8005 32.4198C18.8005 32.4198 21.7036 33.5143 19.8475 31.706L19.8735 31.6843C19.764 31.5975 19.6384 31.5335 19.504 31.4956C19.3695 31.4578 19.2289 31.4469 19.0903 31.4637C19.1119 31.2864 18.8264 31.3512 18.7658 31.269C18.5192 31.3209 18.3894 31.0138 18.1558 31.0571C18.1558 31.0571 18.186 31.0053 18.2336 31.0182C18.0865 30.988 17.8788 30.9533 17.9005 30.8581C17.5543 30.7586 17.1001 30.5466 16.8318 30.6245V30.6027C16.6717 30.659 16.6674 30.5595 16.5116 30.5639C16.5116 30.5639 16.5116 30.538 16.5116 30.5337C16.3429 30.5856 16.1179 30.4081 15.9925 30.4124V30.3476L15.7198 30.2654L15.815 30.3174C15.7155 30.4774 15.6506 30.1355 15.417 30.1788C15.2439 30.0879 14.9194 30.4081 14.7637 30.2567C14.6425 30.3043 14.8891 30.1486 14.7333 30.1659C14.7593 30.0751 14.8156 30.1314 14.807 30.0449C14.6599 30.0449 14.6252 29.876 14.4392 29.8803V29.8068C14.1839 29.8587 14.0757 29.5689 13.8897 29.6425C13.6474 29.6208 13.8161 29.3786 13.5392 29.4348L13.4873 29.3093C13.3921 29.2574 13.3748 29.4002 13.284 29.3093C13.3099 29.2531 13.1628 29.2143 13.245 29.1796C13.0373 28.9979 12.7042 29.1363 12.436 28.8594C12.3278 28.9546 12.1893 28.8248 12.1071 28.8941C12.1071 28.8421 11.7826 28.7685 12.0033 28.7253C12.0249 28.7253 12.0508 28.7253 12.0422 28.7513L12.0898 28.6906C11.9514 28.4916 11.7307 28.643 11.5533 28.5565C11.6009 28.5998 11.6744 28.6172 11.6095 28.6518L11.4452 28.5783L11.5013 28.535L11.259 28.4095V28.4961C11.1509 28.4139 11.1509 28.2754 10.9778 28.3273C10.8913 28.3619 11.0558 28.4658 10.9216 28.4441C10.7429 28.3044 10.5517 28.1813 10.3505 28.0764C10.3505 28.1629 10.2856 28.1413 10.2207 28.137V28.0635C9.96108 28.0635 10.1948 27.8774 9.94382 27.8774L9.98269 27.8341L9.87019 27.9595C9.61925 28.0288 9.81392 27.7736 9.52404 27.886C9.6149 27.9077 9.52403 28.0592 9.41154 27.99L9.46351 27.9293C9.39861 27.9293 9.36831 27.9293 9.33369 27.9293C9.38128 27.9077 9.39001 27.8384 9.29482 27.8168L9.38566 27.7519L9.17366 27.8212C9.07415 27.7001 8.83615 27.7174 8.81885 27.6049C8.81885 27.6049 8.55921 27.4578 8.4597 27.54C8.53758 27.4968 8.3948 27.4145 8.4597 27.3539C8.36451 27.4015 8.13092 27.3885 8.07468 27.276H8.09633C7.81077 27.0813 7.52082 27.1938 7.2742 26.9948C7.2742 27.0814 7.12716 26.9948 7.12716 27.103C6.79834 27.103 6.69447 26.7006 6.45218 26.9862C6.31373 26.9559 6.32241 26.8564 6.26183 26.8132H6.29638C6.12315 26.7752 5.95375 26.7216 5.79019 26.6531C5.68635 26.6531 5.61713 26.8002 5.46569 26.705C5.53925 26.6618 5.46564 26.6487 5.40939 26.6271C5.44833 26.6271 5.46997 26.6271 5.40939 26.5449C5.39239 26.5596 5.37127 26.5687 5.34887 26.5709C5.23637 26.5709 5.2494 26.5709 5.29267 26.6055C5.28956 26.6123 5.28792 26.6196 5.28792 26.6271C5.28792 26.6345 5.28956 26.642 5.29267 26.6488C5.21479 26.532 4.99407 26.5493 5.01571 26.4412C4.69986 26.3547 4.44026 26.3805 4.15038 26.3286C4.15038 26.2637 4.21531 26.2421 4.29752 26.2464L4.10717 26.1989C4.13746 26.1254 4.22829 26.1989 4.29319 26.1989C4.12012 25.9956 3.7999 26.1599 3.58789 25.9566L3.51437 25.9999C3.51437 26.0345 3.43215 26.056 3.38888 26.0517C3.38888 25.9738 3.44517 25.9003 3.31969 25.8613C3.19422 25.8224 3.02548 25.7922 2.88703 25.7792C2.95193 25.8138 2.91732 25.8441 2.88703 25.8571C2.85674 25.8701 2.80912 25.7575 2.75288 25.7705L2.77886 25.6755C2.77886 25.7706 2.57982 25.7099 2.54521 25.7359C2.54521 25.658 2.66207 25.7143 2.69668 25.671L2.31588 25.5455C2.1558 25.5455 2.31589 25.6408 2.21638 25.697C2.0909 25.671 1.9525 25.697 1.83568 25.5888V25.6841C1.74267 25.6875 1.65 25.6705 1.56411 25.6347C1.47822 25.5988 1.40108 25.5449 1.33806 25.4765C-0.557016 25.5284 0.671735 26.2378 0.671735 26.2378C1.364 26.6531 1.78809 26.5407 2.58852 26.757Z" fill="#084242"/>
<path d="M7.22656 43.7412L7.2611 43.7803C7.2611 43.7803 7.25252 43.7498 7.22656 43.7412Z" fill="#084242"/>
<path d="M6.68603 44.7967C7.18359 44.8789 7.3047 45.0521 7.83255 45.0261C8.08616 45.0412 8.34044 45.0412 8.59404 45.0261C8.71952 44.9093 8.91425 45.0478 9.06136 44.9526L9.10889 45.0304C9.15648 44.9957 9.2171 44.9741 9.26036 45.0304V45.0521C9.33392 45.0045 9.41177 45.0521 9.44638 45.0175H9.53289V45.0477C9.65022 45.0047 9.77904 45.0047 9.89637 45.0477V44.9613C10.1257 45.0738 10.2252 44.9007 10.4329 45.0348V45.0563C10.7228 44.8444 10.8655 45.2467 11.1467 45.0563C11.1121 45.0823 11.1467 45.1039 11.1467 45.1212C11.2765 45.1212 11.415 45.1213 11.4324 44.9353C11.5275 44.9353 11.5059 44.9916 11.5102 45.0608C11.5102 44.9872 11.6011 44.9613 11.6747 44.9613L11.64 44.9871H11.852L11.8217 44.84C11.9299 44.8919 11.8217 45.0174 11.9472 44.9915V44.8747C12.103 44.9093 12.1766 45.0953 12.3193 45.1905C12.938 45.29 13.6173 45.0392 14.1927 45.2944V45.3852C14.1927 45.515 14.3658 45.2035 14.3788 45.3246L14.4523 45.2726C14.4523 45.2943 14.5086 45.3246 14.4523 45.3506C14.5172 45.3506 14.5172 45.3504 14.5648 45.3029L14.6254 45.3895C14.8677 45.4717 15.0884 45.3332 15.3437 45.3895C15.6422 45.5798 16.2349 45.4716 16.581 45.411C17.0656 45.2553 17.5761 45.8133 18.078 45.6273C18.078 45.6489 18.1387 45.6275 18.1387 45.5929L18.5713 45.6491C18.5713 45.6491 20.713 45.8609 19.164 44.6626V44.6368C18.9261 44.5503 18.7747 44.5243 18.5973 44.6368C18.5973 44.4638 18.4026 44.6063 18.3463 44.5458C18.1862 44.6712 18.0521 44.4118 17.9137 44.5242C17.9137 44.5242 17.9136 44.4594 17.9612 44.4594C17.8574 44.4594 17.7103 44.5026 17.7103 44.3988C17.4594 44.3988 17.1176 44.334 16.9488 44.4854V44.4549C16.8493 44.5588 16.8277 44.4551 16.7238 44.5113C16.7238 44.5113 16.7238 44.4897 16.7238 44.4854C16.6157 44.5849 16.4339 44.4854 16.3517 44.52V44.4507H16.17L16.2435 44.4723C16.2003 44.654 16.1008 44.3468 15.9493 44.4723C15.8195 44.4377 15.6508 44.8357 15.5167 44.7319C15.4475 44.8141 15.5859 44.5978 15.482 44.6584C15.482 44.5589 15.534 44.5979 15.5167 44.52C15.4128 44.5589 15.3653 44.4118 15.2398 44.468V44.3901C15.0754 44.5156 14.9542 44.269 14.8374 44.3901C14.673 44.442 14.7509 44.1609 14.5692 44.295L14.5129 44.1869C14.4436 44.1653 14.4524 44.308 14.3745 44.2517C14.3745 44.1912 14.2793 44.1954 14.3312 44.1392C14.1581 44.0223 13.9548 44.2517 13.7298 44.0656C13.6693 44.1824 13.5568 44.1003 13.5092 44.1911C13.5092 44.1392 13.2711 44.1651 13.4139 44.057C13.4139 44.057 13.4485 44.057 13.4442 44.057L13.4659 43.9835C13.3404 43.8321 13.215 44.0397 13.0808 44.0095C13.1198 44.0354 13.1716 44.0354 13.1327 44.083L13.0115 44.0614L13.0419 44.0008L12.8602 43.9533V44.031C12.7736 43.9834 12.752 43.8494 12.6438 43.9533C12.5357 44.0571 12.7217 44.0614 12.6438 44.0787C12.5073 43.9992 12.3621 43.9353 12.2112 43.8884C12.2112 43.9793 12.1765 43.9705 12.1332 43.9835V43.91C11.9645 44.0008 12.0856 43.7412 11.9169 43.8105V43.7585L11.8607 43.9142C11.7006 44.0526 11.7914 43.7498 11.614 43.9402C11.6789 43.9402 11.6141 44.109 11.5535 44.0701L11.5794 44.0008C11.5361 44.0008 11.5188 44.0396 11.4885 44.0223C11.4583 44.005 11.5102 43.9186 11.4453 43.9273L11.4972 43.8407L11.3631 43.9619C11.2765 43.8797 11.1208 43.9618 11.0862 43.858C11.0862 43.858 10.8915 43.7931 10.8352 43.9013C10.8785 43.8364 10.7704 43.8018 10.8093 43.7196C10.7488 43.7975 10.5886 43.8494 10.5324 43.7585C10.3117 43.6547 10.13 43.8451 9.93535 43.7283C9.93535 43.8148 9.83142 43.7586 9.84873 43.8711C9.62807 43.9663 9.4767 43.6158 9.37286 43.9533C9.27335 43.9533 9.26465 43.8667 9.21706 43.8451H9.24304C9.1195 43.8607 8.99444 43.8607 8.8709 43.8451C8.79735 43.8711 8.77572 44.0311 8.6589 43.9835C8.70217 43.9229 8.65896 43.9316 8.60704 43.9273C8.63732 43.9273 8.64598 43.8969 8.60704 43.8493C8.60031 43.8659 8.58805 43.8798 8.57239 43.8884C8.49451 43.8884 8.50757 43.923 8.54218 43.9359C8.53827 43.9417 8.53616 43.9484 8.53616 43.9554C8.53616 43.9623 8.53827 43.9691 8.54218 43.9748C8.46863 43.8883 8.32151 43.9749 8.32151 43.8538C8.12089 43.8857 7.92275 43.9319 7.72871 43.9921C7.72871 43.9316 7.75898 43.8884 7.81523 43.8711H7.68107C7.68107 43.7889 7.76329 43.8321 7.80223 43.8191C7.65513 43.672 7.46478 43.9228 7.28739 43.7887L7.24418 43.8493C7.23884 43.8688 7.22897 43.8869 7.21545 43.9019C7.20193 43.917 7.18505 43.9286 7.16623 43.9359C7.14459 43.8624 7.16626 43.7716 7.08838 43.7716C7.01915 43.6981 6.87638 43.7715 6.77687 43.8191C6.82879 43.8191 6.81148 43.8752 6.77687 43.8969C6.74226 43.9185 6.70765 43.8234 6.67304 43.8493V43.7543C6.67304 43.8451 6.54753 43.8408 6.52589 43.8798C6.50426 43.8062 6.60376 43.8235 6.61674 43.7716H6.33988C6.23171 43.8365 6.33983 43.8624 6.29657 43.9446C6.20571 43.9446 6.11489 44.0138 6.01971 43.9446L6.04569 44.031C5.98552 44.0614 5.91728 44.0726 5.85059 44.0625C5.78391 44.0524 5.72204 44.0217 5.67356 43.9748C4.37556 44.5675 5.34473 44.8962 5.34473 44.8962C5.83796 45.0433 6.10626 44.8184 6.68603 44.7967Z" fill="#084242"/>
<path d="M9.64502 56.5378H9.69699C9.69699 56.5378 9.67963 56.5335 9.64502 56.5378Z" fill="#084242"/>
<path d="M9.55878 57.7404C10.1039 57.576 10.3073 57.6714 10.8308 57.3988C11.098 57.2947 11.3594 57.1761 11.6139 57.044C11.6875 56.8796 11.9471 56.9099 12.0466 56.7541L12.1288 56.8017C12.1677 56.7498 12.2154 56.7022 12.2803 56.7195V56.7413C12.3365 56.6591 12.4317 56.659 12.4576 56.6158V56.6373L12.5442 56.594V56.6287C12.6445 56.5331 12.771 56.4699 12.9076 56.447L12.8687 56.3691C13.1543 56.3691 13.1802 56.1571 13.4484 56.1787V56.2005C13.6518 55.8717 13.9589 56.1702 14.1709 55.8501C14.145 55.889 14.2056 55.8846 14.2099 55.9062C14.3354 55.8327 14.4782 55.7635 14.4176 55.5991C14.5171 55.5645 14.5171 55.5992 14.5517 55.6771C14.5258 55.6078 14.5994 55.5429 14.6772 55.5083L14.6513 55.5516L14.8633 55.439L14.7681 55.3222C14.8979 55.3222 14.8589 55.4736 14.9584 55.3957L14.9152 55.2875C15.0883 55.2486 15.2484 55.3784 15.4344 55.3957C16.1094 55.188 16.6978 54.6344 17.3814 54.5911L17.4419 54.6646C17.5025 54.7814 17.5415 54.418 17.6064 54.5218L17.6539 54.4396C17.6842 54.4396 17.7362 54.4613 17.7102 54.5003C17.7795 54.4786 17.7708 54.4569 17.8054 54.405L17.9049 54.4527C18.1861 54.4095 18.3375 54.1802 18.6317 54.1023C19.0168 54.1282 19.575 53.7475 19.8952 53.5269C20.3279 53.1548 21.0894 53.4101 21.5177 53.0034C21.5393 53.0034 21.5696 52.9602 21.5609 52.9473L22.0325 52.7827C22.0325 52.7827 24.3083 51.9479 22.2056 51.6148V51.5715C21.9243 51.6061 21.7729 51.6537 21.6344 51.8571C21.5436 51.7056 21.4181 51.922 21.3402 51.8917C21.2321 52.0777 20.9769 51.9132 20.873 52.0863C20.873 52.0863 20.873 52.0213 20.873 52.0083C20.7692 52.0689 20.635 52.1642 20.5874 52.0734C20.3365 52.1988 19.9557 52.2983 19.8476 52.506V52.4756C19.7913 52.614 19.7264 52.5363 19.6442 52.6315C19.5793 52.7699 19.3456 52.7656 19.2807 52.8391L19.2505 52.7785L19.0471 52.8735H19.1294C19.1726 53.0552 18.9303 52.826 18.8264 52.999C18.675 53.0293 18.6793 53.4662 18.5019 53.4316C18.463 53.5398 18.502 53.276 18.4327 53.3799C18.3938 53.289 18.4587 53.3019 18.4068 53.2413C18.3202 53.3235 18.2034 53.2153 18.0996 53.3235L18.0693 53.2544C17.9524 53.4491 17.7232 53.2845 17.6626 53.4489C17.5155 53.5744 17.4679 53.2846 17.3424 53.4922L17.2386 53.423C17.1564 53.423 17.2386 53.5614 17.1261 53.5484C17.1261 53.4835 17.005 53.5485 17.0309 53.4663C16.8059 53.4446 16.6978 53.7476 16.3862 53.687C16.3862 53.8254 16.2262 53.8037 16.2219 53.9075C16.1916 53.8599 15.9666 53.9985 16.0617 53.8298C16.0635 53.8261 16.0663 53.8229 16.0698 53.8207C16.0732 53.8186 16.0771 53.8175 16.0812 53.8175C16.0852 53.8175 16.0893 53.8186 16.0927 53.8207C16.0961 53.8229 16.099 53.8261 16.1007 53.8298V53.7561C15.906 53.6825 15.867 53.9291 15.7199 53.9637C15.7718 53.9637 15.8237 53.9639 15.8064 54.0028L15.6724 54.0461V53.9768L15.4647 54.0201L15.5166 54.0805C15.4084 54.0805 15.3262 53.9724 15.2613 54.1152C15.1964 54.2579 15.3868 54.1758 15.2959 54.2406C15.116 54.2345 14.936 54.2491 14.7594 54.284C14.807 54.3575 14.7594 54.3704 14.7248 54.405L14.6902 54.3359C14.5561 54.5003 14.5647 54.2061 14.4263 54.3359V54.2795V54.4441C14.3267 54.6431 14.2835 54.3316 14.1883 54.5869C14.2532 54.5479 14.2791 54.7296 14.1883 54.7339V54.6559C14.1493 54.6862 14.145 54.7208 14.1061 54.7208C14.0672 54.7208 14.0845 54.617 14.0196 54.6559V54.5522L13.9374 54.7252C13.8119 54.6906 13.6908 54.8463 13.6129 54.7641C13.6129 54.7641 13.3792 54.8031 13.3706 54.9242C13.3706 54.842 13.2624 54.8637 13.2667 54.7772C13.2408 54.8724 13.1023 54.9934 13.0028 54.9415C12.7302 54.9415 12.635 55.2098 12.3798 55.2011C12.423 55.279 12.2889 55.2789 12.3581 55.3697C12.1764 55.5601 11.8649 55.3179 11.9254 55.6726C11.8303 55.7289 11.774 55.6423 11.7134 55.6466V55.6207C11.5954 55.6932 11.469 55.7513 11.3371 55.7937C11.2765 55.8542 11.337 56.0058 11.1813 56.0231C11.1813 55.9452 11.151 55.9754 11.1034 55.9971C11.1337 55.9971 11.1337 55.9495 11.0558 55.9322C11.0521 55.9508 11.0447 55.9685 11.0341 55.9842C10.9606 56.0361 10.9822 56.0489 11.0341 56.0446C11.0398 56.0569 11.0488 56.0675 11.0601 56.075C10.9519 56.0318 10.8352 56.1702 10.7833 56.075C10.5953 56.2001 10.4147 56.3358 10.2424 56.4817C10.1992 56.4384 10.2424 56.3735 10.277 56.3302L10.1429 56.4037C10.117 56.3302 10.2078 56.3303 10.2468 56.3C10.0304 56.2394 9.94822 56.5551 9.71026 56.5205V56.594C9.71359 56.6145 9.71177 56.6357 9.70497 56.6553C9.69818 56.6749 9.68657 56.6926 9.67128 56.7066C9.61503 56.6547 9.61509 56.5552 9.51558 56.5985C9.41606 56.5639 9.31215 56.7152 9.22562 56.7888C9.28187 56.7888 9.27758 56.8234 9.2646 56.8536C9.25162 56.8839 9.16507 56.819 9.13911 56.8536L9.0958 56.767C9.14772 56.8449 9.00495 56.9099 9.00063 56.9531C8.94871 56.8969 9.05692 56.8666 9.04827 56.8103L8.75841 56.9358C8.68053 57.044 8.81026 57.0137 8.79296 57.1132C8.70642 57.1652 8.64157 57.2604 8.5161 57.2474L8.58095 57.3165C8.53014 57.3699 8.46653 57.4096 8.3961 57.4316C8.32567 57.4535 8.25081 57.4571 8.1786 57.4419C7.14021 58.584 8.24779 58.424 8.24779 58.424C8.81458 58.3721 8.98334 58.0605 9.55878 57.7404Z" fill="#084242"/>
<path d="M26.9214 69.4296L26.9733 69.4038C26.9733 69.4038 26.943 69.4036 26.9214 69.4296Z" fill="#084242"/>
<path d="M27.644 70.429C27.9642 69.8839 28.1849 69.8061 28.4142 69.1918C28.5656 68.9192 28.678 68.6034 28.7992 68.3266C28.7473 68.1405 28.9723 67.9676 28.955 67.7642L29.0458 67.7383C29.0388 67.7056 29.0412 67.6716 29.0527 67.6403C29.0642 67.6089 29.0843 67.5813 29.1107 67.5608C29.1107 67.457 29.1756 67.3836 29.167 67.3316L29.2102 67.2321V67.2624C29.2242 67.105 29.2828 66.955 29.379 66.8297L29.2925 66.7995C29.5131 66.5789 29.4007 66.3971 29.6256 66.211C29.5694 65.8001 30.0063 65.7786 29.963 65.3849C29.963 65.4368 30.0107 65.3849 30.028 65.3849C30.0799 65.2291 30.1448 65.069 29.989 64.9911C30.0453 64.8873 30.0799 64.9263 30.1492 64.9436C30.0799 64.909 30.0972 64.8051 30.1492 64.7229V64.7704L30.2443 64.5239H30.0929C30.1924 64.4201 30.2659 64.5716 30.2919 64.4375L30.188 64.3855C30.2919 64.2211 30.5039 64.1995 30.664 64.0697C31.0534 63.3992 31.1573 62.5166 31.6635 61.9629H31.7587C31.8798 62.0105 31.6722 61.699 31.7933 61.7292V61.6298C31.8279 61.6298 31.8712 61.5822 31.8798 61.6298C31.9188 61.5605 31.9014 61.552 31.8798 61.4827L31.988 61.4437C32.1827 61.1971 32.1567 60.8943 32.3298 60.6217C32.65 60.3449 32.8403 59.6268 32.9485 59.2115C33.035 58.5929 33.8138 58.2077 33.8743 57.5675C33.9003 57.5675 33.8743 57.4941 33.8743 57.4897L34.1383 57.0007C34.1383 57.0007 35.3758 54.6172 33.5066 55.9669V55.941C33.4162 56.0236 33.3458 56.1257 33.3008 56.2397C33.2558 56.3536 33.2373 56.4764 33.247 56.5985C33.0783 56.551 33.1215 56.8149 33.0393 56.8495C33.0783 57.0744 32.771 57.1392 32.797 57.3512C32.797 57.3512 32.7452 57.3166 32.7625 57.2777C32.7235 57.4031 32.6802 57.5804 32.585 57.5415C32.4725 57.8313 32.2389 58.1991 32.2952 58.45V58.424C32.3427 58.5755 32.2475 58.5625 32.2389 58.701H32.2086C32.2519 58.861 32.0658 59.0341 32.0615 59.1336L31.9966 59.1076L31.9015 59.337L31.9577 59.2591C32.1091 59.3715 31.7717 59.3758 31.7976 59.5877C31.7024 59.7262 31.9923 60.0638 31.8365 60.1762C31.8754 60.2887 31.7413 60.0508 31.7457 60.1762C31.6591 60.1373 31.7197 60.0984 31.6332 60.0941C31.6332 60.2195 31.4558 60.228 31.4515 60.3881L31.3779 60.3621C31.4168 60.5957 31.1269 60.6477 31.1875 60.8207C31.1529 61.0284 30.9279 60.8423 30.9668 61.0932L30.837 61.1236C30.7851 61.1972 30.9236 61.2362 30.837 61.3011C30.7851 61.2708 30.7376 61.3919 30.7073 61.3011C30.5169 61.4568 30.6337 61.7725 30.3482 61.9629C30.4304 62.0754 30.3006 62.1748 30.3482 62.2613C30.2962 62.2613 30.2098 62.5253 30.1751 62.322C30.1751 62.322 30.1751 62.2829 30.2053 62.2916L30.1492 62.244C29.9458 62.3305 30.0799 62.5512 29.989 62.6766C30.0323 62.642 30.0539 62.5814 30.0799 62.642L30.002 62.7761L29.963 62.7199L29.8247 62.9103H29.9068C29.8246 62.9968 29.6862 62.9708 29.7295 63.1352C29.7598 63.2131 29.8723 63.0877 29.8376 63.2045C29.694 63.3369 29.5622 63.4817 29.4439 63.6371C29.5304 63.6588 29.5045 63.7064 29.5002 63.7626L29.4265 63.7322C29.4265 63.9615 29.2448 63.7323 29.2319 63.9443L29.1887 63.9052L29.3098 64.0264C29.3617 64.2557 29.1237 64.0264 29.2145 64.3162C29.2405 64.2384 29.3834 64.3552 29.3098 64.4331L29.2535 64.3769C29.2535 64.4331 29.2535 64.4633 29.2319 64.4893C29.2319 64.4417 29.1453 64.4244 29.1194 64.4893L29.0632 64.4029L29.115 64.5974C28.9939 64.6709 28.9982 64.8786 28.8857 64.8786C28.8857 64.8786 28.7256 65.0821 28.8035 65.1859C28.7603 65.108 28.6738 65.2205 28.6218 65.1513C28.6608 65.2421 28.6218 65.4453 28.5223 65.4799C28.3147 65.6963 28.4098 65.9688 28.2022 66.1548C28.2844 66.1851 28.1805 66.2846 28.2973 66.3019C28.2757 66.5917 27.8646 66.6393 28.1415 66.8773C28.1069 66.9941 28.0074 66.9725 27.9642 67.0201V66.9854C27.9176 67.1358 27.8553 67.2808 27.7782 67.418C27.7782 67.5089 27.9079 67.591 27.8084 67.7078C27.7738 67.6386 27.7565 67.708 27.7305 67.7469C27.7305 67.7123 27.7305 67.6907 27.6483 67.7469C27.6535 67.7653 27.6535 67.7847 27.6483 67.8031C27.6267 67.8983 27.6484 67.8897 27.683 67.8551C27.7176 67.8205 27.6829 67.8551 27.7219 67.8551C27.605 67.907 27.605 68.1017 27.5055 68.0627C27.4372 68.3029 27.3838 68.5471 27.3455 68.7938C27.2806 68.7938 27.2632 68.7203 27.2719 68.6468L27.2157 68.8067C27.1464 68.7678 27.2157 68.6987 27.2157 68.6468C27.008 68.7679 27.1464 69.0792 26.9387 69.2306L26.9734 69.2999C27.0036 69.2999 27.021 69.3821 27.0167 69.4167C26.9388 69.4167 26.8738 69.3431 26.8262 69.4469C26.7786 69.5508 26.7397 69.698 26.7224 69.8191C26.7613 69.7672 26.7873 69.8191 26.796 69.8407C26.8047 69.8623 26.6965 69.8927 26.7008 69.9446L26.6142 69.91C26.7051 69.91 26.6143 70.0872 26.6575 70.1218C26.5796 70.1218 26.6576 70.0137 26.6013 69.9791L26.4585 70.2949C26.4585 70.4376 26.5494 70.295 26.6013 70.4074C26.5667 70.5113 26.5797 70.6367 26.4715 70.7232H26.5667C26.5642 70.8044 26.5416 70.8837 26.5008 70.9539C26.46 71.0241 26.4023 71.0833 26.333 71.1256C26.2724 72.8042 27.034 71.835 27.034 71.835C27.4667 71.4716 27.3844 71.0995 27.644 70.429Z" fill="#084242"/>
<path d="M45.5605 57.7924V57.8401C45.5605 57.8401 45.5649 57.8226 45.5605 57.7924Z" fill="#084242"/>
<path d="M44.3796 57.5286C44.4705 58.104 44.3451 58.29 44.5484 58.8611C44.6148 59.1452 44.6971 59.4254 44.795 59.7003C44.9507 59.7998 44.8815 60.0594 45.02 60.1849L44.9638 60.2626C45.0114 60.3059 45.0503 60.3622 45.0243 60.4227H45.0026C45.0762 60.4876 45.0676 60.5829 45.1023 60.6175L45.1325 60.7125H45.1023C45.1824 60.8286 45.2274 60.9653 45.232 61.1063L45.3143 61.0761C45.2796 61.3659 45.483 61.4221 45.4268 61.6904H45.4051C45.7036 61.9413 45.3661 62.2095 45.6516 62.4734C45.617 62.4388 45.6127 62.4993 45.5911 62.5036C45.6517 62.642 45.6992 62.7935 45.868 62.7546C45.868 62.8584 45.8334 62.8541 45.7728 62.88C45.8464 62.88 45.8983 62.9492 45.9243 63.0271L45.8853 62.9968L45.9676 63.226L46.093 63.1481C46.093 63.2822 45.9329 63.2217 45.9935 63.3342L46.1103 63.304C46.1103 63.4814 45.9762 63.6241 45.9329 63.8101C46.0498 64.5196 46.517 65.1988 46.4694 65.891L46.3873 65.943C46.2661 65.9819 46.6166 66.0769 46.5084 66.1288L46.5819 66.1895C46.5819 66.2154 46.5516 66.2673 46.5126 66.237C46.5126 66.3062 46.5473 66.3019 46.5949 66.3451L46.5343 66.436C46.5343 66.7258 46.7463 66.9248 46.7853 67.219C46.7074 67.604 47.0102 68.2226 47.1833 68.5817C47.4991 69.0662 47.14 69.7974 47.4861 70.2906C47.4861 70.3122 47.5208 70.3469 47.5338 70.3426L47.6333 70.8443C47.6333 70.8443 48.1569 73.2582 48.7712 71.186H48.8015C48.8216 71.0744 48.8132 70.9597 48.7768 70.8523C48.7405 70.7448 48.6775 70.6482 48.5938 70.5718C48.7582 70.5025 48.5592 70.3426 48.5938 70.2691C48.425 70.1349 48.6197 69.9055 48.4683 69.7714C48.4683 69.7714 48.5289 69.7715 48.5419 69.8018C48.49 69.6937 48.4164 69.5422 48.5116 69.5076C48.4207 69.2393 48.3731 68.8413 48.1741 68.6985H48.2044C48.0746 68.625 48.1568 68.5731 48.0789 68.4736C48.0789 68.4736 48.079 68.452 48.1006 68.452C47.9665 68.3698 48.0054 68.1361 47.9405 68.0583L48.0054 68.0367L47.9361 67.8204V67.9026C47.7458 67.9026 48.0097 67.7122 47.8539 67.5781C47.8539 67.4224 47.4213 67.3662 47.4603 67.1888C47.3564 67.1369 47.6116 67.2234 47.5208 67.1282C47.6116 67.1022 47.59 67.1628 47.6593 67.1282C47.59 67.0287 47.7155 66.925 47.6203 66.8082L47.6896 66.7822C47.5165 66.6394 47.7112 66.4318 47.5554 66.3496C47.4516 66.1852 47.7415 66.1765 47.5554 66.0251L47.6376 65.9299C47.6376 65.8433 47.5035 65.8997 47.5294 65.8002C47.5943 65.8002 47.5511 65.6746 47.6246 65.7135C47.6722 65.4886 47.3866 65.3373 47.4905 65.0344C47.3563 65.0041 47.3953 64.8526 47.2958 64.831C47.3477 64.831 47.2395 64.5629 47.391 64.684C47.391 64.684 47.391 64.7185 47.391 64.7229H47.4646C47.5684 64.5412 47.3261 64.4677 47.3131 64.312C47.3131 64.3596 47.3132 64.42 47.2612 64.3897L47.2353 64.2514H47.3045V64.0351L47.2353 64.0826C47.2353 63.9701 47.3694 63.9052 47.2353 63.8143C47.1011 63.7235 47.1574 63.9355 47.1098 63.8143C47.1386 63.6327 47.1473 63.4484 47.1358 63.2649C47.0579 63.3038 47.0492 63.2651 47.0189 63.2132L47.0925 63.1872C46.9453 63.0271 47.2396 63.0833 47.1141 62.9189H47.1703H47.0059C46.8199 62.7891 47.1357 62.7977 46.8934 62.6593C46.9237 62.7285 46.7376 62.7329 46.7506 62.6377H46.8286C46.7983 62.5902 46.768 62.5815 46.7723 62.5469C46.7766 62.5123 46.8804 62.5468 46.8501 62.469L46.9496 62.4949L46.7896 62.391C46.8415 62.2656 46.7031 62.1229 46.7896 62.0537C46.7896 62.0537 46.7896 61.8158 46.6641 61.7898C46.742 61.8201 46.7377 61.6859 46.8286 61.7032C46.7377 61.6643 46.6295 61.5043 46.6988 61.4134C46.7247 61.1366 46.4824 61.0024 46.53 60.7472C46.4478 60.7775 46.4651 60.6434 46.3613 60.6997C46.1969 60.4877 46.4824 60.2107 46.1233 60.2064C46.08 60.0983 46.1709 60.0593 46.1753 59.9988H46.2011C46.1428 59.8677 46.102 59.7295 46.08 59.5877C46.0281 59.5228 45.868 59.5446 45.8766 59.4018C45.9459 59.4321 45.9243 59.4019 45.9113 59.3283C45.9113 59.3586 45.9545 59.3629 45.9805 59.285C45.9616 59.2799 45.944 59.271 45.9286 59.259C45.8853 59.1768 45.868 59.1985 45.8723 59.2375C45.8766 59.2764 45.8724 59.2374 45.8334 59.259C45.894 59.1552 45.7728 59.0167 45.8766 58.9821C45.7778 58.7745 45.6681 58.5724 45.5478 58.3765C45.5954 58.3419 45.656 58.3764 45.6906 58.4327L45.6344 58.2899C45.7166 58.2899 45.7036 58.3634 45.7296 58.4067C45.8118 58.199 45.5132 58.0694 45.5825 57.8315L45.5089 57.8055C45.4876 57.8061 45.4665 57.8012 45.4476 57.7914C45.4286 57.7815 45.4125 57.7669 45.4008 57.7491C45.4613 57.7059 45.5609 57.7146 45.5306 57.6108C45.5782 57.5156 45.444 57.3858 45.3791 57.2863C45.3791 57.3469 45.3402 57.3382 45.3099 57.3209C45.2796 57.3036 45.3575 57.2215 45.3099 57.1912L45.4008 57.1608C45.3186 57.2041 45.2752 57.0484 45.232 57.0398C45.2925 56.9922 45.3099 57.1046 45.3661 57.1046C45.3055 56.9013 45.3359 57.0052 45.2796 56.7975C45.1801 56.7023 45.1931 56.8408 45.1023 56.7975C45.0114 56.7542 44.9724 56.6245 45.0026 56.499L44.9291 56.5508C44.8801 56.4914 44.8479 56.42 44.8357 56.344C44.8236 56.2679 44.8319 56.1899 44.8599 56.1182C43.8605 54.9069 43.8735 56.0491 43.8735 56.0491C43.8605 56.6807 44.1633 56.9013 44.3796 57.5286Z" fill="#084242"/>
<path d="M57.9653 50.8273V50.8792C57.9717 50.8721 57.9752 50.8628 57.9752 50.8533C57.9752 50.8437 57.9717 50.8344 57.9653 50.8273Z" fill="#084242"/>
<path d="M56.8141 51.1128C57.0824 51.5454 57.0305 51.7487 57.3983 52.1251C57.5459 52.3321 57.7093 52.5274 57.8871 52.7091C58.0602 52.7091 58.0775 52.9645 58.2463 53.0121L58.2203 53.0985C58.2765 53.0985 58.3328 53.1417 58.3284 53.2066C58.415 53.2282 58.4323 53.3148 58.4756 53.3234L58.5361 53.384H58.5016C58.6121 53.4425 58.6991 53.5373 58.7481 53.6523L58.8131 53.5917C58.8736 53.8426 59.0726 53.8038 59.1073 54.0461C59.4577 54.1283 59.2371 54.4786 59.5832 54.5824C59.54 54.5824 59.5529 54.6213 59.5356 54.6299C59.6351 54.7208 59.726 54.8202 59.8644 54.7207C59.9207 54.7986 59.8644 54.8159 59.8211 54.8635C59.8817 54.8203 59.9553 54.8637 60.0029 54.9199H59.9596L60.1067 55.0756L60.1976 54.9544C60.2322 55.0712 60.0764 55.0842 60.1673 55.1491L60.2581 55.0756C60.336 55.2141 60.2581 55.3957 60.2581 55.5644C60.5913 56.0965 61.2317 56.4513 61.4091 57.0397L61.3528 57.1132C61.2576 57.1997 61.6038 57.1131 61.5216 57.2169H61.6081C61.6081 57.2472 61.608 57.2948 61.5604 57.2862C61.595 57.3381 61.6124 57.3252 61.6729 57.3382L61.647 57.4419C61.7422 57.6755 61.9931 57.749 62.1229 57.974C62.1748 58.3244 62.6465 58.7008 62.9191 58.9171C63.3517 59.181 63.2695 59.9338 63.7367 60.189C63.7367 60.215 63.7887 60.2194 63.8017 60.2108L64.0526 60.5783C64.0526 60.5783 65.2987 62.3347 65.1862 60.3793H65.2122C65.1257 60.1457 65.0434 60.0116 64.8314 59.9467C64.9525 59.8213 64.7232 59.778 64.7362 59.6958C64.5415 59.6568 64.6454 59.3844 64.4637 59.3411C64.4637 59.3411 64.5199 59.3151 64.5415 59.3411C64.4593 59.2719 64.3425 59.181 64.4204 59.1161C64.2516 58.9301 64.0829 58.623 63.8579 58.5927H63.8882C63.7454 58.5927 63.8017 58.5106 63.6979 58.463C63.6979 58.463 63.6979 58.4413 63.6979 58.437C63.5508 58.437 63.5118 58.2163 63.4296 58.1774L63.4772 58.1341L63.3474 57.9871L63.382 58.0519C63.2176 58.1428 63.382 57.866 63.2046 57.8227C63.144 57.7016 62.733 57.8227 62.7244 57.6713C62.6119 57.6713 62.8714 57.6323 62.7589 57.5933C62.8325 57.5328 62.8325 57.5934 62.8801 57.5285C62.7849 57.4766 62.88 57.3425 62.7416 57.282L62.7979 57.2342C62.5945 57.191 62.7027 56.9401 62.5339 56.9358C62.3868 56.8406 62.6507 56.7151 62.4301 56.6675L62.4734 56.5551C62.4431 56.4859 62.3436 56.5853 62.3349 56.4945C62.3912 56.4599 62.335 56.3821 62.3912 56.3821C62.3653 56.1788 62.0581 56.1745 62.0537 55.8846C61.9239 55.9149 61.9109 55.7763 61.8114 55.8023C61.8547 55.7633 61.6773 55.6034 61.8504 55.6424C61.8504 55.6424 61.8763 55.6639 61.8504 55.6726L61.9196 55.6424C61.9499 55.452 61.7119 55.4908 61.647 55.3697C61.647 55.4172 61.6903 55.4563 61.647 55.4563L61.5778 55.3525H61.6427L61.5648 55.1838L61.5172 55.2486C61.5172 55.1534 61.5821 55.0496 61.4307 55.0323C61.3528 55.0323 61.4004 55.1622 61.3225 55.1016C61.2921 54.9434 61.2426 54.7894 61.1754 54.643C61.1105 54.7036 61.0889 54.669 61.0499 54.643L61.1062 54.591C60.9245 54.5218 61.2057 54.4439 61.0413 54.3661L61.0932 54.3445L60.9374 54.4049C60.7297 54.3747 61.0153 54.245 60.7557 54.2364C60.8033 54.284 60.6389 54.3617 60.6216 54.2795L60.6908 54.2493C60.6518 54.2233 60.6172 54.2492 60.6129 54.1973C60.6086 54.1454 60.7038 54.1455 60.6562 54.1022L60.7557 54.0805H60.5739C60.5739 53.9594 60.4139 53.8989 60.4744 53.8038C60.4744 53.8038 60.3923 53.6134 60.2754 53.6437C60.3533 53.6437 60.3101 53.5269 60.3923 53.5053C60.2971 53.5053 60.1543 53.4229 60.1846 53.3234C60.1197 53.0855 59.8557 53.077 59.8168 52.8477C59.7519 52.9083 59.726 52.7913 59.6524 52.8821C59.4361 52.774 59.6004 52.4496 59.276 52.575C59.2067 52.5101 59.276 52.4366 59.276 52.3847H59.3063C59.2114 52.3024 59.1297 52.2063 59.0639 52.0993C58.9947 52.069 58.8607 52.1554 58.8217 52.0342C58.8953 52.0342 58.8564 51.9953 58.8217 51.9607C58.7871 51.9261 58.8693 51.9608 58.8693 51.8959C58.8506 51.8981 58.8318 51.8981 58.8131 51.8959C58.7482 51.8483 58.7438 51.8699 58.7568 51.8959C58.7442 51.9038 58.735 51.9162 58.7309 51.9305C58.7309 51.8181 58.5967 51.7573 58.6789 51.6838C58.5225 51.5549 58.3577 51.4365 58.1857 51.3291C58.2203 51.2772 58.2852 51.2859 58.3371 51.3291L58.2419 51.2341C58.3068 51.1865 58.3241 51.2686 58.3631 51.2903C58.3631 51.0826 58.0602 51.1043 58.0429 50.8836H57.9694C57.9522 50.8931 57.9328 50.898 57.9131 50.898C57.8934 50.898 57.8741 50.8931 57.8569 50.8836C57.8958 50.8231 57.991 50.7883 57.9304 50.7191C57.9304 50.6196 57.779 50.5721 57.6924 50.5159C57.6924 50.5678 57.6709 50.5764 57.6362 50.5721C57.6016 50.5677 57.6362 50.4726 57.6016 50.4639L57.6751 50.4033C57.6145 50.4725 57.528 50.3644 57.4848 50.3731C57.5237 50.3082 57.5757 50.3947 57.6276 50.3731L57.4501 50.1568C57.3333 50.1178 57.3853 50.2261 57.2901 50.2347C57.2252 50.1785 57.1214 50.1481 57.1041 50.0313L57.0564 50.1093C56.9952 50.083 56.9433 50.0387 56.9077 49.9823C56.8722 49.9259 56.8547 49.8601 56.8574 49.7935C55.5594 49.2224 55.9488 50.1481 55.9488 50.1481C56.0743 50.637 56.4074 50.7062 56.8141 51.1128Z" fill="#084242"/>
<path d="M61.686 38.5065V38.5585C61.686 38.5585 61.7033 38.5282 61.686 38.5065Z" fill="#084242"/>
<path d="M60.6692 39.1166C61.05 39.4497 61.0629 39.6617 61.5345 39.9169C61.7379 40.0669 61.9503 40.204 62.1706 40.3278C62.3393 40.2932 62.4258 40.514 62.6032 40.5097V40.6005C62.6638 40.6005 62.7243 40.6003 62.7373 40.6696C62.8238 40.6696 62.8715 40.7432 62.9147 40.7389L62.9926 40.7822H62.9623C63.0839 40.8077 63.1936 40.8733 63.2739 40.9683L63.3171 40.8903C63.4512 41.1109 63.6286 41.0157 63.7497 41.2363C64.1088 41.2104 64.005 41.6171 64.3598 41.6041C64.3165 41.6041 64.3598 41.6474 64.3295 41.6647C64.4464 41.7209 64.5675 41.7902 64.6714 41.6647C64.7449 41.7253 64.7017 41.7556 64.6714 41.8162C64.7146 41.7556 64.8011 41.7772 64.8617 41.8162H64.8184L65.0002 41.9199L65.0521 41.7815C65.117 41.881 64.9699 41.9372 65.078 41.9718L65.1472 41.8766C65.2554 41.9847 65.2252 42.1838 65.2944 42.3438C65.7617 42.7505 66.4756 42.9019 66.8174 43.408L66.787 43.4946C66.7178 43.6071 67.0293 43.4341 66.9731 43.5466H67.0639C67.0639 43.5769 67.064 43.6201 67.038 43.6201C67.0856 43.6634 67.0986 43.646 67.1592 43.6417V43.7456C67.3193 43.9403 67.5918 43.9402 67.7692 44.1176C67.9206 44.4334 68.4787 44.6539 68.7989 44.7794C69.2965 44.9048 69.4307 45.6446 69.9499 45.7527C69.9499 45.7744 70.0104 45.7527 70.019 45.7527L70.3652 46.0297C70.3652 46.0297 72.0613 47.3275 71.3863 45.5062H71.4122C71.2564 45.3072 71.144 45.2078 70.9233 45.2251C71.0056 45.065 70.7762 45.0909 70.7632 45.013C70.5642 45.0346 70.5859 44.7448 70.3998 44.7578C70.3998 44.7578 70.4431 44.7103 70.469 44.7276C70.3738 44.6844 70.2354 44.6323 70.2917 44.5457C70.0753 44.4203 69.8244 44.1781 69.5994 44.2171H69.6254C69.4869 44.2517 69.5215 44.1608 69.409 44.1478C69.409 44.1478 69.409 44.1219 69.409 44.1176C69.2662 44.1479 69.1667 43.9619 69.0759 43.9532L69.1148 43.8968L68.946 43.7931L68.998 43.8451C68.8639 43.9835 68.9461 43.6633 68.76 43.6763C68.6648 43.5811 68.3273 43.8277 68.2581 43.6763C68.1542 43.7066 68.3879 43.594 68.2581 43.5897C68.3143 43.5118 68.3317 43.5681 68.3577 43.4902C68.2538 43.4902 68.2884 43.3172 68.1542 43.2999L68.1932 43.235C67.9899 43.2567 68.0158 42.9841 67.8557 43.0274C67.6913 42.9841 67.9033 42.7851 67.6784 42.8024V42.6856C67.6308 42.6294 67.5658 42.7548 67.5312 42.6856C67.5702 42.638 67.4793 42.5862 67.5312 42.5646C67.4447 42.3742 67.1548 42.4606 67.0639 42.1837C66.9471 42.2572 66.8952 42.1275 66.8087 42.1837C66.8347 42.1361 66.6227 42.0367 66.8087 42.0194C66.8087 42.0194 66.839 42.0195 66.8087 42.0498L66.8649 41.9978C66.8389 41.8031 66.6226 41.9156 66.5274 41.8204C66.5274 41.8636 66.5923 41.8854 66.5274 41.907L66.4322 41.8248L66.4929 41.7902L66.363 41.6516V41.7295C66.3111 41.643 66.363 41.5219 66.2159 41.5479C66.1423 41.5695 66.2159 41.682 66.1337 41.6474C66.0589 41.5034 65.9659 41.3696 65.8569 41.2494C65.8179 41.3316 65.7876 41.3014 65.74 41.2927L65.7832 41.2277C65.5885 41.2277 65.8309 41.0589 65.6535 41.0287L65.6967 40.9985L65.5669 41.098C65.3592 41.1326 65.5972 40.9248 65.3419 40.994C65.4025 41.02 65.2684 41.1455 65.2251 41.072L65.2857 41.0244C65.2424 41.0244 65.2122 41.0244 65.1949 40.9985C65.2425 40.9985 65.2684 40.9205 65.1949 40.8945L65.2814 40.847L65.104 40.8816C65.0737 40.7605 64.8963 40.7518 64.9266 40.648C64.9266 40.648 64.7924 40.4879 64.6886 40.5528C64.7621 40.5181 64.6887 40.4318 64.7622 40.3842C64.6757 40.4145 64.5112 40.3841 64.5112 40.2716C64.3771 40.0683 64.1219 40.1331 64.018 39.9298C63.9748 40.0034 63.9185 39.9039 63.8709 40.0078C63.6329 39.9732 63.6935 39.5967 63.4382 39.8303C63.3517 39.7871 63.395 39.6964 63.3647 39.6531H63.3949C63.2835 39.5994 63.179 39.5326 63.0834 39.4541C63.0099 39.4541 62.9061 39.5623 62.8325 39.4541C62.9018 39.4282 62.8542 39.4064 62.8325 39.3804C62.8109 39.3544 62.8801 39.3804 62.8584 39.3069C62.8416 39.3128 62.8234 39.3128 62.8066 39.3069C62.733 39.2809 62.733 39.3069 62.7546 39.3329C62.7518 39.339 62.7505 39.3456 62.7505 39.3523C62.7505 39.359 62.7518 39.3656 62.7546 39.3717C62.7546 39.2593 62.5772 39.2463 62.6334 39.1554C62.4489 39.0746 62.2579 39.0096 62.0624 38.9609C62.073 38.9347 62.0933 38.9137 62.1192 38.9024C62.1451 38.8911 62.1743 38.8903 62.2008 38.9003L62.0797 38.8396C62.1273 38.7747 62.1705 38.8396 62.2138 38.8396C62.1618 38.6406 61.8719 38.7532 61.7811 38.5456L61.7119 38.5758C61.6977 38.5894 61.6806 38.5996 61.6618 38.6056C61.6431 38.6116 61.6232 38.6132 61.6037 38.6104C61.6037 38.5369 61.6989 38.4807 61.6037 38.4288C61.5085 38.3769 61.4177 38.3335 61.3182 38.3075C61.3528 38.3465 61.3182 38.3682 61.2836 38.3768C61.249 38.3855 61.2836 38.2772 61.2187 38.2815L61.2706 38.1994C61.2316 38.2859 61.1192 38.1995 61.0802 38.2298C61.0802 38.1562 61.1754 38.2297 61.2144 38.1865L60.9851 38.035C60.8596 38.035 60.9461 38.1173 60.8552 38.1563C60.7774 38.1217 60.6692 38.1215 60.6216 38.0177L60.5956 38.1043C60.5296 38.0975 60.4673 38.0705 60.417 38.0272C60.3667 37.9839 60.3309 37.9263 60.3144 37.862C58.9212 37.6933 59.5486 38.4676 59.5486 38.4676C59.8255 38.8873 60.1717 38.8354 60.6692 39.1166Z" fill="#084242"/>
<path d="M62.2358 30.0144L62.2748 30.0577C62.2748 30.0577 62.2661 30.0231 62.2358 30.0144Z" fill="#084242"/>
<path d="M61.5522 31.0225C62.1319 31.1436 62.2661 31.3296 62.8805 31.3469C63.1758 31.3913 63.4734 31.4187 63.7718 31.4291C63.9232 31.3209 64.1439 31.4766 64.3169 31.3945L64.3688 31.4724C64.3949 31.4544 64.4258 31.4447 64.4575 31.4447C64.4892 31.4447 64.5202 31.4544 64.5463 31.4724V31.4939C64.6371 31.4507 64.7237 31.494 64.7669 31.4724V31.4939H64.8664L64.8448 31.5199C64.9885 31.487 65.1387 31.496 65.2775 31.5459V31.4551C65.5414 31.5935 65.6668 31.4247 65.9005 31.5761V31.5979C66.2466 31.4119 66.3765 31.8229 66.7313 31.6498C66.688 31.6715 66.7313 31.6973 66.7313 31.7189C66.8827 31.7189 67.047 31.719 67.073 31.5546C67.1811 31.5546 67.1509 31.6195 67.1596 31.6887C67.1596 31.6152 67.2677 31.5934 67.3543 31.6021L67.311 31.6239H67.5576L67.5316 31.4724C67.6528 31.533 67.5316 31.6498 67.6658 31.6325V31.5157C67.8432 31.5633 67.921 31.758 68.0984 31.8661C68.8123 32.0176 69.6301 31.8271 70.2618 32.13V32.2208C70.2618 32.3506 70.4694 32.0564 70.4824 32.1775L70.5689 32.13C70.5689 32.1559 70.6295 32.1862 70.5689 32.2121C70.6382 32.2121 70.6425 32.2122 70.7031 32.1733L70.7679 32.2641C71.0448 32.3679 71.3088 32.2641 71.6031 32.3203C71.9405 32.5323 72.6414 32.4761 73.0438 32.4458C73.6192 32.329 74.1903 32.9303 74.7744 32.7876C74.7744 32.8092 74.8437 32.7875 74.8437 32.7616L75.3542 32.8524C75.3542 32.8524 77.8464 33.2503 76.0984 31.9179V31.8919C75.9992 31.8327 75.887 31.7987 75.7717 31.7926C75.6563 31.7866 75.5412 31.8089 75.4364 31.8575C75.4364 31.6844 75.2071 31.8098 75.1466 31.7449C74.9562 31.853 74.8091 31.5849 74.6274 31.68C74.6274 31.68 74.6273 31.6195 74.6836 31.6239C74.5624 31.6239 74.3894 31.6239 74.3937 31.5417C74.1038 31.5417 73.7058 31.4249 73.4981 31.5417V31.5157C73.3769 31.6109 73.3596 31.5157 73.2341 31.5503C73.2341 31.5503 73.2341 31.5287 73.2341 31.5244C73.1043 31.6152 72.8966 31.4941 72.8014 31.5244V31.4551H72.5722L72.6544 31.4811C72.5982 31.6628 72.4986 31.3426 72.3169 31.4378C72.1612 31.3945 71.9492 31.7752 71.7977 31.6627C71.7112 31.7406 71.8842 31.5329 71.7631 31.5848C71.7631 31.4853 71.8237 31.533 71.8064 31.4509C71.6853 31.4811 71.6333 31.3253 71.4862 31.3729V31.295C71.2872 31.4074 71.1574 31.1523 71.0189 31.2648C70.8242 31.2994 70.9237 31.0267 70.7074 31.1435L70.6468 31.0311C70.5646 31.0052 70.569 31.1479 70.4868 31.0873C70.4868 31.0224 70.3742 31.0182 70.4391 30.9663C70.2444 30.8365 70.0065 31.0485 69.7426 30.8408C69.6647 30.9576 69.5349 30.8624 69.4786 30.949C69.4786 30.897 69.2017 30.9013 69.3748 30.8062C69.3748 30.8062 69.4137 30.8061 69.4094 30.8277L69.4354 30.7542C69.3013 30.5941 69.1412 30.7931 69.0027 30.7542C69.046 30.7845 69.1065 30.7846 69.0589 30.8321L68.9161 30.8019L68.9551 30.7413L68.7431 30.6765L68.7648 30.7586C68.6609 30.7024 68.6436 30.5683 68.5094 30.6591C68.4489 30.7111 68.5959 30.776 68.4791 30.7846C68.3184 30.6927 68.1488 30.6174 67.9729 30.5597C67.9729 30.6462 67.9297 30.6374 67.8778 30.646V30.5725C67.6701 30.6461 67.8301 30.3953 67.6268 30.4515L67.6528 30.4038L67.5793 30.551C67.3889 30.6764 67.51 30.3866 67.2936 30.551C67.3672 30.551 67.2937 30.7197 67.2158 30.6765L67.2504 30.6072C67.1985 30.6072 67.1769 30.6418 67.1423 30.6072C67.156 30.6014 67.1669 30.5906 67.1726 30.5768C67.1783 30.563 67.1782 30.5474 67.1725 30.5337C67.1667 30.5199 67.1558 30.5089 67.142 30.5033C67.1283 30.4976 67.1127 30.4975 67.099 30.5033L67.1596 30.4211L66.9994 30.5337C66.8999 30.4428 66.7139 30.5337 66.6836 30.4082C66.6836 30.4082 66.4543 30.3259 66.3851 30.4297C66.4413 30.3648 66.3159 30.3217 66.3851 30.2439C66.3159 30.3131 66.1255 30.352 66.0649 30.2439C65.8097 30.1227 65.5933 30.2956 65.3683 30.1615C65.3683 30.248 65.2471 30.1832 65.2601 30.3C65.0005 30.3736 64.8274 30.0101 64.702 30.3389C64.5895 30.3389 64.5809 30.2394 64.5246 30.2134H64.5549C64.4099 30.2174 64.2648 30.2058 64.1223 30.1788C64.0401 30.2004 64.0054 30.3563 63.867 30.3C63.9232 30.2438 63.867 30.2437 63.8108 30.2394C63.8454 30.2394 63.8584 30.2092 63.8108 30.1572C63.7999 30.1737 63.7849 30.187 63.7675 30.1961C63.6766 30.1961 63.6895 30.2309 63.7285 30.2439C63.7246 30.2496 63.7226 30.2563 63.7226 30.2633C63.7226 30.2702 63.7246 30.277 63.7285 30.2827C63.6463 30.1919 63.4733 30.2568 63.4776 30.1444C63.2437 30.1577 63.011 30.1865 62.781 30.2308C62.781 30.1702 62.8199 30.1269 62.8891 30.1139H62.7291C62.7291 30.0361 62.8242 30.0793 62.8761 30.0706C62.7074 29.9149 62.4738 30.1485 62.2748 29.9971L62.2228 30.0533C62.2228 30.0836 62.1623 30.1226 62.1276 30.1313C62.1276 30.0577 62.1536 29.9712 62.0455 29.9583C61.9719 29.8804 61.7988 29.9582 61.682 29.9798C61.7426 29.9798 61.7166 30.0361 61.682 30.0578C61.6474 30.0794 61.6084 29.9799 61.5608 30.0016V29.9063C61.5608 30.0015 61.4051 29.9843 61.3835 30.0189C61.3618 29.9453 61.4743 29.9713 61.496 29.9194L61.1671 29.889C61.046 29.9452 61.1672 29.9799 61.1109 30.0578C61.0071 30.0578 60.8988 30.114 60.7907 30.0578L60.8167 30.1444C60.743 30.1695 60.664 30.1743 60.5879 30.1583C60.5117 30.1423 60.4413 30.106 60.384 30.0533C58.8653 30.5378 59.9513 30.949 59.9513 30.949C60.5527 31.1999 60.8772 30.9922 61.5522 31.0225Z" fill="#084242"/>
<path d="M56.7192 21.8167H56.7755C56.7755 21.8167 56.7495 21.8037 56.7192 21.8167Z" fill="#084242"/>
<path d="M56.8664 23.0192C57.3986 22.7163 57.6236 22.7596 58.1125 22.3529C58.3697 22.1846 58.6168 22.0011 58.8523 21.8035C58.8999 21.6218 59.1769 21.5872 59.2548 21.4055L59.3456 21.4315C59.3759 21.3666 59.4149 21.3103 59.4884 21.3103V21.332C59.5274 21.2369 59.6268 21.2108 59.6441 21.1633V21.1848L59.7263 21.1157V21.1546C59.8146 21.0328 59.9342 20.9371 60.0725 20.8777L60.0163 20.8128C60.3105 20.7349 60.2974 20.5231 60.5786 20.4755C60.7214 20.0991 61.0979 20.3196 61.2623 19.9476C61.2406 19.9909 61.3013 19.9736 61.3099 19.9909C61.4267 19.8871 61.5565 19.779 61.4656 19.6362C61.5608 19.5757 61.5695 19.6362 61.6214 19.6751C61.5782 19.6145 61.6214 19.5323 61.7123 19.4803V19.5281L61.9113 19.3635L61.7901 19.2727C61.9242 19.2294 61.9156 19.3983 62.0065 19.2945L61.9373 19.1992C62.106 19.1127 62.2964 19.1992 62.4954 19.1732C63.1531 18.7968 63.655 18.096 64.3559 17.8754L64.4294 17.9318C64.516 18.0313 64.4857 17.6635 64.5722 17.7457L64.6068 17.6548C64.6414 17.6548 64.6934 17.6549 64.6761 17.6981C64.741 17.6635 64.7323 17.6419 64.7539 17.5813L64.8664 17.6029C65.152 17.4904 65.273 17.2179 65.55 17.0708C65.9567 16.9972 66.4586 16.4781 66.7484 16.1796C67.1205 15.6994 67.96 15.7469 68.3277 15.2451C68.3537 15.2451 68.3709 15.189 68.3623 15.176L68.7949 14.8904C68.7949 14.8904 70.9929 13.4844 68.7474 13.6921V13.6618C68.4618 13.7657 68.3147 13.8565 68.2109 14.0945C68.0898 13.9647 67.9989 14.2113 67.9124 14.2026C67.8388 14.4146 67.5446 14.3151 67.4797 14.5098C67.4797 14.5098 67.4538 14.4535 67.4797 14.4276C67.3845 14.5184 67.2633 14.6438 67.1984 14.5659C66.9648 14.7563 66.5884 14.951 66.5192 15.1933V15.1629C66.4889 15.3143 66.411 15.2537 66.3374 15.3705C66.3374 15.3705 66.3158 15.3705 66.3114 15.3705C66.2725 15.5306 66.0303 15.5826 65.9741 15.6734L65.9351 15.6215L65.7447 15.7643L65.8269 15.7296C65.9048 15.8984 65.6106 15.7296 65.5327 15.9286C65.3856 15.9978 65.4765 16.4305 65.2861 16.4478C65.2861 16.5646 65.2645 16.2921 65.2039 16.4132C65.1477 16.3353 65.2038 16.3353 65.1476 16.2877C65.074 16.3915 64.9313 16.3137 64.8491 16.4478L64.8014 16.3872C64.7192 16.6078 64.451 16.5041 64.4164 16.6815C64.291 16.8415 64.1828 16.569 64.0963 16.8069L63.9751 16.7636C63.8929 16.7982 63.9751 16.9021 63.8843 16.9151C63.854 16.8589 63.7544 16.9409 63.7674 16.8587C63.5295 16.8976 63.4819 17.2221 63.1444 17.2438C63.166 17.3822 63.0016 17.3996 63.0146 17.5034C62.98 17.4644 62.768 17.6591 62.8372 17.4687C62.8372 17.4687 62.8675 17.4428 62.8761 17.4687L62.8545 17.3952C62.6381 17.3952 62.6469 17.6246 62.4997 17.6981C62.556 17.6981 62.6036 17.6506 62.5949 17.6981L62.4651 17.7759V17.7068L62.2574 17.8019L62.3266 17.8494C62.2141 17.8753 62.1104 17.7888 62.0671 17.9489C62.0671 18.0311 62.2098 17.9749 62.1276 18.0615C61.9401 18.103 61.7574 18.1639 61.5824 18.2431C61.643 18.3037 61.5824 18.3296 61.5824 18.3728L61.5392 18.3124C61.4311 18.5114 61.3834 18.2172 61.2666 18.3946V18.3426L61.3099 18.5027C61.245 18.7234 61.1412 18.4248 61.0893 18.7059C61.1498 18.6497 61.2147 18.8228 61.1151 18.8487V18.7752C61.0762 18.8185 61.0806 18.8532 61.0416 18.8618C61.0027 18.8705 60.9984 18.7623 60.9378 18.8185V18.7104L60.8859 18.9051C60.7475 18.9051 60.6523 19.0867 60.5571 19.0262C60.5571 19.0262 60.3235 19.1213 60.3408 19.2467C60.3408 19.1602 60.2153 19.2165 60.2023 19.1257C60.2023 19.2252 60.0724 19.3853 59.96 19.3593C59.6787 19.4415 59.6269 19.7227 59.3629 19.7919C59.4192 19.8568 59.2851 19.8914 59.3629 19.9649C59.2115 20.2028 58.848 20.0385 58.9605 20.3975C58.8739 20.4797 58.8004 20.3974 58.7398 20.4277V20.3975C58.6285 20.4976 58.5084 20.5875 58.3808 20.6658C58.3289 20.7393 58.4067 20.8777 58.2639 20.9296C58.2639 20.8474 58.225 20.8907 58.1818 20.9296C58.2034 20.9037 58.1817 20.8778 58.1168 20.8821C58.1218 20.9005 58.1218 20.9199 58.1168 20.9383C58.0519 21.0075 58.0779 21.0119 58.1168 20.9989C58.1247 21.0115 58.1371 21.0208 58.1514 21.0249C58.026 21.0249 57.9352 21.1763 57.8659 21.0897C57.6935 21.2599 57.5316 21.4405 57.3813 21.6305C57.3294 21.6002 57.3467 21.5266 57.3813 21.4704L57.2558 21.5785C57.2125 21.5093 57.3077 21.4878 57.3423 21.4488C57.1087 21.4488 57.0827 21.7776 56.8275 21.8035V21.8815C56.8381 21.8999 56.8437 21.9206 56.8437 21.9419C56.8437 21.9631 56.8381 21.9841 56.8275 22.0025C56.7626 21.9636 56.7366 21.8685 56.6458 21.9334C56.5376 21.9334 56.4554 22.1021 56.3818 22.1973C56.4381 22.1756 56.4468 22.2188 56.4381 22.2534C56.4295 22.288 56.3256 22.2535 56.304 22.2967L56.2477 22.2188C56.3169 22.2837 56.1785 22.3832 56.1828 22.4264C56.1179 22.3832 56.2217 22.3269 56.1828 22.275L55.9103 22.4742C55.8497 22.5996 55.9795 22.5347 55.9751 22.6385C55.9016 22.7121 55.8496 22.8245 55.7155 22.8462L55.7978 22.8937C55.7566 22.9618 55.6989 23.0184 55.6301 23.0585C55.5614 23.0985 55.4836 23.1209 55.404 23.1231C54.5387 24.5204 55.668 24.0792 55.668 24.0792C56.2088 23.8499 56.3256 23.4734 56.8664 23.0192Z" fill="#084242"/>
<path d="M52.8816 5.47678H52.8296C52.8296 5.47678 52.8643 5.49841 52.8816 5.47678Z" fill="#084242"/>
<path d="M52.1199 4.55539C51.843 5.01396 51.631 5.06583 51.445 5.59361C51.3232 5.83343 51.2163 6.08046 51.1248 6.33336C51.1854 6.49775 50.9733 6.63623 51.0036 6.8136H50.9171C50.9171 6.87417 50.9171 6.939 50.8652 6.96495C50.8652 7.06013 50.8133 7.12078 50.822 7.16404L50.7873 7.25054V7.22456C50.7799 7.35526 50.7297 7.47994 50.6445 7.57933L50.731 7.60954C50.5276 7.79556 50.6488 7.96002 50.4455 8.11143C50.5277 8.4705 50.1037 8.44882 50.1643 8.81221C50.1643 8.76895 50.1166 8.81221 50.0993 8.81221C50.0604 8.94632 50.0085 9.08045 50.16 9.16265C50.1167 9.24917 50.0777 9.21027 50.0128 9.19296C50.0777 9.22324 50.0691 9.3184 50.0388 9.38762V9.34431L49.961 9.55629L50.108 9.57794C50.0171 9.66446 49.9393 9.52609 49.9176 9.64289L50.0258 9.69475C49.9306 9.83319 49.7273 9.83754 49.5931 9.94137C49.2513 10.5081 49.2037 11.2782 48.7278 11.7324H48.637C48.5158 11.6848 48.7321 11.9703 48.6153 11.9356V12.0265C48.5894 12.0265 48.5461 12.0611 48.5375 12.0265C48.5029 12.0827 48.5375 12.0914 48.5375 12.152L48.4336 12.1824C48.2606 12.3857 48.3038 12.6538 48.1523 12.883C47.8581 13.1037 47.7197 13.7267 47.6375 14.0858C47.5856 14.6179 46.8631 14.9077 46.8328 15.4658C46.8068 15.4658 46.8328 15.5307 46.8328 15.5393L46.6078 15.9504C46.6078 15.9504 45.5434 17.9663 47.2783 16.8978V16.9193C47.4557 16.7203 47.5423 16.5862 47.4947 16.3612C47.6634 16.4132 47.6029 16.1796 47.6808 16.1536C47.6332 15.9546 47.9274 15.9157 47.8885 15.721C47.8885 15.721 47.936 15.76 47.923 15.7903C47.9533 15.6821 47.988 15.5306 48.0831 15.5695C48.174 15.3229 48.3817 15.0159 48.3125 14.7909L48.3341 14.8125C48.2779 14.6784 48.373 14.6957 48.373 14.5746H48.399C48.3514 14.4319 48.5201 14.2934 48.5201 14.1982L48.5807 14.2242L48.6586 14.0296L48.611 14.0945C48.4596 13.9863 48.7884 14.0037 48.7451 13.8133C48.8317 13.7008 48.5287 13.3806 48.6758 13.2941C48.6326 13.1946 48.7754 13.4152 48.7625 13.2941C48.8533 13.333 48.7971 13.3633 48.875 13.3763C48.875 13.2638 49.0393 13.2681 49.0393 13.1253L49.1085 13.1557C49.0609 12.9438 49.3379 12.9221 49.2686 12.762C49.2903 12.5846 49.5196 12.762 49.4677 12.537H49.5888C49.6364 12.4765 49.5023 12.4333 49.5888 12.3814C49.6451 12.4116 49.6797 12.3078 49.7143 12.3814C49.8874 12.2559 49.7619 11.9704 50.0258 11.8233C49.9349 11.7194 50.0604 11.6371 49.9955 11.5592C50.0474 11.5809 50.1167 11.3388 50.1556 11.5161C50.1556 11.5161 50.1556 11.5508 50.1296 11.5421L50.1902 11.5896C50.3805 11.5247 50.2378 11.3214 50.32 11.2046C50.2811 11.2305 50.2594 11.2826 50.2291 11.2263L50.2983 11.1137L50.3416 11.1657L50.4628 11.0056H50.3806C50.4585 10.9364 50.5926 10.9667 50.545 10.8196C50.5104 10.7504 50.4109 10.8541 50.4325 10.7546C50.5646 10.6478 50.6837 10.5259 50.7873 10.3913C50.7051 10.3653 50.7267 10.3264 50.731 10.2788L50.8003 10.3048C50.8003 10.1058 50.9777 10.3047 50.982 10.1317L51.021 10.1707L50.8998 10.0582C50.8349 9.85053 51.0772 10.0581 50.9733 9.80723C50.9517 9.87213 50.8089 9.75965 50.8781 9.69908L50.9301 9.75105C50.9301 9.70346 50.9301 9.67752 50.9301 9.65588C50.9335 9.66764 50.9405 9.67789 50.9503 9.68525C50.9601 9.69261 50.972 9.69665 50.9842 9.69665C50.9964 9.69665 51.0082 9.69261 51.018 9.68525C51.0278 9.67789 51.0349 9.66764 51.0383 9.65588L51.0988 9.73806L51.034 9.56495C51.1508 9.50871 51.1335 9.32277 51.2416 9.33143C51.2416 9.33143 51.3844 9.16266 51.3065 9.06749C51.3497 9.13671 51.4277 9.0459 51.4839 9.11079C51.4407 9.02427 51.4536 8.85116 51.5575 8.82953C51.7435 8.65216 51.6396 8.39699 51.83 8.25423C51.7478 8.22827 51.83 8.14605 51.7305 8.1201C51.7305 7.86918 52.1156 7.85181 51.843 7.62253C51.8733 7.52303 51.9728 7.55331 52.0118 7.51005V7.54036C52.0476 7.41432 52.0999 7.29355 52.1675 7.18126C52.1675 7.10339 52.0291 7.02126 52.1199 6.92176C52.1589 6.98665 52.1718 6.92173 52.1935 6.89144C52.1935 6.92605 52.1934 6.94336 52.2713 6.89144C52.2605 6.87586 52.2531 6.85822 52.2497 6.83959C52.2497 6.75739 52.2497 6.76167 52.2151 6.79195H52.1761C52.2843 6.75734 52.2713 6.58434 52.3752 6.62328C52.4271 6.41704 52.4647 6.20736 52.4876 5.99591C52.5482 5.99591 52.5699 6.06515 52.5656 6.12571L52.6088 5.99158C52.6824 6.02619 52.6088 6.08246 52.6088 6.13004C52.8035 6.0392 52.6478 5.75805 52.8468 5.63691L52.8078 5.57196C52.792 5.5599 52.7794 5.54413 52.7711 5.52602C52.7628 5.50791 52.7591 5.48802 52.7603 5.46814C52.8338 5.46814 52.903 5.54168 52.9463 5.46814C52.9896 5.39459 53.0112 5.25616 53.0241 5.14801C52.9895 5.19127 52.9636 5.14801 52.9506 5.14801C52.9376 5.14801 53.0458 5.1091 53.0371 5.06151L53.1237 5.10048C53.0328 5.10048 53.0934 4.94466 53.0675 4.91005C53.141 4.91005 53.089 5.00525 53.128 5.03986C53.2102 4.85816 53.1713 4.94906 53.2491 4.76736C53.2491 4.64191 53.1627 4.74574 53.1064 4.66354C53.1324 4.57269 53.1064 4.46016 53.2146 4.39094H53.1237C53.1201 4.32028 53.1375 4.25012 53.1737 4.18932C53.2099 4.12851 53.2632 4.07976 53.327 4.04916C53.2881 2.57829 52.6045 3.38303 52.6045 3.38303C52.2324 3.63394 52.332 3.98434 52.1199 4.55539Z" fill="#084242"/>
<path d="M37.1629 0.268127L37.1196 0.320091C37.1196 0.320091 37.1543 0.307062 37.1629 0.268127Z" fill="#084242"/>
<path d="M36.1504 -0.493281C36.0249 0.211874 35.8432 0.371936 35.8302 1.12468C35.7783 1.47509 35.7783 1.85579 35.761 2.20188C35.8735 2.37492 35.7177 2.63449 35.8042 2.85512L35.7221 2.92441C35.7411 2.95648 35.7512 2.99304 35.7512 3.03034C35.7512 3.06764 35.7411 3.10431 35.7221 3.13638H35.7004C35.748 3.24021 35.7004 3.3483 35.7264 3.40022V3.52136L35.7004 3.49548C35.7418 3.66458 35.7418 3.84116 35.7004 4.01026H35.7913C35.6615 4.33472 35.826 4.47749 35.6832 4.77166H35.6615C35.8562 5.17832 35.4452 5.36427 35.6269 5.77957C35.6269 5.72766 35.5837 5.77957 35.562 5.77957C35.562 5.9656 35.562 6.16034 35.735 6.17765C35.735 6.31176 35.6701 6.28148 35.6009 6.29446C35.6788 6.29446 35.6962 6.4156 35.6918 6.51943L35.6702 6.47179V6.77027L35.8172 6.72707C35.761 6.87849 35.6399 6.72703 35.6615 6.9044H35.7784C35.7351 7.12071 35.5447 7.23318 35.4409 7.43651C35.3111 8.30173 35.5403 9.27948 35.2677 10.0798L35.1769 10.11C35.0428 10.11 35.35 10.3523 35.2289 10.374L35.2807 10.4734C35.2591 10.4994 35.2288 10.5513 35.2029 10.5038C35.2029 10.5903 35.2029 10.5945 35.2462 10.6594L35.1596 10.7503C35.073 11.092 35.2072 11.3992 35.1596 11.7626C34.9735 12.1952 35.0774 13.0344 35.1596 13.5146C35.3326 14.1938 34.7789 14.9638 35.0082 15.6777C35.0082 15.6993 35.0081 15.76 35.0471 15.76C35.0471 15.972 35.0471 16.1926 35.0471 16.4003C35.0471 16.4003 35.0471 16.5993 35.0774 16.8329C35.0774 16.9627 35.1077 17.1054 35.1294 17.2655C35.16 17.4132 35.2034 17.558 35.2592 17.6981C35.3587 17.9447 35.4754 18.096 35.6096 18.0181C35.7437 17.9403 35.8909 17.646 36.1072 17.0923H36.1331C36.1732 16.9653 36.1855 16.8313 36.1691 16.6992C36.1527 16.567 36.1079 16.4399 36.0379 16.3266C36.2066 16.2876 36.038 16.0498 36.1115 15.9719C35.9774 15.7686 36.224 15.5393 36.1115 15.349C36.1115 15.349 36.1764 15.349 36.1764 15.4096C36.1764 15.2625 36.1158 15.0634 36.2197 15.0547C36.2197 14.7086 36.2673 14.2241 36.1115 13.9992H36.1374C36.0336 13.8694 36.1374 13.8348 36.0769 13.692H36.1029C35.999 13.5493 36.1028 13.2898 36.0639 13.173H36.1331V12.8961L36.1115 12.9998C35.9298 12.9522 36.237 12.7966 36.1115 12.589C36.1461 12.4029 35.748 12.1866 35.8475 11.9962C35.7697 11.8967 35.986 12.087 35.9254 11.9443C36.0249 11.9443 35.9817 12.0135 36.0639 11.9789C36.0249 11.8405 36.1764 11.7627 36.1202 11.5896H36.198C36.0726 11.3603 36.3235 11.1785 36.198 11.0271C36.1504 10.7935 36.4317 10.8887 36.3019 10.6421L36.41 10.5599C36.41 10.4604 36.2888 10.4778 36.3451 10.3696C36.41 10.3696 36.4056 10.2312 36.4619 10.3004C36.5787 10.0582 36.3625 9.7769 36.5572 9.45677C36.436 9.37457 36.5269 9.21452 36.436 9.14963C36.4923 9.14963 36.4706 8.81649 36.5744 9.01549C36.5744 9.01549 36.5744 9.05879 36.5744 9.05447L36.648 9.08478C36.7994 8.90741 36.5961 8.73437 36.648 8.54835C36.6177 8.60026 36.6177 8.67377 36.5701 8.62186L36.596 8.44885L36.6567 8.48772L36.7129 8.23255L36.635 8.26276C36.6826 8.1373 36.8167 8.1027 36.7215 7.95129C36.6653 7.88207 36.609 8.06385 36.596 7.92541C36.6836 7.72239 36.7545 7.51253 36.808 7.29804C36.7172 7.29804 36.7259 7.25046 36.7129 7.18989H36.7907C36.7042 6.94763 36.9638 7.12069 36.8989 6.88275L36.9509 6.90874L36.7994 6.83089C36.6696 6.61459 36.9638 6.7357 36.7994 6.48912C36.7994 6.57996 36.6306 6.5151 36.6739 6.40695L36.7432 6.44148C36.7432 6.37659 36.7042 6.35494 36.7432 6.31601C36.7821 6.35494 36.847 6.34201 36.847 6.25116L36.9292 6.32034L36.8124 6.13868C36.9032 6.01322 36.8124 5.79263 36.9335 5.74937C36.9335 5.74937 37.0114 5.46814 36.9032 5.39027C36.9681 5.45516 37.0115 5.29938 37.085 5.35129C37.0158 5.27342 36.9725 5.04851 37.0634 4.96632C37.1802 4.65484 36.9984 4.40394 37.1325 4.12275C37.046 4.12275 37.1066 3.97998 36.9941 4.00593C36.9119 3.69445 37.2753 3.48246 36.9422 3.3397C36.9422 3.20126 37.0374 3.18395 37.0634 3.11906V3.1537C37.0583 2.97867 37.0685 2.80354 37.0937 2.63026C37.0937 2.53076 36.9119 2.5004 36.9682 2.33168C37.0288 2.39657 37.0201 2.33172 37.0287 2.2625C37.0287 2.30143 37.0546 2.31871 37.1066 2.23652C37.0913 2.22374 37.0795 2.20746 37.072 2.18899C37.072 2.08084 37.0417 2.0981 37.0287 2.14569C37.0148 2.14036 36.9994 2.14036 36.9855 2.14569C37.0807 2.04619 37.0114 1.83855 37.1239 1.83855C37.1239 1.51409 37.0417 1.27619 37.0287 1.00797C37.0893 0.982014 37.1326 1.05114 37.1455 1.12901V0.956007C37.2234 0.956007 37.1802 1.06844 37.1888 1.12901C37.3446 0.91703 37.1109 0.653167 37.258 0.402253L37.2018 0.341734C37.1716 0.341734 37.1282 0.272516 37.1239 0.233581C37.1974 0.203298 37.284 0.233577 37.297 0.121098C37.3749 0.0259235 37.297 -0.173077 37.271 -0.311513C37.271 -0.242295 37.2148 -0.268252 37.1932 -0.311513C37.1715 -0.354774 37.271 -0.406725 37.2494 -0.458638H37.3445C37.2494 -0.458638 37.2667 -0.640331 37.232 -0.670614C37.3056 -0.69657 37.2796 -0.56244 37.3316 -0.540809C37.3316 -0.800376 37.3316 -0.670656 37.3619 -0.930222C37.3056 -1.07731 37.2667 -0.930176 37.1932 -0.990741C37.1932 -1.1162 37.1369 -1.24594 37.1932 -1.38005L37.1022 -1.34551C37.0779 -1.43336 37.0735 -1.52547 37.0892 -1.61526C37.105 -1.70505 37.1405 -1.79025 37.1932 -1.86462C36.7086 -3.66861 36.2975 -2.33621 36.2975 -2.33621C35.9687 -1.68729 36.172 -1.31092 36.1504 -0.493281Z" fill="#084242"/>
<path d="M45.2363 20.6183L45.4657 20.7653C45.4657 20.7653 45.4094 20.7091 45.2363 20.6183Z" fill="#084242"/>
<path d="M24.2002 36.6075V36.5425C24.1872 36.5901 24.1959 36.6032 24.2002 36.6075Z" fill="#084242"/>
<path d="M52.0809 27.99L52.0376 27.9422L52.0809 27.99Z" fill="#084242"/>
<path d="M41.8919 20.7392C42.2694 20.8037 42.6412 20.8977 43.0039 21.0204C43.1726 21.068 43.3327 21.1112 43.4884 21.1632L43.9211 21.3448L44.7259 21.6824L45.4614 22.063C46.6318 22.6349 47.7311 23.342 48.7367 24.1699C50.022 25.2746 51.1437 26.5564 52.0682 27.9768C52.6004 28.5695 53.1325 29.85 53.5652 30.6633L53.6345 31.0224C53.7954 31.321 53.916 31.6395 53.9935 31.9698H53.9677C54.1181 32.3574 54.2466 32.7532 54.3527 33.1552H54.3267L54.4695 33.7175L54.4175 33.6267C54.644 34.4066 54.772 35.2117 54.7983 36.0234L54.8805 35.9541C54.8805 36.7588 54.8805 37.3039 54.8805 37.836C54.8796 38.4192 54.8085 39.0002 54.6685 39.5664V39.5449C54.6239 40.3359 54.4331 41.1118 54.106 41.8334C53.8248 42.504 53.496 43.1528 53.1195 44.018C53.2147 43.8017 53.0287 44.0829 53.02 44.0527C52.6177 44.8184 52.0422 45.545 52.1547 45.6619C51.7567 46.1637 51.7784 46.0253 51.6745 46.0469C51.7351 46.0945 51.376 46.5186 51.0342 46.882L51.1682 46.6959L50.6837 47.2237C50.5193 47.3968 50.3289 47.5394 50.1515 47.6994L50.463 47.6259C49.8486 48.0888 50.1991 47.6259 49.6626 48.1147L49.7448 48.2013L49.4462 48.4307C49.3467 48.4999 49.2386 48.5475 49.1434 48.6037C48.9444 48.7076 48.754 48.7984 48.5679 48.8849L47.9969 49.1487C47.7935 49.2223 47.5642 49.2959 47.3435 49.3868C45.435 50.3336 43.3301 50.8166 41.1997 50.797C39.1138 50.7745 37.0591 50.2868 35.1856 49.3695L35.0645 49.2222C35.0645 49.0881 34.0088 48.9282 33.9309 48.7465C33.7838 48.6989 33.654 48.6296 33.4983 48.5733C33.3425 48.5171 33.1824 48.3312 33.3901 48.4221C33.183 48.2915 32.9676 48.1744 32.7454 48.0716L32.4209 47.7514C31.1239 46.7938 29.9369 45.6955 28.8817 44.4766C28.0749 43.3726 27.3422 42.2165 26.6881 41.0157C26.02 39.7755 25.5209 38.4515 25.204 37.0789C24.8253 35.4241 24.8536 33.7021 25.2863 32.0606C25.7276 30.4133 26.344 28.8179 27.1251 27.3019C27.1961 27.1955 27.2501 27.0788 27.2852 26.9559C27.8072 26.1093 28.4194 25.3216 29.111 24.6067L29.2235 24.4943C29.2927 24.4208 29.3965 24.3169 29.535 24.1914C29.8914 23.8562 30.2702 23.5455 30.6686 23.2614C31.1718 22.9005 31.7147 22.5985 32.2868 22.3615C32.8395 22.128 33.4219 21.9722 34.0174 21.8987C34.4482 21.849 34.8821 21.8316 35.3154 21.8467C35.6183 21.8467 35.7827 21.8467 35.7048 21.7386C35.3863 21.5126 35.0156 21.3711 34.6275 21.3275C33.5422 21.148 32.4287 21.2647 31.4041 21.6651L31.4648 21.6044C30.1727 22.1198 29.0492 22.984 28.2198 24.1006C28.0943 24.1006 27.8346 24.3732 27.601 24.6847C27.3674 24.9962 27.1381 25.3422 26.991 25.4893V25.4504C26.4848 26.3935 25.693 27.2587 25.3901 28.2537C25.3796 28.1507 25.404 28.047 25.4593 27.9595C25.1521 28.6473 24.832 29.6206 24.7281 29.6466C24.4086 30.5897 24.1754 31.5599 24.0315 32.5452C23.9678 33.0099 23.9317 33.4778 23.9233 33.9467C23.9323 34.3127 23.9598 34.6781 24.0056 35.0413L23.9796 34.9634C24.0272 35.2879 24.0532 35.4998 24.0748 35.7205C24.0911 35.993 24.1214 36.2646 24.1657 36.5339C24.1657 36.5772 24.1657 36.629 24.1657 36.6203C24.2868 36.9621 24.3647 37.4856 24.4815 37.9615C24.571 38.3759 24.6896 38.7835 24.8363 39.1814L24.7843 39.2378C24.9488 39.6704 25.0959 40.1289 25.3036 40.5356C25.2387 40.3712 25.1694 40.211 25.1088 40.0466C25.2257 40.0985 25.3079 40.3494 25.4247 40.7042C25.5484 41.1422 25.7428 41.5574 26.0002 41.9329C26.2352 42.3565 26.5262 42.7463 26.8655 43.0922C27.2192 43.4312 27.534 43.8084 27.8043 44.217C28.1634 44.5328 27.4409 43.979 27.9212 44.4895C27.8606 44.5674 27.6746 44.2689 27.7221 44.4593C28.1071 44.9989 28.5263 45.5133 28.9769 45.9994L28.9466 46.0729C29.812 46.7997 30.3873 47.6174 31.045 47.9981C31.9968 48.647 31.5166 48.6642 32.6113 49.2136L32.9661 49.5467C33.3988 49.8322 33.3512 49.6203 33.8314 49.9318C33.7709 49.9794 34.4631 50.2995 34.1299 50.2087C35.2852 50.8576 36.6221 51.0956 38.2619 51.6147C38.647 51.6147 39.495 51.766 39.7806 51.7184C39.8152 51.8092 41.5112 51.8438 40.5291 51.9087C40.4425 51.9087 40.2954 51.9089 40.3084 51.883L40.1872 51.9478C40.6437 52.0431 41.1116 52.0707 41.5761 52.03C42.0087 51.9737 42.4717 51.9391 42.9606 51.8958C42.6707 51.9175 42.2856 51.8958 42.5279 51.8612C42.7702 51.8266 43.1294 51.8008 43.4322 51.7748L43.2505 51.8612C43.704 51.8325 44.1549 51.7731 44.6004 51.6838L44.4014 51.6493C44.7302 51.5931 44.9596 51.5844 45.1932 51.5498C45.4817 51.5223 45.7607 51.4321 46.0109 51.2858C46.3094 51.1171 45.3879 51.3982 46.0369 51.143L46.7464 50.9311C47.0187 50.8573 47.2838 50.7587 47.5382 50.6369L48.3559 50.2736C48.6201 50.1484 48.8746 50.0038 49.1174 49.8409C48.9833 49.8409 49.2429 49.6636 49.4939 49.4776L49.5674 49.5165C50.0476 49.1531 50.1342 49.084 50.251 49.0623C50.3678 49.0407 50.476 48.9931 50.9087 48.5778L50.861 48.6859L50.9995 48.3657C51.1764 48.1476 51.3815 47.9541 51.6095 47.7903C51.8578 47.6011 52.0641 47.3626 52.2153 47.0896C51.9038 47.4357 51.9427 47.1327 52.3624 46.7434L52.3148 46.8948C52.5269 46.6569 52.5701 46.5573 52.7129 46.4016C52.6263 46.5746 52.7128 46.5487 53.0157 46.168L52.8903 46.4753C53.0374 46.2071 53.2018 45.9605 53.323 45.6836C53.7989 45.1688 54.2705 44.1781 54.4695 43.9532L54.582 43.7455C54.6713 43.5854 54.7522 43.4208 54.8243 43.2523C54.9779 42.9379 55.0843 42.6027 55.1402 42.2574C55.1099 42.5645 55.404 41.7987 55.404 42.0453C55.517 41.3909 55.6688 40.7437 55.8583 40.1072V40.1938C56.2694 38.5412 56.0963 37.3255 56.105 35.8286C56.0228 35.9022 56.0055 35.1105 55.9103 35.3138C55.6421 33.8084 55.6377 32.4889 55.1358 32.0519C55.0236 31.6723 54.9325 31.2867 54.8632 30.8969L54.9325 31.0484C54.6166 30.2181 54.254 29.4063 53.8465 28.617C53.5956 28.1844 53.4138 28.2147 53.007 27.4533C53.2147 27.6567 53.0071 27.3625 52.8384 27.0942C52.9595 27.2586 53.0114 27.3019 52.8167 26.9212C52.7578 26.866 52.7029 26.8067 52.6523 26.7438V26.7223C52.3192 26.2896 52.3581 26.3847 52.4965 26.5923C52.4965 26.5923 52.4965 26.6141 52.4965 26.6876C52.3368 26.395 52.1514 26.117 51.9427 25.857C51.735 25.5975 51.5749 25.3854 51.5966 25.3205C50.6773 24.2839 49.6239 23.3746 48.4641 22.6167C48.3732 22.4869 48.6632 22.6167 48.9877 22.8503C48.7324 22.6556 48.4641 22.4782 48.2002 22.2922C48.2521 22.2317 48.6761 22.5822 48.927 22.7466C48.0877 21.9333 46.8936 21.4919 45.7297 20.8602L45.4527 20.7998L45.3879 20.7565C45.3879 20.7955 45.0893 20.696 44.8989 20.6484C44.7475 20.5143 44.9726 20.5012 44.3452 20.272C43.6665 19.9868 42.949 19.8045 42.2164 19.7312C42.4025 19.7615 42.4587 19.7962 42.4544 19.8091C42.4014 19.8173 42.3473 19.8173 42.2943 19.8091C42.0406 19.7419 41.7836 19.6884 41.5242 19.649L41.5026 19.5495C41.5631 19.6101 41.3425 19.5842 41.0916 19.5842C40.8406 19.5842 40.5507 19.5841 40.4901 19.6144C40.2997 19.5365 41.0136 19.5712 41.1044 19.5193C40.4218 19.4616 39.7347 19.4863 39.0579 19.5928C38.3527 19.8091 39.2008 19.6446 38.8763 19.8047C38.5691 19.8912 38.2663 19.9606 37.9634 20.0774C37.6605 20.1942 37.3446 20.298 37.0114 20.4494L37.2538 20.4192L36.5615 20.8258C36.3538 20.9469 36.1851 21.094 36.0121 21.2065L35.7568 21.3752L35.5231 21.5569L35.0515 21.9029C34.4928 22.552 34.0108 23.2632 33.6151 24.0227C33.4029 24.4237 33.2249 24.842 33.0829 25.273C32.9012 25.8224 33.0093 25.8397 33.2256 25.6061C33.442 25.3725 33.7665 24.9181 34.0608 24.5374C34.1992 24.3428 34.3463 24.1785 34.4414 24.0531L34.6016 23.8497C35.4195 22.8236 36.4271 21.9643 37.5696 21.3188C38.9051 20.6479 40.4268 20.4439 41.8919 20.7392Z" fill="#084242"/>
</svg>
