<svg width="39" height="70" viewBox="0 0 39 70" fill="none" xmlns="http://www.w3.org/2000/svg">
<path d="M13.3554 25.3717L31.0781 27.104C31.0781 27.104 30.8123 45.5312 20.1116 44.421C9.41085 43.3108 10.4336 36.2854 10.796 32.7289C11.1583 29.1724 10.5988 25.5237 13.3554 25.3717Z" fill="#8AD2AD"/>
<path d="M8.43361 26.7123L8.3877 27.0117C8.3877 27.0117 8.41985 26.9288 8.43361 26.7123Z" fill="#084242"/>
<path d="M26.8491 3.46622L26.7896 3.43394C26.8308 3.46159 26.8445 3.46622 26.8491 3.46622Z" fill="#084242"/>
<path d="M7.58964 38.5702L7.55762 38.4967L7.58964 38.5702Z" fill="#084242"/>
<path d="M7.34682 23.0453C7.22298 27.0763 7.02577 28.1404 7.01201 32.3188C7.01201 32.8164 7.01209 33.3231 6.97998 33.8345C6.97998 34.0925 6.97998 34.3367 6.97998 34.6085L7.03037 35.4192C7.0533 35.6864 7.06713 35.9582 7.09465 36.2254C7.12217 36.4926 7.18159 36.7553 7.22745 37.0179C7.27332 37.2805 7.31474 37.5384 7.36519 37.7964C7.41564 38.0544 7.51184 38.303 7.58064 38.5518C7.64944 38.8006 7.74595 39.0633 7.88813 39.3535L8.27782 40.2978C8.55545 40.919 8.92169 41.4964 9.36492 42.0116L9.58059 42.4262C9.90462 42.7144 10.211 43.0221 10.4979 43.3476H10.4657C10.8802 43.6797 11.3137 43.9873 11.7637 44.269H11.727L12.3554 44.6514L12.2316 44.61C13.1479 45.057 14.0991 45.4281 15.0754 45.7201L15.0248 45.6096C15.7587 45.8549 16.5197 46.0096 17.2908 46.0703C17.9375 46.1256 18.5566 46.1533 19.4372 46.2316H19.4097C20.5564 46.098 21.4464 46.0196 22.3453 45.84C23.3306 45.6759 24.2719 45.3105 25.111 44.7665C24.8633 44.9278 25.244 44.7665 25.2349 44.7665C25.4779 44.6421 25.6935 44.4716 25.9229 44.3288C26.128 44.1917 26.3212 44.0376 26.5007 43.8681C26.8217 43.5825 27.0235 43.3661 26.9593 43.2878C27.5418 42.7626 27.4686 42.8961 27.5925 42.8777C27.5604 42.85 27.6704 42.7164 27.831 42.5322C27.9915 42.3479 28.1841 42.0716 28.386 41.8459L28.2207 42.0807L28.5051 41.7444L28.7528 41.3805C28.9226 41.1426 29.0758 40.8932 29.2115 40.6341C29.1143 40.7115 29.0132 40.7838 28.9087 40.8507C29.4086 40.0768 29.1886 40.7448 29.5922 39.9293L29.4728 39.8832C29.7343 39.3028 30.0095 38.8652 30.1884 38.3907C30.2847 38.1558 30.3994 37.9299 30.4912 37.6673C30.5829 37.4047 30.6472 37.1329 30.7252 36.8242C30.7782 36.498 30.8103 36.1689 30.8215 35.8385C30.849 35.5068 30.8627 35.1751 30.8627 34.871C30.8627 34.2445 30.8627 33.6134 30.8627 32.9777C30.8627 31.7108 30.8948 30.4346 30.9131 29.1723C30.9544 26.6386 31.0277 24.1509 31.2204 21.8475L31.3214 21.6448C31.4636 21.5619 31.1608 20.3642 31.2938 20.1937L31.2479 19.6547C31.28 19.5027 31.3168 19.1939 31.3397 19.4518C31.3549 19.1628 31.344 18.873 31.3075 18.5858L31.4085 18.0514C31.5278 16.0888 31.4085 14.4167 31.436 12.3436C31.4871 11.6 31.4994 10.8542 31.4728 10.1093C31.4565 9.65331 31.4073 9.19904 31.3259 8.75017C31.2846 8.51983 31.2433 8.28959 31.1928 8.05003C31.1424 7.81048 31.0552 7.58935 30.9819 7.35901C30.4194 5.66137 29.3734 4.16684 27.9732 3.06079C27.1538 2.45518 26.2818 1.92482 25.3679 1.47606C24.4127 1.02959 23.4195 0.670307 22.4002 0.402632C22.1434 0.338137 21.8865 0.28752 21.6251 0.232238C21.3679 0.170887 21.1077 0.12319 20.8455 0.0893987L20.0612 -0.0165497L19.263 -0.0672744C18.2192 -0.121015 17.1736 -0.00432871 16.167 0.278239C16.0078 0.299948 15.8531 0.346605 15.7083 0.416466C14.5014 0.728729 13.3567 1.24604 12.3234 1.94597L12.1581 2.06114C11.9976 2.1607 11.8444 2.27153 11.6995 2.39282C11.5206 2.54484 11.3052 2.72448 11.0713 2.93639L10.3557 3.69198C10.1355 3.98682 9.89703 4.29087 9.65853 4.61335C9.43583 4.95422 9.23076 5.30624 9.04398 5.66822C8.69493 6.35399 8.41968 7.07528 8.22295 7.81969C8.14498 8.15599 8.06703 8.46454 8.02116 8.74095C7.9753 9.01736 7.96136 9.26154 7.95219 9.45042C7.92925 9.83279 7.95218 10.0125 8.05767 9.9111C8.28702 9.53235 8.46597 9.12506 8.5898 8.69956C9.01614 7.61638 9.57717 6.59174 10.2594 5.64989V5.73739L10.631 5.19381C10.7594 5.02797 10.8922 4.88055 11.0115 4.73313C11.2353 4.45458 11.4759 4.18986 11.7317 3.94065C12.1904 3.47997 12.6491 3.06545 13.1444 2.65544C13.4317 2.58147 13.7035 2.45665 13.9471 2.28687C14.2477 2.09927 14.5676 1.94482 14.9012 1.82619L14.8689 1.85847C15.8734 1.31025 17.1073 1.32865 18.1622 1.13977C18.1255 1.13977 18.1026 1.20424 17.855 1.22266C18.2494 1.19502 18.7126 1.14439 19.0888 1.15361C19.3227 1.13724 19.5574 1.1718 19.7768 1.25494C20.8217 1.31725 21.8584 1.47924 22.8728 1.73868C23.8818 2.01049 24.7945 2.32375 25.3587 2.54027H25.2716C25.5324 2.60817 25.7804 2.71865 26.0055 2.86734L26.7392 3.32802C26.7392 3.36488 26.8036 3.40169 26.7898 3.40169C26.9865 3.51064 27.175 3.63383 27.354 3.77026C27.542 3.9315 27.7391 4.11572 27.9318 4.29539C28.2849 4.68697 28.6197 5.07854 28.794 5.32271L28.762 5.39649C29.0518 5.79495 29.3051 6.21898 29.5187 6.66337C29.447 6.49311 29.3659 6.32697 29.2757 6.16579C29.4042 6.20726 29.5418 6.45601 29.6381 6.84299C29.6977 7.03647 29.7664 7.24845 29.8352 7.47879C29.8961 7.73073 29.9775 7.97719 30.0784 8.21582C30.2802 9.18786 30.7893 10.2291 30.693 11.3532C30.7939 11.8784 30.537 10.8924 30.615 11.6756C30.5141 11.7032 30.5509 11.3116 30.4683 11.5143C30.5188 12.2836 30.372 12.7766 30.4316 13.7302L30.3489 13.7718C30.482 15.0157 30.2067 16.1119 30.3214 16.9458C30.3581 18.2311 30.0645 17.7981 30.1792 19.1387L30.0553 19.6547C30.0186 20.226 30.1746 20.0691 30.1013 20.7003C30.037 20.6634 30.0187 21.502 29.9682 21.1288C29.8123 22.5615 30.0142 24.0496 29.762 25.9338C29.8812 26.3484 29.7618 27.3157 29.8536 27.6105C29.7939 27.6566 29.7756 29.5178 29.6885 28.4444C29.6885 28.3523 29.6884 28.1911 29.7113 28.2003L29.6381 28.0712C29.4501 29.1446 29.6381 30.0385 29.5922 31.1073C29.6289 30.7894 29.638 30.3656 29.6793 30.6466L29.6381 31.6415L29.5785 31.4296L29.5004 32.9131L29.5875 32.7105C29.4673 33.3012 29.4318 33.9062 29.482 34.5071C29.5416 34.8802 29.6013 33.8207 29.615 34.5901C29.615 34.8296 29.5831 35.1153 29.551 35.3871C29.5189 35.6589 29.4822 35.9535 29.4455 36.2484C29.3461 36.8386 29.2035 37.4207 29.0189 37.9899C29.1335 37.9116 29.0555 38.211 28.9638 38.5196H28.8766C28.5005 39.6805 28.5832 38.8744 28.0879 39.957V39.8371C28.0879 39.9569 28.0879 40.0813 28.0879 40.2011C27.5787 41.1823 27.6566 40.6021 27.0236 41.6524C27.175 41.4681 27.2437 41.4542 27.2254 41.5417C27.1513 41.7284 27.0236 41.8888 26.8586 42.0024L26.9181 41.8459C26.7751 42.009 26.6219 42.1629 26.4595 42.3065C26.5695 42.1361 26.4594 42.1682 26.1063 42.4768C26.1752 42.3875 26.2381 42.2937 26.2944 42.1959C26.0972 42.4354 25.877 42.6565 25.666 42.8777C25.3541 43.0481 24.9689 43.2969 24.6203 43.4996C24.3632 43.6607 24.0833 43.7818 23.7901 43.8589C23.7901 43.8589 23.4324 43.9879 23.0425 44.1538C22.6994 44.2538 22.365 44.3817 22.0425 44.5362C22.3223 44.398 21.5013 44.5363 21.7169 44.4165C21.0919 44.6705 20.4168 44.7761 19.7445 44.7251H19.8319C18.1118 44.6745 16.8092 44.725 15.3323 44.2321C15.3782 44.3426 14.603 44.0662 14.759 44.2321C14.3894 44.1302 14.0288 43.9978 13.681 43.8359C13.3692 43.6609 13.0665 43.5089 12.8188 43.3431C12.6062 43.1842 12.3824 43.0409 12.1492 42.9146C11.9894 42.803 11.8081 42.7262 11.617 42.6889C11.4957 42.6003 11.3792 42.5048 11.2683 42.4033C11.1976 42.329 11.1332 42.2488 11.0757 42.1637C10.9881 42.0255 10.8916 41.8932 10.7868 41.7676L10.9199 41.878C10.8006 41.7536 10.686 41.6522 10.5942 41.5462L10.351 41.2331C10.2042 41.0396 10.076 40.8738 9.96132 40.7126C9.77326 40.3625 9.57602 40.0721 9.36962 39.6068C9.27499 39.4253 9.16437 39.2528 9.03928 39.091C8.86303 38.8365 8.74706 38.545 8.69998 38.2387C8.84217 38.5059 8.73192 38.1465 8.64019 37.8102C8.70899 38.0221 8.75041 38.0773 8.67244 37.6304C8.62957 37.5552 8.59265 37.4767 8.56225 37.3956C8.56225 37.3956 8.56225 37.3679 8.56225 37.3956C8.45217 36.8243 8.44773 36.9348 8.47983 37.1974C8.47983 37.1974 8.45687 37.1975 8.45228 37.2989C8.43173 36.9372 8.38871 36.5772 8.32373 36.2209C8.26026 35.9981 8.26026 35.7619 8.32373 35.5391C8.28704 35.1015 8.25035 34.6959 8.21825 34.3089C8.18614 33.9219 8.21822 33.5304 8.1907 33.1572C8.16318 32.4201 8.13571 31.72 8.13113 30.9645C8.19534 30.794 8.24122 31.1488 8.25498 31.5864V30.5175C8.33754 30.5175 8.29172 31.1303 8.30089 31.462C8.46601 30.1859 8.21359 28.8315 8.37412 27.3435L8.31007 27.0302V26.9427C8.24762 26.7653 8.21811 26.5779 8.22295 26.3898C8.30551 26.1779 8.3972 26.3899 8.40637 25.6666C8.45369 24.8577 8.44447 24.0464 8.37883 23.2388C8.37883 23.6534 8.31912 23.5199 8.29619 23.3402C8.29619 22.9717 8.3835 22.7596 8.35598 22.474L8.45676 22.4371C8.36044 22.5799 8.37419 21.4697 8.33291 21.3315C8.41548 21.1242 8.38806 21.9074 8.4431 21.9996C8.4431 20.5162 8.44302 21.2577 8.47513 19.7789C8.41092 18.9865 8.37427 19.9219 8.29171 19.5396C8.253 18.8122 8.253 18.0832 8.29171 17.3558L8.19988 17.6091C8.14496 16.6148 8.17574 15.6177 8.29171 14.6286C7.75507 4.83908 7.33316 12.5508 7.33316 12.5508C7.1497 16.4666 7.36976 18.4615 7.34682 23.0453Z" fill="#084242"/>
<path d="M19.8087 5.67281V5.63603C19.8087 5.63603 19.8041 5.6682 19.8087 5.67281Z" fill="#084242"/>
<path d="M19.4922 4.39238L19.4969 4.38297L19.4922 4.39238Z" fill="#084242"/>
<path d="M20.0657 4.53489C19.9235 4.4704 19.8958 4.29538 19.7261 4.35067C19.646 4.34644 19.5661 4.36066 19.4923 4.39217C19.4556 4.52577 19.3961 4.39217 19.3548 4.50734V4.42895C19.3548 4.47041 19.3271 4.49808 19.3134 4.45661V4.43356C19.3134 4.49345 19.2677 4.45664 19.2585 4.48889V4.46584H19.231V4.43356C19.1943 4.49805 19.1575 4.5027 19.1208 4.47506V4.57178C19.0428 4.47043 19.0337 4.66851 18.9557 4.54873C18.9053 4.80671 18.8044 4.39207 18.7539 4.64084C18.7539 4.6132 18.7539 4.59482 18.7539 4.57178C18.7539 4.54875 18.6759 4.62707 18.708 4.80674C18.6805 4.80674 18.6759 4.75606 18.6621 4.68696C18.6621 4.76527 18.6621 4.80214 18.6346 4.81135V4.77907L18.5795 4.81596L18.6209 4.96341C18.5842 4.92656 18.5796 4.78372 18.5566 4.82518V4.94958C18.5108 4.94958 18.4465 4.75144 18.3777 4.67312C18.1713 4.67312 18.0843 5.03244 17.8458 4.88963L17.8043 4.80213C17.7493 4.67774 17.832 5.00941 17.7815 4.89424V4.96341C17.7815 4.94038 17.7449 4.92188 17.7403 4.88963C17.7357 4.85738 17.7403 4.91273 17.7403 4.9588L17.6852 4.88963C17.5889 4.86199 17.598 5.0417 17.5154 5.0463C17.3411 4.92652 17.2631 5.17993 17.231 5.30431C17.231 5.54387 16.7725 5.22596 16.7954 5.50238C16.7954 5.50238 16.7954 5.53466 16.7954 5.54388C16.7568 5.56891 16.72 5.59659 16.6852 5.62677C16.6478 5.66055 16.6193 5.70294 16.6017 5.75026C16.5841 5.79759 16.5782 5.84838 16.5844 5.8985C16.5844 6.06435 16.8138 6.23482 17.3596 6.4928V6.51586C17.4513 6.51586 17.4833 6.51584 17.4008 6.38685C17.5338 6.51584 17.4467 6.38685 17.4926 6.38685C17.4192 6.25786 17.6163 6.43758 17.5566 6.32241C17.5566 6.32241 17.598 6.37302 17.5934 6.37763C17.5888 6.38224 17.5933 6.29931 17.6621 6.37763C17.6851 6.32235 17.7678 6.31775 17.6944 6.15651V6.18418C17.6439 6.07822 17.6944 6.15656 17.6944 6.09668C17.6485 5.99072 17.7402 6.05063 17.7264 5.99995L17.7678 6.05979L17.7907 6.02289C17.6944 5.85244 17.8824 6.1105 17.8411 5.98612C17.8778 5.98612 17.6898 5.58995 17.7723 5.66366C17.7402 5.57613 17.8274 5.80182 17.8182 5.72811C17.836 5.7743 17.8576 5.819 17.8825 5.86172C17.8825 5.80644 17.9603 5.94004 17.9557 5.86172L17.9925 5.93078C17.9604 5.78336 18.0934 5.99993 18.0567 5.86172C18.0201 5.72352 18.1713 6.06896 18.1392 5.90772L18.1943 6.00456C18.1943 6.00456 18.153 5.87548 18.1943 5.91695C18.2355 5.95841 18.2356 5.96301 18.2494 6.02751C18.2631 6.092 18.2494 5.85705 18.3732 6.02751C18.3411 5.89851 18.3732 5.96769 18.3732 5.87095C18.3732 5.92623 18.419 5.87095 18.4328 5.99073L18.4558 6.06901C18.5246 6.20261 18.4557 5.9723 18.5107 5.99073C18.5658 6.00916 18.4833 5.99066 18.4787 5.92156H18.5062V5.98612L18.5521 6.01367L18.5246 5.93539C18.5567 5.97225 18.5979 6.10589 18.5842 5.98612C18.5704 5.86634 18.543 5.88475 18.5521 5.85711C18.5934 5.90318 18.6485 5.97691 18.6852 5.99073C18.6622 5.9032 18.6852 5.9032 18.6852 5.88017V5.95845C18.6852 5.84328 18.731 6.12887 18.7447 6.03673V6.09206L18.7217 5.92617C18.7217 5.76493 18.7677 6.08747 18.7631 5.87095C18.7631 5.87095 18.7264 5.69586 18.7631 5.72811V5.80639C18.7631 5.80639 18.7631 5.75579 18.7631 5.76961C18.7631 5.78343 18.7631 5.88015 18.7907 5.86633V5.81561C18.8228 5.89393 18.8365 5.78804 18.8594 5.894C18.8594 5.894 18.9099 5.94 18.9053 5.82022C18.9053 5.89393 18.9328 5.92164 18.9374 6.00917C18.9374 5.92625 18.9603 5.85247 18.9833 5.94C19.0383 6.02753 19.0567 5.81099 19.1071 5.91695C19.1071 5.8202 19.1071 5.87095 19.1071 5.75577C19.1071 5.6406 19.2033 5.99532 19.2079 5.62677C19.2079 5.62677 19.2355 5.70968 19.2446 5.72811C19.2859 5.70047 19.2997 5.69583 19.3273 5.70044C19.3548 5.70504 19.3272 5.4978 19.3777 5.53927C19.4281 5.58073 19.3777 5.59449 19.3777 5.59449C19.3686 5.62138 19.3686 5.65049 19.3777 5.67738C19.3741 5.66223 19.3741 5.64653 19.3777 5.63138C19.3777 5.60374 19.3777 5.58526 19.3777 5.57604C19.3822 5.5626 19.3822 5.5481 19.3777 5.53465C19.3777 5.62218 19.428 5.53465 19.428 5.64521C19.4785 5.61757 19.5244 5.49773 19.5703 5.46087C19.5742 5.50714 19.5646 5.55358 19.5427 5.59449H19.575C19.575 5.67741 19.5748 5.64062 19.5427 5.65905C19.5702 5.80186 19.63 5.52545 19.6621 5.65905V5.59449C19.6651 5.56225 19.6745 5.53095 19.6896 5.50238C19.6896 5.57608 19.6896 5.67277 19.6896 5.67277C19.6896 5.74648 19.74 5.64057 19.7676 5.60371C19.7951 5.56686 19.7676 5.54846 19.7676 5.52082C19.7676 5.49318 19.7676 5.59446 19.7676 5.56682V5.66816C19.7676 5.57142 19.8088 5.56689 19.818 5.52543C19.818 5.60375 19.7904 5.58993 19.7812 5.64521H19.8455C19.8822 5.57151 19.8455 5.5484 19.8822 5.46087C19.9052 5.46087 19.9372 5.38256 19.951 5.46087V5.37337C20.006 5.30887 20.029 5.32735 20.0336 5.41948C20.2016 5.21069 20.3206 4.96664 20.3821 4.7054C20.3846 4.61804 20.3623 4.53174 20.3178 4.45661C20.3729 4.22627 20.24 4.48883 20.0657 4.53489Z" fill="#084242"/>
<path d="M13.5848 9.16022H13.5342C13.541 9.1667 13.5501 9.17034 13.5595 9.17034C13.5689 9.17034 13.578 9.1667 13.5848 9.16022Z" fill="#084242"/>
<path d="M11.947 9.77755V9.77297L11.9424 9.76375L11.947 9.77755Z" fill="#084242"/>
<path d="M12.7266 8.27569C12.4744 8.64885 12.2681 8.68576 12.1396 9.13723C12.0462 9.34187 11.9769 9.55662 11.9331 9.77741C12.0295 9.91562 11.8415 10.0401 11.9103 10.1875H11.823C11.823 10.2382 11.8552 10.2935 11.8001 10.3211C11.8322 10.3948 11.8001 10.45 11.8001 10.4869V10.5607L11.7726 10.5377C11.7853 10.5902 11.787 10.6447 11.7775 10.6979C11.768 10.751 11.7476 10.8016 11.7175 10.8463L11.8093 10.8693C11.6533 11.0351 11.8093 11.1595 11.6487 11.3023C11.8322 11.5879 11.4011 11.6203 11.5708 11.9106C11.5478 11.8737 11.5203 11.9106 11.4973 11.9106C11.4973 12.0257 11.4975 12.1408 11.6626 12.1823C11.6626 12.2606 11.5938 12.233 11.5204 12.2284C11.5522 12.2371 11.5795 12.2577 11.5965 12.286C11.6136 12.3143 11.619 12.3481 11.612 12.3805L11.5891 12.3481V12.5278H11.745C11.6854 12.6107 11.5616 12.5279 11.58 12.6108L11.7038 12.6337C11.6534 12.7535 11.4561 12.795 11.3414 12.901C11.1763 13.4123 11.4424 14.0158 11.1488 14.4673H11.0525C10.9149 14.4673 11.2405 14.6239 11.1121 14.6285L11.1672 14.6931C11.1443 14.6931 11.1121 14.7346 11.0846 14.6931C11.0846 14.7438 11.0845 14.7484 11.135 14.7898L11.0478 14.8357C10.9607 15.0338 11.1075 15.2273 11.0478 15.4392C10.8414 15.6834 10.9699 16.1857 11.0478 16.4713C11.2405 16.8721 10.6535 17.3143 10.892 17.7289C10.892 17.7289 10.9148 17.7751 10.9332 17.7751L10.9103 18.1435C10.9003 18.391 10.9376 18.6381 11.0203 18.8714C11.1487 19.1524 11.4194 19.2445 11.9927 18.5765H12.025C12.0984 18.3784 12.1165 18.254 11.9652 18.1158C12.1486 18.0928 11.9653 17.9501 12.0478 17.9087C11.9056 17.7843 12.1671 17.6599 12.0478 17.5447C12.0478 17.5447 12.1166 17.5446 12.1166 17.5769C12.0936 17.494 12.0569 17.3742 12.167 17.3742C12.167 17.1715 12.2082 16.9136 12.0431 16.757H12.0754C11.9607 16.6786 12.0754 16.6648 12.0066 16.5772H12.0341C11.9241 16.4943 12.034 16.3423 11.9835 16.2778H12.0523V16.1165V16.1764C11.8596 16.1395 12.1807 16.0612 12.0523 15.9368C12.089 15.8309 11.6671 15.688 11.7726 15.5821C11.6854 15.5222 11.9148 15.6419 11.8552 15.5544C11.9561 15.5544 11.9149 15.5959 11.9974 15.5821C11.9561 15.4992 12.1119 15.4623 12.0523 15.361H12.1349C12.0019 15.2181 12.2588 15.1306 12.1349 15.0339C12.0799 14.9003 12.3781 14.974 12.2359 14.822L12.3459 14.7806C12.3688 14.7253 12.2175 14.7253 12.2771 14.6654C12.3414 14.6654 12.3414 14.5917 12.401 14.6378C12.5248 14.5088 12.291 14.3291 12.4928 14.1771C12.369 14.1172 12.4606 14.0342 12.3643 13.9881C12.4239 13.9881 12.4009 13.7992 12.511 13.9236C12.511 13.9236 12.511 13.9513 12.511 13.9467L12.5891 13.9697C12.7497 13.8868 12.5341 13.7624 12.5891 13.6611C12.557 13.6887 12.5614 13.7301 12.511 13.6932L12.534 13.5965L12.5983 13.6289C12.5983 13.5828 12.6349 13.5321 12.6579 13.4861H12.5708C12.6258 13.4216 12.7679 13.4216 12.6715 13.3203C12.5752 13.2189 12.5477 13.3708 12.5385 13.2879C12.6298 13.1912 12.7057 13.0808 12.7634 12.9608C12.6716 12.9608 12.6807 12.924 12.6715 12.8825H12.7495C12.6623 12.7305 12.9285 12.8826 12.8688 12.726H12.9192L12.7634 12.6567C12.6303 12.5093 12.9377 12.6292 12.7634 12.4587C12.7634 12.5094 12.5845 12.4588 12.6303 12.3897L12.7038 12.4218C12.7038 12.385 12.6671 12.3666 12.7038 12.3436C12.7405 12.3205 12.8093 12.3804 12.8093 12.3436L12.8964 12.3989L12.777 12.2745C12.8779 12.2192 12.8047 12.0809 12.9148 12.0763C12.9148 12.0763 13.0065 11.9334 12.9148 11.8689C12.979 11.915 13.0294 11.8367 13.1074 11.8689C13.034 11.809 12.9973 11.6709 13.1074 11.6478C13.2358 11.4958 13.0707 11.3161 13.222 11.1871C13.1303 11.1871 13.2219 11.0997 13.0843 11.0859C13.0201 10.8878 13.4008 10.8647 13.0843 10.6943C13.0843 10.6114 13.1944 10.6343 13.2265 10.6021V10.6252C13.2365 10.5268 13.2613 10.4305 13.3 10.3395C13.3 10.2797 13.1302 10.2106 13.199 10.1369C13.254 10.1875 13.2542 10.1367 13.2679 10.1137C13.2817 10.0907 13.2679 10.1552 13.3459 10.1137L13.3136 10.0723C13.3136 10.0078 13.2863 10.0079 13.2679 10.0309C13.2546 10.026 13.2398 10.026 13.2265 10.0309C13.3274 10.0033 13.2816 9.86495 13.3963 9.90181C13.4077 9.73616 13.4077 9.5701 13.3963 9.40446C13.4228 9.40935 13.447 9.42275 13.4652 9.4427C13.4835 9.46265 13.4947 9.48796 13.4973 9.51491V9.40896C13.5752 9.44581 13.4973 9.48727 13.5248 9.52413C13.6945 9.46424 13.5246 9.22938 13.6852 9.15567L13.6348 9.09561C13.6185 9.08587 13.6046 9.07267 13.5942 9.0567C13.5839 9.04072 13.5775 9.02253 13.5752 9.00361C13.6486 9.00361 13.7266 9.08653 13.7542 9.00361C13.7817 8.92069 13.7953 8.84685 13.7998 8.75932C13.7677 8.78696 13.7404 8.7594 13.7266 8.72715C13.7128 8.69491 13.8136 8.72722 13.7998 8.67654L13.8917 8.72243C13.7999 8.68558 13.8503 8.58889 13.8182 8.55665C13.8962 8.55665 13.8458 8.63957 13.8917 8.67182C13.9559 8.54283 13.9192 8.60748 13.988 8.48309C13.965 8.37713 13.9008 8.44151 13.8458 8.3632C13.8458 8.29409 13.8458 8.20199 13.9376 8.16513L13.8505 8.13746C13.8473 8.10936 13.8499 8.0809 13.8583 8.0539C13.8667 8.0269 13.8807 8.00194 13.8993 7.98068C13.9179 7.95942 13.9405 7.94228 13.966 7.9304C13.9916 7.91853 14.0194 7.91219 14.0475 7.91173C14.0475 7.30824 14.0109 7.05026 13.8274 6.99037C13.6794 6.9871 13.5341 7.02886 13.4102 7.11015C12.8506 7.45105 12.9284 7.80119 12.7266 8.27569Z" fill="#084242"/>
<path d="M11.2637 22.884L11.3188 22.9209C11.3188 22.9209 11.305 22.8886 11.2637 22.884Z" fill="#084242"/>
<path d="M10.5297 24.0357C11.3049 24.1002 11.5067 24.2799 12.314 24.2292C12.6947 24.2568 13.1074 24.2292 13.4835 24.2292C13.6624 24.0956 13.9744 24.2293 14.1854 24.128L14.2678 24.2062C14.3027 24.186 14.3422 24.1754 14.3825 24.1754C14.4227 24.1754 14.4623 24.186 14.4972 24.2062C14.6072 24.1509 14.7265 24.2062 14.7816 24.1601V24.1831H14.9146L14.8918 24.2155C15.0717 24.16 15.2628 24.152 15.4467 24.1923V24.0956C15.8091 24.2107 15.9467 24.0173 16.277 24.1509V24.1738C16.6989 23.9389 16.9327 24.3583 17.373 24.1372C17.318 24.1648 17.373 24.1832 17.373 24.2062C17.5748 24.2062 17.7858 24.1786 17.7949 23.9943C17.9371 23.9943 17.9096 24.0541 17.928 24.1232C17.928 24.0449 18.0564 24.0128 18.1665 24.0128L18.1161 24.0402H18.4417L18.3822 23.8884C18.5519 23.9345 18.4188 24.0725 18.5839 24.0402V23.9161C18.8179 23.9483 18.9554 24.1417 19.1801 24.2384C20.1342 24.3167 21.1708 24.0219 22.056 24.2661L22.0927 24.3628C22.0927 24.501 22.3449 24.1647 22.3724 24.2937L22.4779 24.2292C22.51 24.2568 22.5697 24.2845 22.5146 24.3122C22.611 24.3122 22.6156 24.3122 22.6844 24.2616L22.7854 24.3491C23.1615 24.4228 23.487 24.2661 23.8815 24.3122C24.3401 24.4965 25.2575 24.3581 25.7804 24.2798C26.5097 24.0909 27.3445 24.6623 28.0737 24.4458C28.1013 24.4458 28.1656 24.4226 28.1656 24.4042L28.8444 24.4411C28.8444 24.4411 32.1514 24.5792 29.6654 23.3676V23.3402C29.5256 23.2883 29.3767 23.2651 29.2278 23.2723C29.0789 23.2794 28.9328 23.3165 28.7985 23.3816C28.7618 23.1927 28.4911 23.354 28.4086 23.2941C28.1792 23.4323 27.9499 23.1651 27.7206 23.2941C27.7206 23.2941 27.7205 23.225 27.7893 23.225C27.6288 23.225 27.4088 23.2803 27.3996 23.1697C27.0069 23.13 26.6102 23.1724 26.2346 23.2941V23.2617C26.0924 23.3769 26.0556 23.2619 25.8951 23.331V23.3033C25.7437 23.4139 25.4364 23.3031 25.3309 23.3584V23.2849H25.0281H25.1428C25.0969 23.483 24.9181 23.1559 24.6841 23.2849C24.4823 23.2572 24.2577 23.6856 24.0467 23.5843C23.9458 23.6718 24.1429 23.4368 23.987 23.5013C23.987 23.3999 24.0604 23.4413 24.0237 23.3584C23.8723 23.4045 23.7806 23.248 23.5926 23.3125V23.2295C23.3495 23.3723 23.134 23.1144 22.978 23.2295C22.7303 23.2894 22.822 22.9899 22.5606 23.1373L22.4598 23.0269C22.3497 23.0269 22.377 23.1604 22.2578 23.1051C22.2578 23.036 22.102 23.0452 22.1754 22.9807C21.9047 22.8702 21.6112 23.119 21.258 22.9301C21.1755 23.0591 20.992 22.9761 20.9324 23.0775C20.9324 23.0176 20.5608 23.0774 20.7718 22.9346C20.7718 22.9346 20.8223 22.9346 20.8177 22.9346L20.8453 22.8563C20.6389 22.6997 20.4644 22.9254 20.258 22.8977C20.3223 22.9254 20.4002 22.921 20.3452 22.9762H20.1573L20.1985 22.9117L19.914 22.8656L19.9508 22.9486C19.8132 22.9025 19.7673 22.7642 19.6068 22.8748C19.5334 22.9393 19.7352 22.9899 19.6068 23.0129C19.3782 22.9324 19.1436 22.8708 18.9051 22.8287C18.928 22.9208 18.8637 22.9162 18.7949 22.9346V22.8563C18.5381 22.9577 18.7079 22.6767 18.4556 22.7596L18.4785 22.7043L18.405 22.8703C18.1757 23.0223 18.2903 22.6998 18.0335 22.9117C18.1344 22.9117 18.0748 23.0867 17.9555 23.0498L17.9878 22.9715C17.919 22.9715 17.8959 23.0175 17.85 23.0037C17.8913 22.9622 17.85 22.8886 17.7766 22.9025L17.8456 22.8057L17.653 22.9438C17.5108 22.8563 17.2766 22.944 17.2216 22.8426C17.2216 22.8426 16.9098 22.7827 16.8364 22.9025C16.9006 22.8288 16.7264 22.7965 16.7768 22.709C16.6943 22.7919 16.4558 22.8565 16.3641 22.7643C16.0109 22.663 15.754 22.8703 15.4467 22.7643C15.4467 22.8565 15.2954 22.8011 15.3321 22.9209C15.0018 23.0315 14.7402 22.6629 14.6118 23.0269C14.4605 23.0269 14.4376 22.9392 14.3596 22.9162H14.3964C14.2072 22.9339 14.0167 22.9339 13.8275 22.9162C13.722 22.9484 13.6992 23.119 13.5158 23.073C13.58 23.0039 13.5157 23.0175 13.4331 23.0129C13.479 23.0129 13.4928 22.9808 13.4011 22.9301C13.3891 22.9501 13.3714 22.9661 13.3505 22.9762C13.2358 22.9993 13.2542 23.0221 13.3093 23.0314C13.3643 23.0406 13.3093 23.0545 13.3093 23.073C13.1946 22.9808 12.9744 23.0728 12.9653 22.9531C12.6121 22.9531 12.3597 23.0867 12.0708 23.1236C12.0387 23.0637 12.1075 23.013 12.1946 22.99H11.9837C11.9837 22.9024 12.1076 22.9438 12.1718 22.9254C11.9287 22.7826 11.658 23.0544 11.3736 22.9254L11.314 22.9947C11.314 23.0315 11.2498 23.0822 11.2085 23.0914C11.1673 23.0131 11.2086 22.9162 11.071 22.9162C10.961 22.8425 10.75 22.9486 10.6124 22.9855C10.6903 22.9855 10.6628 23.0407 10.6124 23.0637C10.5619 23.0868 10.4976 22.9899 10.4426 23.0221V22.9209C10.4701 23.013 10.2545 23.0176 10.2269 23.059C10.1902 22.9807 10.3416 22.9946 10.36 22.9394H9.92884C9.77748 23.0131 9.95632 23.036 9.88293 23.1236C9.74533 23.1236 9.61235 23.2065 9.46099 23.1236L9.5069 23.2158C9.41352 23.2492 9.31413 23.2622 9.21531 23.2543C9.11649 23.2463 9.02047 23.2176 8.93357 23.1697C7.0301 23.8561 8.51163 24.1601 8.51163 24.1601C9.25467 24.3306 9.64449 24.0772 10.5297 24.0357Z" fill="#084242"/>
<path d="M2.2002 34.8249V35.0047C2.2002 35.0047 2.20937 34.9539 2.2002 34.8249Z" fill="#084242"/>
<path d="M2.92954 42.0254L2.92498 42.0162L2.89746 41.9794L2.92954 42.0254Z" fill="#084242"/>
<path d="M0.847337 32.7103C0.897791 33.9588 0.934421 34.7556 1.01239 35.5572C1.10211 36.5368 1.29113 37.5047 1.57655 38.4457C1.73577 39.0695 1.92714 39.6846 2.14988 40.2885C2.40673 40.8874 2.63145 41.4909 2.925 42.0345C3.27818 42.4952 3.67269 43.4719 4.13595 43.9971L4.22307 44.2596C4.40678 44.4386 4.56153 44.6454 4.68173 44.8724H4.65419C4.89728 45.1349 5.14948 45.4527 5.27791 45.5771H5.25059L5.53479 45.9089L5.46156 45.872C5.67713 46.0977 5.9201 46.3051 6.13567 46.5216C6.35125 46.7382 6.5624 46.9594 6.75962 47.1621L6.78247 47.0653C7.11639 47.3994 7.47511 47.7074 7.85568 47.9867C8.23242 48.217 8.59136 48.4756 8.92911 48.7605H8.90156C9.44805 48.9874 9.96906 49.2715 10.4563 49.6081C10.9701 49.9226 11.5285 50.1572 12.1122 50.3038C11.9379 50.2716 12.1672 50.373 12.1443 50.3868C12.768 50.5665 13.424 50.7691 13.4882 50.594C13.9469 50.746 13.8322 50.76 13.8734 50.8475C13.8734 50.7692 14.2908 50.8475 14.6486 50.9074H14.4788L15.4924 51.1238L15.3274 50.9258C15.8503 51.0917 15.4236 51.1424 15.9511 51.193V51.0686C16.6942 51.1976 17.107 51.4925 17.8317 51.6445C20.8956 51.9946 24.198 51.543 27.005 50.875L27.1564 50.9211C27.2573 51.0316 27.8444 50.4605 27.9911 50.5434C28.0923 50.4874 28.1903 50.4259 28.2847 50.3592C28.3811 50.3592 28.5738 50.2808 28.4317 50.3821C28.5992 50.3109 28.754 50.2129 28.8903 50.0919L29.2296 50.0274C29.511 49.9125 29.78 49.7691 30.0323 49.5991C30.28 49.4379 30.523 49.2765 30.7615 49.106L31.445 48.5302C31.6835 48.3459 31.9037 48.1339 32.1514 47.9082C32.3073 47.7884 32.477 47.6503 32.6604 47.4936C32.8347 47.337 32.9953 47.1435 33.1742 46.9454C33.5473 46.5272 33.8833 46.0771 34.1787 45.6003C34.7243 44.7003 35.1615 43.7383 35.4812 42.7347C35.8252 41.6014 36.2336 40.4037 36.5363 39.1552C36.8692 37.9393 37.0146 36.6793 36.9674 35.4191C36.9803 35.3242 36.9691 35.2276 36.9351 35.1382C36.9351 34.4103 36.9351 33.6778 36.9351 32.9499C36.9351 32.9499 36.9353 32.2865 36.8252 31.425C36.7339 30.5081 36.5806 29.5984 36.3665 28.7023C36.1647 27.9053 35.9308 27.3664 35.8115 27.5369C35.6923 27.7073 35.6922 28.5688 35.651 30.5405L35.6142 30.4944C35.6252 31.3916 35.7174 32.2859 35.8895 33.1663C35.7106 33.2999 35.8894 34.12 35.8344 34.3918V34.3641C35.9766 35.0736 35.6924 35.8107 35.7703 36.4925C35.7703 36.4649 35.706 36.4465 35.7197 36.2899C35.6968 36.7828 35.6831 37.4599 35.5638 37.483C35.4859 38.6577 35.0822 40.2471 35.0225 40.9934V40.9381C34.9808 41.2808 34.9007 41.6177 34.784 41.9425C34.7611 41.9425 34.7429 41.9885 34.7383 41.9839C34.6796 42.2801 34.5887 42.569 34.4676 42.8454C34.3384 43.0903 34.2235 43.3426 34.1236 43.601H34.0456C33.9187 43.8797 33.7779 44.1519 33.6237 44.4164L33.8071 44.126C33.8622 44.2227 33.7475 44.3609 33.5961 44.5498C33.5136 44.6465 33.4311 44.7573 33.344 44.8771C33.2437 45.0014 33.1588 45.1375 33.0916 45.2824C32.7384 45.7846 32.6328 46.5446 32.11 46.9776C31.9494 47.2586 32.2063 46.683 31.9173 47.0561C31.8302 46.9916 32.0274 46.858 31.8806 46.8856C31.7449 47.0378 31.5908 47.1725 31.422 47.2864C31.2368 47.4307 31.0594 47.5845 30.89 47.7471L30.8213 47.6963C30.594 47.9513 30.3219 48.1621 30.0186 48.3183C29.7586 48.43 29.5196 48.5858 29.3123 48.7789C29.1498 48.923 28.9417 49.0046 28.725 49.0093C28.5038 49.0334 28.2962 49.1287 28.1333 49.281L27.8169 49.3134C27.505 49.4148 27.6426 49.5161 27.2803 49.5944C27.2803 49.5207 26.8216 49.7003 27.005 49.5667C26.7989 49.6126 26.5966 49.6742 26.3997 49.7509C26.1933 49.8062 25.9869 49.8755 25.7668 49.9446C25.5466 50.0137 25.3081 50.0827 25.0788 50.1426C24.8199 50.1882 24.5573 50.2099 24.2945 50.2071C24.0743 50.373 23.5146 50.3821 23.3449 50.5065C23.3082 50.4512 22.2257 50.5757 22.8403 50.4053C22.8953 50.4053 22.9871 50.4053 22.9825 50.4053L23.0513 50.3223C22.4091 50.2071 21.9184 50.5065 21.2809 50.4788C21.4689 50.5065 21.7168 50.5018 21.5516 50.5571H20.9691L21.0883 50.4928L20.2169 50.4512L20.336 50.5342C19.993 50.4384 19.636 50.404 19.2812 50.4327C19.061 50.4834 19.6801 50.5756 19.2261 50.5663L18.2171 50.3961L17.653 50.3083L17.1025 50.1932C17.1529 50.2991 16.9603 50.2624 16.7585 50.2532V50.1702C15.9787 50.1702 16.5062 49.9583 15.7448 49.9214L15.8183 49.88L15.5934 49.9997C14.8871 49.9997 15.2724 49.7511 14.4743 49.7833C14.7725 49.8432 14.5706 49.9906 14.2174 49.8708L14.3276 49.8155C14.1886 49.8118 14.0509 49.7869 13.9194 49.7417C14.0478 49.7417 14.011 49.6497 13.722 49.5714L13.9422 49.539L13.3597 49.4976C13.1314 49.3855 12.8936 49.2946 12.6488 49.2259C12.4646 49.181 12.2943 49.0907 12.1534 48.9632C11.8086 48.7811 11.4417 48.6448 11.0619 48.5578C11.2637 48.5809 10.8233 48.3044 10.9884 48.2998C10.5819 48.1999 10.2016 48.0129 9.87377 47.7516H9.92438C9.55144 47.4601 9.15728 47.1968 8.74546 46.9639C8.3776 46.7104 8.03381 46.4237 7.71817 46.1071C7.68606 46.2084 7.36958 45.8121 7.37416 45.9872C6.56232 45.3791 6.3467 44.4946 5.8284 44.4486C5.66979 44.2403 5.54727 44.0067 5.46604 43.7575L5.54397 43.8358C5.19251 43.3812 4.88533 42.8936 4.62664 42.38C4.434 42.1266 4.269 42.1543 4.05801 41.6199C4.19561 41.7581 4.08547 41.5509 3.99373 41.3574C4.06253 41.4772 4.09925 41.5048 4.02128 41.233C3.97904 41.1968 3.94189 41.155 3.91109 41.1086C3.75056 40.7907 3.75986 40.8552 3.81031 41.0119C3.81031 41.0119 3.81031 41.0117 3.81031 41.0854C3.75527 40.7031 3.42049 40.1228 3.51222 40.0399C3.31958 39.5424 3.14991 39.1184 2.97562 38.7037C2.80132 38.2891 2.6727 37.8976 2.54427 37.4645C2.58555 37.3494 2.67281 37.5474 2.76913 37.7916C2.70033 37.5889 2.65452 37.3817 2.60407 37.1743C2.69122 37.1743 2.71858 37.5245 2.79197 37.7088C2.75069 36.9441 2.3333 36.2069 2.3333 35.3039L2.237 35.1289V35.0736C2.20031 35.0736 2.13149 34.8892 2.10397 34.7603C2.1636 34.622 2.27368 34.7603 2.21864 34.2996C2.19587 33.8155 2.13 33.3346 2.02155 32.8624C2.02155 33.1066 1.98031 33.0327 1.94362 32.9267C1.94362 32.7056 2.00324 32.5722 1.94362 32.4017L2.0444 32.3786C1.95266 32.4707 1.91133 31.8027 1.87464 31.7244C1.94344 31.5954 1.94804 32.0654 2.00767 32.116C1.97097 31.2315 2.00763 31.6553 1.97094 30.7846C1.90214 30.3239 1.87466 30.8721 1.78752 30.6418C1.73961 30.2054 1.73961 29.7653 1.78752 29.329L1.69121 29.4763C1.6412 28.8744 1.69387 28.2683 1.84709 27.6842C1.80122 26.1962 1.80135 25.3578 1.74631 24.9201C1.69127 24.4825 1.59502 24.5101 1.47577 24.699C1.32426 25.0017 1.21016 25.3219 1.13624 25.6525C1.04451 26.0026 0.989551 26.2977 0.989551 26.2977C0.774296 27.3009 0.675724 28.3258 0.695941 29.3519C0.682181 30.2733 0.732671 31.296 0.847337 32.7103Z" fill="#084242"/>
<path d="M27.4821 34.2169L27.4409 34.2446C27.45 34.246 27.4593 34.2438 27.4669 34.2387C27.4745 34.2336 27.4799 34.2259 27.4821 34.2169Z" fill="#084242"/>
<path d="M26.1112 35.1522L26.1064 35.1428L26.1112 35.1522Z" fill="#084242"/>
<path d="M26.3356 33.839C26.2806 34.1891 26.0973 34.2676 26.1385 34.6315C26.1155 34.804 26.1063 34.978 26.111 35.152C26.2348 35.2534 26.0834 35.3732 26.1706 35.4838H26.0835C26.1156 35.5253 26.1339 35.5667 26.0835 35.5898C26.1293 35.6496 26.0834 35.6957 26.1063 35.7234H26.0835V35.7832H26.0559C26.0776 35.8219 26.0891 35.8655 26.0891 35.9098C26.0891 35.9542 26.0776 35.9978 26.0559 36.0365H26.1475C25.9961 36.1609 26.1477 36.276 25.9963 36.382C26.166 36.6446 25.7532 36.6079 25.8908 36.8659C25.8908 36.8336 25.8402 36.8659 25.8219 36.8659C25.8219 36.958 25.7853 37.0502 25.9504 37.1239C25.9229 37.1838 25.8769 37.1515 25.8127 37.1239C25.8404 37.1352 25.8627 37.1568 25.8747 37.1844C25.8867 37.2119 25.8875 37.2431 25.877 37.2712V37.239L25.8402 37.3864L25.9872 37.4233C25.9183 37.4785 25.8128 37.3633 25.8174 37.4462L25.9321 37.5015C25.8541 37.5891 25.6523 37.5568 25.5193 37.5983C25.4142 37.7901 25.3252 37.9906 25.2532 38.1973C25.1821 38.4041 25.0364 38.5766 24.845 38.6809L24.7625 38.6303C24.6571 38.5474 24.8405 38.8421 24.735 38.7684V38.8422C24.7075 38.8422 24.6707 38.8421 24.6615 38.8006C24.6524 38.7591 24.6615 38.8421 24.6615 38.8928L24.5697 38.8652C24.4046 38.9389 24.4231 39.1553 24.2763 39.2613C24.0011 39.2613 23.7901 39.6206 23.6571 39.8464C23.492 40.2149 22.8726 39.9063 22.7075 40.2841C22.7075 40.2841 22.6846 40.3256 22.7075 40.3394L22.4141 40.4407C22.217 40.5121 22.0383 40.627 21.8912 40.7769C21.726 40.9843 21.6848 41.2929 22.4737 41.5924V41.6248C22.6755 41.6248 22.7993 41.5878 22.8589 41.3989C22.9552 41.5602 23.0148 41.3575 23.079 41.3989C23.1249 41.2331 23.3452 41.3989 23.391 41.2284C23.391 41.2284 23.414 41.2931 23.391 41.3069C23.4552 41.247 23.5332 41.1548 23.5928 41.2424C23.7533 41.1226 24.024 41.0211 24.0515 40.8138V40.8415C24.0515 40.7079 24.1294 40.7862 24.157 40.6894H24.18C24.18 40.5466 24.3542 40.5374 24.3771 40.4591L24.4185 40.5144L24.5332 40.4038L24.4781 40.4269C24.3772 40.2565 24.6478 40.4546 24.6615 40.2841C24.7624 40.2334 24.5652 39.8233 24.7119 39.8464C24.7119 39.745 24.7761 39.9847 24.7899 39.888C24.8587 39.9617 24.7899 39.957 24.8725 40.0076C24.9 39.9201 25.0331 40.0077 25.0515 39.8787L25.111 39.9339C25.111 39.7404 25.3496 39.8418 25.3083 39.6806C25.3496 39.547 25.5421 39.7867 25.5238 39.5793L25.6384 39.616C25.6935 39.5838 25.5696 39.4963 25.6384 39.4871C25.7072 39.4779 25.7394 39.4641 25.7623 39.5332C25.9412 39.4872 25.8265 39.2014 26.0879 39.1553C26.0054 39.0448 26.1293 39.0126 26.0651 38.9297C26.1155 38.9574 26.189 38.7777 26.2257 38.9297C26.2257 38.9297 26.2256 38.9574 26.1981 38.9297L26.2577 38.985C26.4457 38.985 26.3128 38.7731 26.3907 38.6994C26.354 38.6994 26.3311 38.75 26.3036 38.6994C26.3287 38.6766 26.3504 38.6502 26.3679 38.6211L26.4136 38.6762L26.5238 38.561L26.4411 38.5381C26.5145 38.4966 26.6477 38.5381 26.588 38.4137C26.5284 38.2893 26.4595 38.4137 26.4778 38.3354C26.5991 38.2727 26.7092 38.1901 26.8035 38.0911C26.7163 38.0589 26.7392 38.0314 26.7392 37.9899L26.8127 38.0221C26.776 37.8562 26.9962 38.0635 26.9732 37.8977L27.0192 37.9346L26.8814 37.8286C26.7897 37.6489 27.0603 37.8286 26.9181 37.6259C26.9181 37.6812 26.7484 37.5753 26.8035 37.5292L26.8678 37.5798C26.8678 37.5384 26.8402 37.5154 26.8678 37.5015C26.8953 37.4877 26.9641 37.5568 26.9732 37.5015L27.0467 37.5753L26.9549 37.4233C27.065 37.3864 27.0144 37.2344 27.1291 37.2483C27.1291 37.2483 27.2484 37.1147 27.1291 37.0364C27.1887 37.0916 27.2393 37.0363 27.3172 37.0685C27.2484 36.9994 27.2255 36.8566 27.3172 36.8382C27.4594 36.6862 27.2942 36.4927 27.4548 36.3775C27.363 36.3775 27.4318 36.29 27.3125 36.2808C27.2392 36.0873 27.6154 36.032 27.276 35.8892C27.276 35.8108 27.3768 35.8201 27.4044 35.7832C27.4039 35.6834 27.4177 35.5841 27.4456 35.4883C27.418 35.4284 27.2483 35.3916 27.3034 35.3041C27.3676 35.3455 27.363 35.3042 27.3676 35.2719C27.3722 35.2397 27.3952 35.3088 27.4503 35.2719C27.434 35.2648 27.4197 35.2536 27.4088 35.2395C27.4088 35.1796 27.3676 35.1842 27.3584 35.2118H27.3125C27.4089 35.1658 27.3127 35.0416 27.4503 35.0508C27.4224 34.8924 27.3761 34.7378 27.3125 34.5901C27.3391 34.5861 27.3663 34.5911 27.3896 34.6045C27.4129 34.6179 27.4311 34.6387 27.4411 34.6637V34.5577C27.5282 34.5577 27.4869 34.6222 27.5007 34.6544C27.6474 34.5439 27.3859 34.3873 27.5235 34.2491L27.4595 34.2169C27.4406 34.2147 27.4225 34.208 27.4066 34.1976C27.3907 34.1872 27.3773 34.1735 27.3676 34.1571C27.441 34.1571 27.5374 34.157 27.5374 34.0925C27.6108 34.0419 27.5052 33.9313 27.4639 33.853C27.4639 33.8944 27.4089 33.8806 27.386 33.853C27.3631 33.8253 27.4593 33.7976 27.4272 33.77H27.5282C27.4319 33.77 27.4273 33.6732 27.386 33.664C27.464 33.641 27.4503 33.7194 27.5054 33.7286C27.5054 33.5812 27.5054 33.6549 27.5054 33.5075C27.4274 33.4337 27.4089 33.5075 27.3217 33.5075C27.2346 33.5075 27.2256 33.3785 27.2852 33.2956L27.1979 33.3232C27.1787 33.3047 27.1635 33.2825 27.1531 33.258C27.1427 33.2335 27.1374 33.2071 27.1374 33.1804C27.1374 33.1537 27.1427 33.1273 27.1531 33.1028C27.1635 33.0782 27.1787 33.056 27.1979 33.0375C26.7988 32.5769 26.5328 32.6228 26.386 32.7058C26.3394 32.7288 26.2979 32.7611 26.264 32.8007C26.2301 32.8403 26.2046 32.8863 26.1889 32.9361C26.0009 33.2816 26.2714 33.4336 26.3356 33.839Z" fill="white"/>
<path d="M20.1573 53.0818L20.1206 53.1187C20.1303 53.1187 20.1397 53.1148 20.1466 53.1079C20.1535 53.101 20.1573 53.0915 20.1573 53.0818Z" fill="#084242"/>
<path d="M18.9878 52.6765C18.9557 53.1602 18.7861 53.2939 18.8687 53.7868C18.8714 54.0277 18.8927 54.268 18.9327 54.5055C19.0703 54.616 18.9328 54.8141 19.0613 54.9385L18.9833 54.9938C19.0246 55.0353 19.0522 55.0859 19.0109 55.1319C19.0705 55.1964 19.0382 55.2747 19.0658 55.307H19.0429V55.39H19.0109C19.0694 55.4934 19.0857 55.6154 19.0566 55.7307H19.1484C19.0521 55.9611 19.2447 56.0395 19.1484 56.2468H19.1255C19.3778 56.5001 18.9649 56.6615 19.208 56.9241C19.1759 56.8918 19.1621 56.9241 19.1392 56.9241C19.1667 57.0439 19.1851 57.1775 19.3685 57.1729C19.3685 57.2604 19.3136 57.2465 19.2402 57.2604C19.3228 57.2604 19.3595 57.3341 19.3641 57.4032L19.3318 57.3755L19.3641 57.5735L19.5152 57.5276C19.474 57.6382 19.3318 57.5599 19.3685 57.6612H19.4969C19.4739 57.8086 19.2859 57.9007 19.1988 58.0481C19.1621 58.6378 19.497 59.2644 19.2906 59.8218L19.1988 59.8495C19.0612 59.8495 19.4051 59.9967 19.2767 60.0197L19.341 60.0798C19.3181 60.0798 19.2952 60.1395 19.2631 60.1072C19.2631 60.1671 19.263 60.1672 19.3226 60.2087L19.2402 60.2733C19.1806 60.5082 19.3502 60.7062 19.3226 60.9503C19.1575 61.2498 19.3227 61.8026 19.4328 62.1205C19.6484 62.5812 19.1164 63.1018 19.3641 63.5579C19.3641 63.5579 19.3869 63.6085 19.4053 63.6085V64.0323C19.4053 64.0323 19.4052 66.0777 20.506 64.493H20.5381C20.6023 64.258 20.6161 64.1154 20.4601 63.9587C20.6436 63.9311 20.4602 63.7697 20.5336 63.7144C20.3868 63.5762 20.6437 63.4196 20.5336 63.2906C20.5336 63.2906 20.5977 63.2907 20.6023 63.3275C20.5748 63.2262 20.529 63.0925 20.6391 63.0832C20.6024 62.8483 20.639 62.5167 20.4693 62.3693H20.4968C20.3822 62.2864 20.4969 62.2587 20.4189 62.1666C20.4189 62.1666 20.4189 62.1666 20.4465 62.1666C20.3272 62.0745 20.419 61.8948 20.3685 61.8211H20.4418L20.4189 61.6369V61.7059C20.2217 61.7059 20.5382 61.5585 20.4189 61.4295C20.4418 61.3005 20.006 61.1807 20.0978 61.0471C20.006 60.9872 20.2493 61.0978 20.1759 61.0057C20.2768 61.0057 20.24 61.0471 20.3226 61.0057C20.2722 60.9135 20.4235 60.849 20.3502 60.7384H20.4326C20.2812 60.5956 20.5291 60.4575 20.3869 60.3608C20.3181 60.2133 20.6207 60.2547 20.4601 60.098L20.5656 60.0337C20.5656 59.9646 20.4327 59.9876 20.4832 59.9093C20.552 59.9093 20.5335 59.8124 20.6023 59.8585C20.7032 59.6834 20.4418 59.5129 20.6023 59.2826C20.4693 59.2365 20.5427 59.1214 20.4418 59.0892C20.5014 59.0892 20.4418 58.8588 20.5748 58.9832V59.0156H20.6527C20.7995 58.8866 20.5656 58.7851 20.584 58.6561C20.561 58.6976 20.584 58.7482 20.5152 58.716V58.5871L20.584 58.61L20.6162 58.4305L20.5381 58.4582C20.5747 58.3707 20.7171 58.3383 20.5979 58.2416C20.4786 58.1448 20.4876 58.3291 20.4601 58.2416C20.5297 58.1031 20.5806 57.9558 20.6115 57.8038C20.5198 57.8038 20.5245 57.781 20.5015 57.7395H20.584C20.4693 57.5829 20.7583 57.6749 20.6666 57.5229H20.7217L20.5519 57.486C20.3914 57.3478 20.717 57.4031 20.4968 57.2556C20.4968 57.3155 20.3225 57.288 20.3546 57.2143H20.4326C20.4326 57.1728 20.3823 57.1589 20.3961 57.1312C20.4098 57.1036 20.5106 57.1313 20.4968 57.0806L20.5931 57.122L20.4465 57.0069C20.529 56.9147 20.4188 56.7766 20.5289 56.7351C20.5289 56.7351 20.5749 56.5417 20.4556 56.5003C20.529 56.5371 20.5564 56.431 20.6435 56.4587C20.561 56.4126 20.4876 56.2653 20.5748 56.2054C20.6619 55.9843 20.4417 55.8367 20.5472 55.634C20.4555 55.634 20.5014 55.542 20.3822 55.5697C20.2629 55.3716 20.6162 55.1965 20.2447 55.109C20.2447 55.0169 20.3317 54.9938 20.3455 54.9477L20.3685 54.9707C20.3381 54.855 20.3257 54.7354 20.3318 54.6159C20.2951 54.556 20.1253 54.5469 20.162 54.4317C20.2308 54.4686 20.2171 54.4316 20.2171 54.3764C20.2171 54.404 20.2538 54.4132 20.2951 54.3764C20.2796 54.368 20.2658 54.3571 20.2539 54.3442C20.2309 54.2705 20.2079 54.2843 20.1988 54.3165H20.1575C20.2447 54.2382 20.1575 54.1092 20.263 54.0954C20.2077 53.9093 20.1386 53.7276 20.0565 53.5517C20.0839 53.5429 20.1137 53.5453 20.1394 53.5582C20.1651 53.5712 20.1846 53.5937 20.1941 53.621L20.1667 53.4966C20.2539 53.4966 20.2216 53.5656 20.24 53.6071C20.373 53.4504 20.0886 53.2985 20.2124 53.1142L20.1437 53.0818C20.1235 53.0799 20.104 53.0737 20.0866 53.0634C20.0691 53.053 20.0543 53.0388 20.0429 53.022C20.1163 52.9943 20.2171 53.0221 20.2079 52.93C20.2813 52.8563 20.1666 52.7318 20.1253 52.6443C20.1253 52.6904 20.0704 52.6765 20.0429 52.6443C20.0154 52.6121 20.1162 52.5706 20.0841 52.5384H20.1849C20.0886 52.5614 20.0795 52.4278 20.0382 52.414C20.1116 52.3863 20.1025 52.4783 20.1575 52.4875C20.1575 52.3125 20.1575 52.4001 20.1575 52.225C20.0796 52.1329 20.0612 52.2251 19.9694 52.2021C19.9694 52.1191 19.8778 52.0408 19.9374 51.9441L19.8456 51.9762C19.8061 51.9247 19.7847 51.8615 19.7847 51.7965C19.7847 51.7315 19.8061 51.6685 19.8456 51.617C19.0842 50.4745 18.8411 51.4004 18.8411 51.4004C18.6347 51.9071 18.9053 52.1375 18.9878 52.6765Z" fill="#084242"/>
<path d="M13.1855 62.0329L13.369 62.0606C13.369 62.0606 13.3048 62.0329 13.1855 62.0329Z" fill="#084242"/>
<path d="M20.2401 63.2537H20.2309L20.1851 63.263L20.2401 63.2537Z" fill="#084242"/>
<path d="M11.0528 63.3505C12.2499 63.2629 13.0159 63.2815 13.8048 63.2861C14.5937 63.2907 15.3597 63.286 16.6119 63.2537H20.249C20.8086 63.134 21.7855 63.3045 22.446 63.2216L22.6984 63.3091C22.9367 63.2676 23.1802 63.2676 23.4184 63.3091V63.332C23.7624 63.2905 24.1385 63.332 24.3082 63.332V63.3552H24.7165L24.6478 63.3828C25.2242 63.3635 25.8011 63.3942 26.3722 63.4748L26.3402 63.3781C27.4685 63.5808 27.9042 63.4287 28.9133 63.6683C30.2342 63.5808 30.9267 64.0923 32.2706 64.1015C32.1009 64.1015 32.3303 64.1659 32.3166 64.1843C32.922 64.2672 33.5549 64.4055 33.6099 64.2304C34.0411 64.3364 33.9449 64.3734 33.9862 64.4563C33.9862 64.378 34.3851 64.4562 34.7154 64.5346H34.5548C34.8759 64.6175 35.1925 64.7096 35.4952 64.8155C35.4539 64.7464 35.4125 64.6726 35.3666 64.6081C35.8253 64.8338 35.4309 64.82 35.8988 64.9721L35.94 64.8569C36.2149 64.98 36.4617 65.1589 36.6647 65.3821C36.7494 65.4731 36.8232 65.5735 36.8849 65.6815C36.9216 65.7276 36.9445 65.783 36.9308 65.7922C36.933 65.8183 36.933 65.8444 36.9308 65.8705C36.9355 65.8917 36.9355 65.9138 36.9308 65.9351C36.9317 65.9822 36.9153 66.028 36.8849 66.0639C36.8689 66.0846 36.8503 66.1032 36.8298 66.1193C36.7826 66.1638 36.7303 66.2025 36.6739 66.2345C36.3998 66.4147 36.1095 66.569 35.8069 66.6951C35.1375 66.9608 34.451 67.1807 33.7521 67.3538C32.3792 67.7076 30.972 67.9099 29.5554 67.9573L29.4223 67.879C29.3581 67.75 28.6838 68.1554 28.5646 68.0356L28.2528 68.1278C28.1611 68.1278 27.9683 68.1001 28.1243 68.054C27.9486 68.059 27.7752 68.0934 27.6107 68.1555L27.2851 68.0909C26.1109 68.0909 25.12 68.3121 23.8816 68.3075C22.3909 68.1831 19.5932 68.3076 17.9695 68.3444C15.6762 68.4734 13.0755 67.7777 10.7684 67.7225C10.6798 67.6982 10.5864 67.6982 10.4978 67.7225C9.80065 67.6257 9.1217 67.5104 8.42912 67.363C8.42912 67.363 7.80529 67.2432 7.01639 67.0359C6.22388 66.8544 5.47145 66.5281 4.79651 66.0732C4.61506 65.9269 4.4691 65.7409 4.36987 65.5295C4.30565 65.3821 4.25523 65.2624 4.16808 65.3223C4.08093 65.3822 3.93419 65.6079 4.08096 66.1193C4.22773 66.6306 4.81487 67.2341 5.73221 67.7409H5.66793C6.51485 68.1686 7.44484 68.4045 8.39239 68.4319C8.48412 68.6438 9.35119 68.63 9.61722 68.7221H9.58967C10.3235 68.6899 11.0528 69.0445 11.7592 68.9846C11.7306 69.0077 11.6971 69.0239 11.6613 69.0318C11.6255 69.0398 11.5883 69.0395 11.5527 69.0307C12.0572 69.063 12.7499 69.0859 12.782 69.1965C13.9883 69.2748 15.667 69.4223 16.4513 69.2795L16.3962 69.3072C16.7495 69.268 17.1053 69.2573 17.4603 69.275C17.4832 69.275 17.52 69.2978 17.5109 69.3025C17.9971 69.2057 18.9096 69.3301 19.2949 69.3025L19.318 69.3717H20.2721L19.9189 69.3486C20.0427 69.1551 20.6388 69.4868 21.3314 69.3486C21.9781 69.3762 22.6433 68.9386 23.313 69.0215C23.6294 68.9248 23.033 69.1781 23.51 69.0998C23.51 69.2011 23.2854 69.169 23.4093 69.2473C23.8679 69.1875 24.1845 69.3395 24.7624 69.2473L24.7897 69.3256C25.542 69.1552 26.2254 69.3716 26.7207 69.2057C27.4959 69.0906 27.262 69.4084 28.0647 69.2057L28.3903 69.2887C28.7389 69.2887 28.6289 69.1367 29.0188 69.1551C29.0188 69.2242 29.5095 69.1552 29.2893 69.2473C30.1791 69.2473 31.0461 68.9063 32.2202 68.9063C32.4496 68.7313 33.0413 68.713 33.211 68.5748C33.2523 68.6347 34.3667 68.3443 33.7429 68.6069C33.6925 68.6069 33.5918 68.6438 33.5918 68.6069L33.532 68.7037C34.22 68.7037 34.7107 68.3627 35.3666 68.1969C35.1694 68.2291 34.9081 68.3074 35.0733 68.1969C35.2384 68.0863 35.4721 68.0911 35.6739 68.0266L35.5684 68.1325C35.8712 68.0496 36.1785 67.962 36.4858 67.8468L36.3299 67.8192C36.7491 67.776 37.1448 67.6039 37.4629 67.3263C37.651 67.119 36.9812 67.5105 37.4306 67.1788C37.5211 67.1297 37.6071 67.0726 37.6875 67.0083C37.7988 66.9197 37.9017 66.8212 37.9948 66.7136C38.193 66.4667 38.303 66.16 38.3068 65.8428C38.2764 65.4889 38.1388 65.1529 37.9124 64.8801C37.7481 64.6822 37.5584 64.507 37.3482 64.3593C37.3482 64.4837 37.1692 64.3363 36.9536 64.2442V64.1567C36.5316 63.9954 36.495 63.9356 36.4262 63.8573C36.3574 63.7789 36.3208 63.696 35.908 63.59L35.9998 63.5624L35.729 63.6409C34.9768 63.5533 35.3941 63.3459 34.5456 63.3275C34.8621 63.4012 34.6466 63.5349 34.2751 63.4013L34.3897 63.3505C34.2455 63.3398 34.1026 63.3153 33.9631 63.2769C34.0961 63.2769 34.0549 63.18 33.7385 63.1201L33.9723 63.0742H33.3486C32.9128 62.89 32.1698 62.8577 32.0001 62.7195C31.603 62.6195 31.1938 62.576 30.7847 62.5904C30.9911 62.5489 30.4543 62.4384 30.6194 62.3785C30.1775 62.4211 29.7318 62.3838 29.3032 62.268H29.3581C28.2527 62.0423 27.4409 62.1849 26.4502 61.9868C26.4869 62.0836 25.9641 61.9869 26.0833 62.1205C25.0422 62.1573 24.212 61.7473 23.8175 62.0928C23.5476 62.0798 23.2807 62.0303 23.0241 61.9455H23.134C22.2534 61.9455 21.9965 61.9455 21.3406 61.8948C21.0149 61.9179 20.9553 62.0837 20.3728 62.0285C20.5655 61.964 20.3223 61.9685 20.1068 61.9639C20.2444 61.9639 20.2902 61.9316 20.0013 61.8809C19.9501 61.9017 19.8958 61.9142 19.8407 61.9178C19.4738 61.9178 19.5382 61.9546 19.7079 61.9684C19.7079 61.9684 19.7077 61.9916 19.7628 62.01C19.3867 61.9133 18.7079 62.01 18.662 61.8764C17.5612 61.8764 16.7724 62.0146 15.8596 62.0699C15.7541 62.01 15.9696 61.9547 16.2356 61.927L15.5844 61.9592C15.5844 61.8717 15.9559 61.9041 16.1577 61.8856C15.378 61.752 14.5614 62.0514 13.6487 61.9639L13.4653 62.0377H13.4104C13.4104 62.0745 13.2131 62.1344 13.0801 62.1529C12.9471 62.0838 13.0801 61.9778 12.6214 62.01C12.1248 62.0129 11.6305 62.0762 11.1491 62.1987C11.4014 62.1987 11.3233 62.2357 11.2179 62.2725C11.0408 62.2579 10.8628 62.2579 10.6857 62.2725L10.6537 62.1711C10.75 62.254 10.0757 62.3369 9.99772 62.3922C9.86471 62.3323 10.3419 62.2864 10.3923 62.2219C9.475 62.3371 9.93367 62.277 9.01634 62.4106C8.55767 62.5627 9.11724 62.4937 8.90167 62.618C8.47209 62.7363 8.03543 62.827 7.59442 62.8898L7.76866 62.9451C7.18979 63.1395 6.59829 63.2934 5.99827 63.4058C5.45474 63.6498 4.96742 64.0044 4.56717 64.4471C4.46662 64.5483 4.38954 64.6704 4.3412 64.8049C4.29285 64.9395 4.27448 65.0831 4.28745 65.2256C4.32414 65.3592 4.37921 65.4926 4.42966 65.5018C4.48012 65.511 4.53049 65.4652 4.57636 65.3592C4.69392 65.2397 4.8213 65.1303 4.95708 65.0321C5.08419 64.9455 5.21763 64.8685 5.35618 64.8018C6.18571 64.4574 7.0396 64.1755 7.91088 63.9587C8.9414 63.6767 9.99173 63.4733 11.0528 63.3505Z" fill="#084242"/>
</svg>
