<svg width="78" height="77" viewBox="0 0 78 77" fill="none" xmlns="http://www.w3.org/2000/svg">
<path fill-rule="evenodd" clip-rule="evenodd" d="M59.1523 0C70.2812 0 77.5 7.21875 77.5 18.3477V58.6523C77.5 69.7812 70.2812 77 59.1523 77H18.8477C7.71875 77 0.5 69.7812 0.5 58.6523V18.3477C0.5 7.21875 7.71875 0 18.8477 0H59.1523Z" fill="#F26C55"/>
<path d="M22.2122 12.996C17.5256 17.6911 17.5256 25.3035 22.2122 29.9987L30.6981 38.5L22.2122 47.0013C17.5256 51.6965 17.5256 59.3089 22.2122 64.004C26.8988 68.6992 34.4974 68.6992 39.184 64.004L64.6416 38.5L39.184 12.996C34.4974 8.30082 26.8988 8.30082 22.2122 12.996Z" fill="#F3EBE1"/>
</svg>
