<svg width="160" height="48" viewBox="0 0 160 48" fill="none" xmlns="http://www.w3.org/2000/svg">
<g clip-path="url(#clip0_63_2370)">
<rect x="0.5" width="159" height="48" rx="8" fill="black"/>
<path d="M80.7537 26.1C77.9859 26.1 75.7246 28.248 75.7246 31.2C75.7246 34.14 77.9859 36.3 80.7537 36.3C83.5215 36.3 85.7828 34.14 85.7828 31.2C85.7828 28.248 83.5215 26.1 80.7537 26.1ZM80.7537 34.296C79.2344 34.296 77.927 33.024 77.927 31.2C77.927 29.364 79.2344 28.104 80.7537 28.104C82.273 28.104 83.5804 29.364 83.5804 31.2C83.5804 33.024 82.2613 34.296 80.7537 34.296ZM69.7768 26.1C67.009 26.1 64.7477 28.248 64.7477 31.2C64.7477 34.14 67.009 36.3 69.7768 36.3C72.5446 36.3 74.8059 34.14 74.8059 31.2C74.8059 28.248 72.5446 26.1 69.7768 26.1ZM69.7768 34.296C68.2575 34.296 66.9502 33.024 66.9502 31.2C66.9502 29.364 68.2575 28.104 69.7768 28.104C71.2962 28.104 72.6035 29.364 72.6035 31.2C72.6035 33.024 71.2962 34.296 69.7768 34.296ZM56.7271 27.672V29.832H61.8151C61.6619 31.044 61.2615 31.944 60.6608 32.556C59.9188 33.312 58.7646 34.14 56.7388 34.14C53.6059 34.14 51.1562 31.572 51.1562 28.38C51.1562 25.188 53.6059 22.62 56.7388 22.62C58.423 22.62 59.6597 23.292 60.5666 24.168L62.0624 22.644C60.7904 21.408 59.1062 20.46 56.7271 20.46C52.4399 20.46 48.8359 24.012 48.8359 28.392C48.8359 32.76 52.4399 36.324 56.7271 36.324C59.0473 36.324 60.7904 35.556 62.1566 34.104C63.5582 32.676 63.9939 30.66 63.9939 29.04C63.9939 28.536 63.9586 28.068 63.8762 27.684H56.7271V27.672ZM110.092 29.352C109.68 28.212 108.408 26.1 105.805 26.1C103.226 26.1 101.082 28.164 101.082 31.2C101.082 34.056 103.202 36.3 106.052 36.3C108.349 36.3 109.68 34.872 110.222 34.044L108.514 32.88C107.949 33.732 107.171 34.296 106.052 34.296C104.934 34.296 104.133 33.768 103.626 32.748L110.328 29.928L110.092 29.352ZM103.261 31.056C103.202 29.088 104.757 28.08 105.876 28.08C106.747 28.08 107.489 28.524 107.737 29.16L103.261 31.056ZM97.8197 36H100.022V21H97.8197V36ZM94.2157 27.24H94.1333C93.6386 26.64 92.6964 26.1 91.4951 26.1C88.9864 26.1 86.6897 28.344 86.6897 31.224C86.6897 34.08 88.9864 36.312 91.4951 36.312C92.6846 36.312 93.6386 35.772 94.1333 35.148H94.2039V35.88C94.2039 37.836 93.1793 38.88 91.5304 38.88C90.1877 38.88 89.3515 37.896 89.0099 37.068L87.0902 37.884C87.6437 39.24 89.1042 40.896 91.5304 40.896C94.1097 40.896 96.2886 39.348 96.2886 35.58V26.412H94.2039V27.24H94.2157ZM91.6835 34.296C90.1642 34.296 88.8922 33 88.8922 31.224C88.8922 29.424 90.1642 28.116 91.6835 28.116C93.1793 28.116 94.3571 29.436 94.3571 31.224C94.3688 33 93.191 34.296 91.6835 34.296ZM120.409 21H115.145V36H117.347V30.312H120.421C122.859 30.312 125.25 28.512 125.25 25.656C125.25 22.8 122.836 21 120.409 21ZM120.457 28.224H117.335V23.076H120.457C122.105 23.076 123.036 24.468 123.036 25.644C123.036 26.82 122.105 28.224 120.457 28.224ZM134.048 26.076C132.458 26.076 130.809 26.796 130.126 28.368L132.081 29.196C132.493 28.368 133.271 28.092 134.083 28.092C135.214 28.092 136.38 28.788 136.392 30.024V30.18C135.991 29.952 135.144 29.604 134.095 29.604C131.987 29.604 129.855 30.78 129.855 32.976C129.855 34.98 131.575 36.276 133.506 36.276C134.979 36.276 135.803 35.604 136.309 34.812H136.38V35.976H138.5V30.228C138.512 27.564 136.557 26.076 134.048 26.076ZM133.777 34.296C133.059 34.296 132.058 33.924 132.058 33.024C132.058 31.872 133.306 31.428 134.39 31.428C135.355 31.428 135.815 31.644 136.392 31.932C136.227 33.312 135.049 34.296 133.777 34.296ZM146.238 26.4L143.718 32.904H143.647L141.032 26.4H138.665L142.587 35.496L140.349 40.548H142.646L148.688 26.4H146.238ZM126.451 36H128.654V21H126.451V36Z" fill="white"/>
<path d="M12.7959 9.04799C12.4544 9.41999 12.2542 9.99599 12.2542 10.728V37.272C12.2542 38.016 12.4544 38.592 12.7959 38.952L12.8784 39.036L27.471 24.18V24V23.82L12.8784 8.96399L12.7959 9.04799Z" fill="url(#paint0_linear_63_2370)"/>
<path d="M32.3354 29.136L27.4712 24.18V24V23.82L32.3354 18.864L32.4414 18.924L38.2007 22.26C39.8496 23.208 39.8496 24.768 38.2007 25.728L32.4414 29.064L32.3354 29.136Z" fill="url(#paint1_linear_63_2370)"/>
<path d="M32.4415 29.064L27.4713 24L12.7961 38.952C13.3379 39.54 14.233 39.612 15.2459 39.024L32.4415 29.064Z" fill="url(#paint2_linear_63_2370)"/>
<path d="M32.4413 18.936L15.234 8.97598C14.2211 8.38798 13.326 8.45999 12.7842 9.04799L27.4711 24L32.4413 18.936Z" fill="url(#paint3_linear_63_2370)"/>
<path opacity="0.2" d="M32.3352 28.9559L15.2339 38.8559C14.2799 39.4079 13.4201 39.3719 12.8783 38.8679L12.7959 38.9519L12.8783 39.0359C13.4319 39.5399 14.2799 39.5759 15.2339 39.0239L32.4412 29.0639L32.3352 28.9559Z" fill="black"/>
<path opacity="0.12" d="M12.7959 38.7839C12.4544 38.4119 12.2542 37.8359 12.2542 37.1039V37.2839C12.2542 38.0279 12.4544 38.6039 12.7959 38.9639L12.8784 38.8799L12.7959 38.7839Z" fill="black"/>
<path opacity="0.12" d="M38.2006 25.56L32.3235 28.956L32.4295 29.064L38.1888 25.728C39.0133 25.248 39.4255 24.624 39.4255 24C39.3666 24.564 38.9544 25.128 38.2006 25.56Z" fill="black"/>
<path opacity="0.25" d="M15.234 9.14295L38.2006 22.439C38.9426 22.871 39.3667 23.4229 39.4373 23.999C39.4373 23.3749 39.0251 22.7389 38.2006 22.2709L15.234 8.97495C13.5851 8.02695 12.2424 8.81895 12.2424 10.7389V10.9189C12.2424 8.98695 13.5969 8.19495 15.234 9.14295Z" fill="white"/>
<path d="M50.0964 17.124H49.2249V14.712H49.9197C50.5322 14.172 50.8266 13.26 50.8149 11.952V8.40002H55.5377V14.712H56.3269V17.124H55.4553V15.6H50.0964V17.124ZM51.7335 11.964C51.7453 13.104 51.5215 14.016 51.0622 14.724H54.6309V9.28802H51.7335V11.964Z" fill="white" stroke="white" stroke-width="0.2" stroke-miterlimit="10"/>
<path d="M63.4052 14.6641C62.7103 15.3961 61.8505 15.7561 60.8141 15.7561C59.7776 15.7561 58.9179 15.3961 58.223 14.6641C57.5281 13.9321 57.1865 13.0441 57.1865 12.0001C57.1865 10.9561 57.5281 10.0561 58.223 9.33614C58.9179 8.60414 59.7776 8.24414 60.8141 8.24414C61.8387 8.24414 62.6985 8.60414 63.4052 9.33614C64.1001 10.0681 64.4534 10.9561 64.4534 12.0001C64.4534 13.0561 64.1001 13.9441 63.4052 14.6641ZM58.8943 14.0641C59.4125 14.6041 60.0603 14.8681 60.8141 14.8681C61.5679 14.8681 62.2156 14.6041 62.7339 14.0641C63.2521 13.5241 63.523 12.8401 63.523 12.0001C63.523 11.1601 63.2639 10.4761 62.7339 9.93614C62.2156 9.39614 61.5679 9.13214 60.8141 9.13214C60.0603 9.13214 59.4125 9.39614 58.8943 9.93614C58.3761 10.4761 58.1052 11.1601 58.1052 12.0001C58.1052 12.8401 58.3761 13.5241 58.8943 14.0641Z" fill="white" stroke="white" stroke-width="0.2" stroke-miterlimit="10"/>
<path d="M69.0233 15.7561C67.9869 15.7561 67.1153 15.3961 66.4086 14.6761C65.702 13.9561 65.3486 13.0681 65.3486 11.9881C65.3486 10.9081 65.702 10.0201 66.4086 9.30009C67.1153 8.58009 67.9869 8.22009 69.0233 8.22009C70.0833 8.22009 70.9549 8.61609 71.6144 9.39609L70.9784 10.0201C70.4955 9.40809 69.8477 9.10809 69.0115 9.10809C68.246 9.10809 67.5864 9.37209 67.0564 9.90009C66.5264 10.4281 66.2673 11.1241 66.2673 11.9761C66.2673 12.8281 66.5264 13.5241 67.0564 14.0521C67.5864 14.5801 68.2342 14.8441 69.0115 14.8441C69.8595 14.8441 70.578 14.4961 71.1786 13.8001L71.8146 14.4481C71.4966 14.8441 71.0844 15.1561 70.6015 15.3841C70.1186 15.6481 69.5886 15.7561 69.0233 15.7561Z" fill="white" stroke="white" stroke-width="0.2" stroke-miterlimit="10"/>
<path d="M75.501 15.6H74.5941V9.28802H72.6155V8.40002H77.4679V9.28802H75.4893V15.6H75.501Z" fill="white" stroke="white" stroke-width="0.2" stroke-miterlimit="10"/>
<path d="M83.7101 8.40002L81.0365 14.472C80.6714 15.324 80.1179 15.756 79.3877 15.756C79.1757 15.756 78.9401 15.708 78.681 15.6L78.9165 14.748C79.0697 14.832 79.2228 14.88 79.3877 14.88C79.5997 14.88 79.7645 14.844 79.8823 14.76C80.0001 14.676 80.1061 14.52 80.2003 14.304L80.4594 13.728L78.0803 8.40002H79.1521L80.8952 12.528H80.9305L82.6383 8.40002H83.7101Z" fill="white" stroke="white" stroke-width="0.2" stroke-miterlimit="10"/>
<path d="M84.7349 15.6V8.40002H89.8464V15.6H88.9395V9.28802H85.6418V15.6H84.7349Z" fill="white" stroke="white" stroke-width="0.2" stroke-miterlimit="10"/>
<path d="M91.46 15.6V8.40002H92.3668V11.484H95.9002V8.40002H96.8071V15.6H95.9002V12.348H92.3668V15.6H91.46Z" fill="white" stroke="white" stroke-width="0.2" stroke-miterlimit="10"/>
<path d="M104.215 14.6641C103.52 15.3961 102.661 15.7561 101.624 15.7561C100.588 15.7561 99.7279 15.3961 99.033 14.6641C98.3381 13.9321 97.9966 13.0441 97.9966 12.0001C97.9966 10.9561 98.3381 10.0561 99.033 9.33614C99.7279 8.60414 100.588 8.24414 101.624 8.24414C102.649 8.24414 103.509 8.60414 104.215 9.33614C104.91 10.0681 105.263 10.9561 105.263 12.0001C105.252 13.0561 104.91 13.9441 104.215 14.6641ZM99.7044 14.0641C100.223 14.6041 100.87 14.8681 101.624 14.8681C102.378 14.8681 103.026 14.6041 103.544 14.0641C104.062 13.5241 104.333 12.8401 104.333 12.0001C104.333 11.1601 104.074 10.4761 103.544 9.93614C103.026 9.39614 102.378 9.13214 101.624 9.13214C100.87 9.13214 100.223 9.39614 99.7044 9.93614C99.1861 10.4761 98.9152 11.1601 98.9152 12.0001C98.9152 12.8401 99.1744 13.5241 99.7044 14.0641Z" fill="white" stroke="white" stroke-width="0.2" stroke-miterlimit="10"/>
<path d="M108.962 15.6V8.40002H111.517C112.071 8.40002 112.554 8.59202 112.954 8.95202C113.355 9.32402 113.567 9.79202 113.567 10.356C113.567 10.704 113.484 11.004 113.308 11.256C113.131 11.52 112.907 11.712 112.613 11.844V11.88C112.966 12 113.249 12.204 113.473 12.504C113.696 12.804 113.814 13.14 113.814 13.536C113.814 14.124 113.602 14.616 113.178 15C112.754 15.384 112.248 15.588 111.671 15.588H108.962V15.6ZM109.869 11.484H111.517C111.859 11.484 112.13 11.364 112.342 11.136C112.554 10.908 112.648 10.656 112.648 10.38C112.648 10.104 112.554 9.85202 112.342 9.62402C112.142 9.39602 111.883 9.27602 111.553 9.27602H109.869V11.484ZM109.869 14.712H111.694C112.047 14.712 112.33 14.592 112.542 14.34C112.754 14.088 112.872 13.824 112.872 13.524C112.872 13.224 112.766 12.96 112.53 12.72C112.307 12.48 112.012 12.348 111.647 12.348H109.857V14.712H109.869Z" fill="white" stroke="white" stroke-width="0.2" stroke-miterlimit="10"/>
</g>
<defs>
<linearGradient id="paint0_linear_63_2370" x1="26.1751" y1="10.4516" x2="6.03977" y2="30.2141" gradientUnits="userSpaceOnUse">
<stop stop-color="#00A0FF"/>
<stop offset="0.00657445" stop-color="#00A1FF"/>
<stop offset="0.2601" stop-color="#00BEFF"/>
<stop offset="0.5122" stop-color="#00D2FF"/>
<stop offset="0.7604" stop-color="#00DFFF"/>
<stop offset="1" stop-color="#00E3FF"/>
</linearGradient>
<linearGradient id="paint1_linear_63_2370" x1="40.3495" y1="24.0017" x2="11.8509" y2="24.0017" gradientUnits="userSpaceOnUse">
<stop stop-color="#FFE000"/>
<stop offset="0.4087" stop-color="#FFBD00"/>
<stop offset="0.7754" stop-color="#FFA500"/>
<stop offset="1" stop-color="#FF9C00"/>
</linearGradient>
<linearGradient id="paint2_linear_63_2370" x1="29.7408" y1="26.7553" x2="2.43564" y2="53.5549" gradientUnits="userSpaceOnUse">
<stop stop-color="#FF3A44"/>
<stop offset="1" stop-color="#C31162"/>
</linearGradient>
<linearGradient id="paint3_linear_63_2370" x1="9.09456" y1="0.211426" x2="21.2875" y2="12.1785" gradientUnits="userSpaceOnUse">
<stop stop-color="#32A071"/>
<stop offset="0.0685" stop-color="#2DA771"/>
<stop offset="0.4762" stop-color="#15CF74"/>
<stop offset="0.8009" stop-color="#06E775"/>
<stop offset="1" stop-color="#00F076"/>
</linearGradient>
<clipPath id="clip0_63_2370">
<rect width="159" height="48" fill="white" transform="translate(0.5)"/>
</clipPath>
</defs>
</svg>
