<svg width="144" height="48" viewBox="0 0 144 48" fill="none" xmlns="http://www.w3.org/2000/svg">
<rect width="144" height="48" rx="8" fill="black"/>
<path d="M29.8061 24.3608C29.8191 23.3592 30.0859 22.3771 30.5817 21.506C31.0775 20.6348 31.7862 19.9029 32.6419 19.3783C32.0983 18.6041 31.3812 17.967 30.5475 17.5175C29.7137 17.0681 28.7864 16.8187 27.8391 16.7891C25.8184 16.5776 23.8593 17.9949 22.8296 17.9949C21.7799 17.9949 20.1945 16.8101 18.4872 16.8451C17.3829 16.8807 16.3067 17.2009 15.3634 17.7746C14.4201 18.3483 13.6419 19.1558 13.1047 20.1186C10.7774 24.1367 12.5133 30.0419 14.7427 33.2899C15.8581 34.8803 17.1617 36.6568 18.8674 36.5938C20.5365 36.5248 21.1599 35.5325 23.1747 35.5325C25.1708 35.5325 25.7557 36.5938 27.496 36.5538C29.2871 36.5248 30.4156 34.9563 31.4918 33.3508C32.2933 32.2176 32.9099 30.9651 33.3191 29.6398C32.2785 29.2009 31.3905 28.4663 30.7658 27.5275C30.1411 26.5888 29.8073 25.4874 29.8061 24.3608Z" fill="white"/>
<path d="M26.5191 14.6531C27.4957 13.484 27.9768 11.9814 27.8603 10.4644C26.3683 10.6206 24.9901 11.3317 24.0004 12.4559C23.5165 13.0051 23.1458 13.644 22.9097 14.3361C22.6735 15.0283 22.5765 15.76 22.6241 16.4896C23.3703 16.4972 24.1086 16.3359 24.7833 16.0178C25.458 15.6997 26.0515 15.2331 26.5191 14.6531Z" fill="white"/>
<path d="M50.9052 32.5676H45.2092L43.8413 36.5953H41.4287L46.8239 21.6937H49.3305L54.7257 36.5953H52.2719L50.9052 32.5676ZM45.7991 30.709H50.3142L48.0884 24.1723H48.0261L45.7991 30.709Z" fill="white"/>
<path d="M66.3775 31.1637C66.3775 34.5399 64.5654 36.709 61.8308 36.709C61.1381 36.7452 60.4491 36.5861 59.8429 36.2499C59.2366 35.9137 58.7376 35.4141 58.4028 34.8082H58.3511V40.1895H56.1147V25.7309H58.2794V27.5379H58.3206C58.6707 26.935 59.1782 26.438 59.7891 26.0997C60.3999 25.7615 61.0913 25.5948 61.7897 25.6172C64.5548 25.6172 66.3775 27.7969 66.3775 31.1637ZM64.0789 31.1637C64.0789 28.9641 62.939 27.518 61.1997 27.518C59.491 27.518 58.3417 28.9946 58.3417 31.1637C58.3417 33.3528 59.491 34.8188 61.1997 34.8188C62.939 34.8188 64.0789 33.3833 64.0789 31.1637Z" fill="white"/>
<path d="M78.3689 31.1637C78.3689 34.5399 76.5568 36.709 73.8222 36.709C73.1295 36.7452 72.4406 36.586 71.8343 36.2499C71.2281 35.9137 70.729 35.4141 70.3943 34.8082H70.3425V40.1895H68.1062V25.7309H70.2708V27.5379H70.312C70.6621 26.935 71.1696 26.438 71.7805 26.0997C72.3913 25.7615 73.0827 25.5948 73.7811 25.6172C76.5463 25.6172 78.3689 27.7969 78.3689 31.1637ZM76.0703 31.1637C76.0703 28.9641 74.9304 27.518 73.1912 27.518C71.4825 27.518 70.3332 28.9946 70.3332 31.1637C70.3332 33.3528 71.4825 34.8188 73.1912 34.8188C74.9304 34.8188 76.0703 33.3833 76.0703 31.1637H76.0703Z" fill="white"/>
<path d="M86.2941 32.4434C86.4598 33.9212 87.8994 34.8914 89.8666 34.8914C91.7516 34.8914 93.1077 33.9211 93.1077 32.5887C93.1077 31.432 92.2898 30.7395 90.3532 30.2649L88.4165 29.7996C85.6725 29.1387 84.3986 27.859 84.3986 25.7824C84.3986 23.2113 86.6455 21.4453 89.8361 21.4453C92.9937 21.4453 95.1584 23.2113 95.2313 25.7824H92.9738C92.8386 24.2953 91.6059 23.3977 89.8043 23.3977C88.0028 23.3977 86.7701 24.3059 86.7701 25.6277C86.7701 26.6813 87.5574 27.3012 89.4835 27.7757L91.1299 28.1789C94.1959 28.9019 95.4698 30.1301 95.4698 32.3097C95.4698 35.0976 93.2429 36.8437 89.7009 36.8437C86.3869 36.8437 84.1494 35.1386 84.0049 32.4433L86.2941 32.4434Z" fill="white"/>
<path d="M100.296 23.1598V25.7309H102.368V27.4969H100.296V33.4864C100.296 34.4168 100.711 34.8504 101.622 34.8504C101.868 34.8461 102.113 34.8289 102.357 34.7988V36.5543C101.948 36.6306 101.532 36.6651 101.115 36.6574C98.9094 36.6574 98.0492 35.8312 98.0492 33.7242V27.4969H96.4651V25.7309H98.0492V23.1598H100.296Z" fill="white"/>
<path d="M103.568 31.1637C103.568 27.7453 105.587 25.5973 108.735 25.5973C111.894 25.5973 113.903 27.7453 113.903 31.1637C113.903 34.5914 111.904 36.7301 108.735 36.7301C105.567 36.7301 103.568 34.5914 103.568 31.1637ZM111.625 31.1637C111.625 28.8188 110.547 27.4348 108.735 27.4348C106.923 27.4348 105.847 28.8293 105.847 31.1637C105.847 33.518 106.923 34.8914 108.735 34.8914C110.547 34.8914 111.625 33.518 111.625 31.1637H111.625Z" fill="white"/>
<path d="M115.747 25.7309H117.88V27.5801H117.932C118.076 27.0026 118.416 26.4922 118.893 26.1347C119.37 25.7773 119.956 25.5945 120.553 25.6172C120.81 25.6163 121.067 25.6443 121.319 25.7005V27.7864C120.993 27.6872 120.654 27.6417 120.314 27.6516C119.989 27.6385 119.665 27.6956 119.365 27.8191C119.064 27.9425 118.794 28.1294 118.572 28.3669C118.351 28.6044 118.184 28.8868 118.082 29.1948C117.98 29.5028 117.947 29.8291 117.984 30.1512V36.5954H115.747L115.747 25.7309Z" fill="white"/>
<path d="M131.63 33.4043C131.329 35.3766 129.403 36.7301 126.938 36.7301C123.769 36.7301 121.802 34.6125 121.802 31.2153C121.802 27.8074 123.78 25.5973 126.844 25.5973C129.859 25.5973 131.754 27.6621 131.754 30.9563V31.7203H124.059V31.8551C124.024 32.2549 124.074 32.6577 124.207 33.0367C124.339 33.4158 124.551 33.7623 124.828 34.0534C125.105 34.3444 125.442 34.5733 125.814 34.7249C126.187 34.8765 126.588 34.9472 126.99 34.9324C127.519 34.9818 128.049 34.8598 128.502 34.5844C128.956 34.3091 129.308 33.8952 129.506 33.4043L131.63 33.4043ZM124.07 30.1617H129.517C129.537 29.8022 129.482 29.4425 129.356 29.105C129.23 28.7676 129.036 28.4597 128.785 28.2008C128.534 27.9419 128.232 27.7375 127.898 27.6004C127.564 27.4633 127.205 27.3966 126.844 27.4043C126.48 27.4022 126.119 27.4719 125.782 27.6096C125.445 27.7473 125.139 27.9502 124.881 28.2065C124.623 28.4629 124.419 28.7677 124.279 29.1033C124.14 29.4388 124.069 29.7986 124.07 30.1618V30.1617Z" fill="white"/>
<path d="M44.2098 13.5041H45.17C45.3352 13.5246 45.503 13.5108 45.6626 13.4635C45.8223 13.4161 45.9704 13.3363 46.0976 13.2291C46.2247 13.1219 46.3283 12.9895 46.4016 12.8404C46.475 12.6913 46.5166 12.5286 46.5237 12.3627C46.5237 11.7024 46.0255 11.2758 45.1805 11.2758C45.0112 11.2522 44.8388 11.2627 44.6736 11.3066C44.5084 11.3505 44.3537 11.427 44.2187 11.5316C44.0836 11.6361 43.9709 11.7666 43.8873 11.9153C43.8036 12.064 43.7506 12.2279 43.7316 12.3973H42.6774C42.6955 12.0897 42.777 11.7892 42.9167 11.5144C43.0563 11.2396 43.2512 10.9964 43.4892 10.7999C43.7272 10.6035 44.0033 10.458 44.3001 10.3725C44.5969 10.2871 44.9082 10.2634 45.2146 10.3031C46.6283 10.3031 47.6237 11.0924 47.6237 12.2285C47.627 12.6091 47.4993 12.9794 47.2619 13.2774C47.0245 13.5755 46.6918 13.7833 46.3193 13.8662V13.9506C46.7609 13.9701 47.1768 14.1632 47.4761 14.4877C47.7754 14.8121 47.9336 15.2416 47.9163 15.682C47.8836 15.9987 47.7879 16.3057 47.6347 16.585C47.4815 16.8643 47.2739 17.1103 47.0242 17.3085C46.7744 17.5068 46.4875 17.6533 46.1802 17.7396C45.8729 17.8258 45.5514 17.85 45.2346 17.8108C44.9171 17.8539 44.5942 17.8329 44.2851 17.7489C43.9759 17.665 43.6869 17.5198 43.4352 17.3221C43.1835 17.1244 42.9744 16.8782 42.8201 16.5981C42.6659 16.3181 42.5698 16.0099 42.5376 15.692H43.6082C43.6728 16.377 44.3039 16.8188 45.2346 16.8188C46.1653 16.8188 46.7729 16.3225 46.7729 15.6229C46.7729 14.9133 46.2006 14.4762 45.2005 14.4762H44.2098V13.5041Z" fill="white"/>
<path d="M49.1326 16.1092C49.1326 15.1365 49.86 14.5758 51.148 14.4961L52.6158 14.4117V13.9453C52.6158 13.3746 52.2385 13.0524 51.5064 13.0524C50.9094 13.0524 50.4969 13.2709 50.3771 13.653H49.3417C49.451 12.7248 50.3277 12.1295 51.5569 12.1295C52.9154 12.1295 53.6816 12.8039 53.6816 13.9453V17.6373H52.651V16.878H52.5664C52.3947 17.1503 52.1535 17.3724 51.8676 17.5215C51.5816 17.6705 51.2611 17.7412 50.9388 17.7264C50.7113 17.7499 50.4814 17.7257 50.2639 17.6553C50.0464 17.5849 49.8461 17.4698 49.6759 17.3174C49.5057 17.165 49.3694 16.9788 49.2759 16.7707C49.1823 16.5626 49.1335 16.3373 49.1326 16.1092ZM52.6158 15.6475V15.1957L51.2925 15.2801C50.5462 15.3299 50.2078 15.583 50.2078 16.0594C50.2078 16.5457 50.6308 16.8287 51.2126 16.8287C51.3831 16.8459 51.5552 16.8288 51.7189 16.7783C51.8826 16.7278 52.0344 16.6449 52.1653 16.5347C52.2962 16.4245 52.4036 16.2892 52.4809 16.1367C52.5583 15.9843 52.6042 15.8179 52.6158 15.6475Z" fill="white"/>
<path d="M56.5196 13.1314V17.6373H55.4502V12.2338H59.018V13.1314L56.5196 13.1314Z" fill="white"/>
<path d="M65.4992 14.9333C65.4992 16.6501 64.6284 17.7264 63.2605 17.7264C62.9248 17.7493 62.5894 17.676 62.294 17.5152C61.9985 17.3544 61.7553 17.1128 61.593 16.8188H61.5084V19.4339H60.439V12.2339H61.4684V13.1269H61.5483C61.7136 12.8226 61.96 12.5698 62.2603 12.3964C62.5606 12.223 62.9031 12.1357 63.25 12.1442C64.6284 12.1442 65.4992 13.2159 65.4992 14.9333ZM64.3993 14.9333C64.3993 13.7919 63.8575 13.1022 62.9515 13.1022C62.0514 13.1022 61.4884 13.8065 61.4884 14.938C61.4884 16.0641 62.0513 16.769 62.9468 16.769C63.8575 16.769 64.3993 16.0794 64.3993 14.9333Z" fill="white"/>
<path d="M66.9235 19.5726V18.6545C67.0392 18.6691 67.1558 18.6758 67.2724 18.6744C67.5003 18.6912 67.7263 18.6236 67.9072 18.4844C68.0881 18.3452 68.2111 18.1443 68.2525 17.9203L68.3324 17.6572L66.3711 12.2338H67.5357L68.8942 16.5258H68.9788L70.3326 12.2338H71.4666L69.4466 17.8605C68.9835 19.1754 68.4712 19.5973 67.3665 19.5973C67.2772 19.5972 67.0234 19.5873 66.9235 19.5726Z" fill="white"/>
<path d="M72.2998 16.1039H73.3645C73.4691 16.5803 73.9169 16.8287 74.5432 16.8287C75.2554 16.8287 75.6925 16.5158 75.6925 16.0295C75.6925 15.5086 75.3 15.2602 74.5432 15.2602H73.7323V14.4317H74.5291C75.1754 14.4317 75.5045 14.1838 75.5045 13.7321C75.5045 13.3354 75.186 13.0325 74.5291 13.0325C73.9309 13.0325 73.4938 13.2856 73.4244 13.7122H72.3938C72.4709 13.222 72.7378 12.7816 73.1371 12.4856C73.5364 12.1897 74.0362 12.0618 74.5291 12.1296C75.8171 12.1296 76.5539 12.7102 76.5539 13.6231C76.5599 13.8773 76.4782 14.1259 76.3225 14.3273C76.1668 14.5286 75.9465 14.6706 75.6984 14.7294V14.8137C75.9937 14.8517 76.2648 14.9965 76.4602 15.2206C76.6556 15.4448 76.7617 15.7326 76.7584 16.0296C76.7584 17.0568 75.8817 17.7364 74.5432 17.7364C73.3598 17.7364 72.3985 17.1955 72.2998 16.1039Z" fill="white"/>
<path d="M78.2983 17.6373V12.2338H79.3583V15.9504H79.4429L81.9402 12.2338H83.0002V17.6373H81.9402V13.9008H81.8603L79.3583 17.6373L78.2983 17.6373Z" fill="white"/>
<path d="M88.8398 13.1315H87.1334V17.6373H86.0628V13.1315H84.3564V12.2339H88.8398V13.1315Z" fill="white"/>
<path d="M94.6005 16.1783C94.4547 16.6721 94.1397 17.0992 93.7103 17.385C93.2809 17.6707 92.7645 17.7969 92.2513 17.7416C91.8943 17.751 91.5395 17.6828 91.2116 17.5418C90.8837 17.4007 90.5905 17.1902 90.3523 16.9249C90.1142 16.6595 89.9368 16.3456 89.8325 16.005C89.7281 15.6645 89.6994 15.3053 89.7482 14.9525C89.7007 14.5987 89.7299 14.2388 89.834 13.8971C89.9381 13.5555 90.1145 13.2402 90.3514 12.9725C90.5883 12.7048 90.8802 12.491 91.2071 12.3456C91.5341 12.2001 91.8886 12.1264 92.2466 12.1295C93.7543 12.1295 94.6651 13.1567 94.6651 14.8535V15.2256H90.8388V15.2854C90.8218 15.4837 90.8467 15.6834 90.9117 15.8716C90.9768 16.0598 91.0806 16.2323 91.2165 16.3781C91.3524 16.5239 91.5174 16.6397 91.7009 16.7181C91.8844 16.7965 92.0823 16.8358 92.2819 16.8334C92.5375 16.8638 92.7964 16.8178 93.0258 16.7012C93.2551 16.5845 93.4445 16.4025 93.5698 16.1783L94.6005 16.1783ZM90.8387 14.4369H93.5745C93.588 14.2557 93.5634 14.0736 93.5021 13.9024C93.4409 13.7312 93.3444 13.5747 93.219 13.4428C93.0935 13.311 92.9417 13.2068 92.7734 13.137C92.6052 13.0671 92.4241 13.0331 92.2419 13.0371C92.0569 13.0346 91.8732 13.0691 91.7018 13.1386C91.5304 13.208 91.3747 13.3111 91.2439 13.4416C91.1131 13.572 91.0099 13.7274 90.9403 13.8983C90.8707 14.0693 90.8362 14.2524 90.8388 14.4369H90.8387Z" fill="white"/>
<path d="M99.134 12.2338H101.577C102.637 12.2338 103.259 12.7693 103.259 13.6078C103.261 13.8738 103.17 14.1324 103.004 14.3401C102.837 14.5479 102.604 14.6923 102.343 14.7492V14.8335C102.66 14.8535 102.957 14.9939 103.172 15.2257C103.388 15.4575 103.506 15.7631 103.502 16.0792C103.502 17.022 102.791 17.6373 101.602 17.6373H99.134V12.2338ZM100.194 13.0523V14.4515H101.254C101.9 14.4515 102.209 14.2037 102.209 13.7466C102.209 13.3254 101.94 13.0523 101.373 13.0523L100.194 13.0523ZM100.194 15.2355V16.8187H101.462C102.094 16.8187 102.433 16.5404 102.433 16.0295C102.433 15.4887 102.05 15.2355 101.328 15.2355L100.194 15.2355Z" fill="white"/>
</svg>
