<svg width="79" height="20" viewBox="0 0 79 20" fill="none" xmlns="http://www.w3.org/2000/svg">
<path d="M13.5841 12.6558C13.5841 13.7946 13.3995 14.609 13.0293 15.4544C12.66 16.2989 12.1586 17.0384 11.525 17.6457C10.8914 18.2531 10.1791 18.7283 9.36086 19.0713C8.54264 19.4143 7.671 19.5727 6.7478 19.5727C4.32782 19.5727 3.12814 18.4227 2.70919 17.8566V19.2559H0.385742V0.0375977H2.78792V7.50843C3.22186 6.97044 4.52277 5.73983 6.77404 5.73983C10.2719 5.7389 13.5841 8.02673 13.5841 12.6558ZM11.1819 12.6558C11.1819 11.3099 10.7855 10.2536 9.96726 9.46166C9.14904 8.66968 8.06652 8.27416 6.72063 8.27416C5.7965 8.27416 4.97827 8.48504 4.23972 8.90774C3.50023 9.33045 3.02504 9.85812 2.78792 10.4917V14.7946C3.02598 15.4282 3.50023 15.9559 4.23972 16.3786C4.97921 16.8013 5.79743 17.0122 6.72063 17.0122C8.06652 17.0122 9.14904 16.6166 9.96726 15.8509C10.7855 15.0852 11.1819 14.0298 11.1819 12.7092V12.6558Z" fill="white"/>
<path d="M36.1943 5.76596C37.1971 5.76596 38.0688 5.92435 38.7811 6.26739C39.4943 6.61042 39.9695 7.03312 40.1804 7.53455V0.0637207H42.5826V19.2811H40.2863V17.8827C39.7277 18.5435 38.1681 19.5726 36.2477 19.5726C35.3236 19.5726 34.4528 19.4142 33.6346 19.0712C32.8164 18.7281 32.1032 18.253 31.4696 17.6456C30.836 17.0383 30.3346 16.2997 29.9653 15.4543C29.596 14.6099 29.4114 13.9182 29.4114 12.6294C29.4104 8.70893 32.4668 5.76596 36.1943 5.76596ZM31.8389 12.7878C31.8389 14.1075 32.2344 15.1638 33.0535 15.9295C33.8718 16.6952 34.9543 17.0908 36.3002 17.0908C37.2243 17.0908 38.0425 16.8799 38.7811 16.4572C39.5206 16.0345 39.9957 15.5068 40.2329 14.8732V10.5703C39.9948 9.93673 39.5206 9.40905 38.7811 8.98635C38.0416 8.56365 37.2234 8.35277 36.3002 8.35277C34.9543 8.35277 33.8718 8.74829 33.0535 9.54027C32.2353 10.3322 31.8389 11.3885 31.8389 12.7344V12.7878Z" fill="white"/>
<path d="M51.1295 19.5718C50.375 19.5718 49.7302 19.4396 49.0441 19.2025C48.3581 18.9644 47.7507 18.5952 47.2231 18.12C46.6954 17.6448 46.2727 17.0112 45.9296 16.2455C45.5866 15.4797 45.4282 14.5556 45.4282 13.5003V6.05566H47.8304V13.4468C47.8304 14.5818 48.1472 15.4535 48.7808 16.0599C49.4144 16.6672 50.2063 16.9578 51.1567 16.9578C51.5794 16.9578 51.9749 16.9053 52.3714 16.7731C52.7669 16.641 53.1109 16.4563 53.4277 16.2455C53.7444 16.0346 54.0087 15.7703 54.2196 15.4797C54.4305 15.1892 54.5889 14.8724 54.6686 14.5294V6.05566H57.0708V19.2287H54.7473V17.7769C54.2637 18.4452 53.1052 19.5718 51.1295 19.5718Z" fill="white"/>
<path d="M21.3868 19.5718C20.6324 19.5718 19.9875 19.4396 19.3015 19.2025C18.6154 18.9644 18.0081 18.5952 17.4804 18.12C16.9527 17.6448 16.53 17.0112 16.187 16.2455C15.8439 15.4797 15.6855 14.5556 15.6855 13.5003V6.05566H18.0877V13.4468C18.0877 14.5818 18.4045 15.4535 19.0381 16.0599C19.6717 16.6672 20.4637 16.9578 21.414 16.9578C21.8367 16.9578 22.2322 16.9053 22.6287 16.7731C23.0242 16.641 23.3682 16.4563 23.685 16.2455C24.0018 16.0346 24.2661 15.7703 24.477 15.4797C24.6878 15.1892 24.8462 14.8724 24.9259 14.5294V6.05566H27.3262V19.2287H25.0037V17.7769C24.521 18.4452 23.3616 19.5718 21.3868 19.5718Z" fill="white"/>
<path d="M64.1991 1.20007C62.6045 2.79464 62.6045 5.37993 64.1991 6.9745L67.0863 9.86171L64.1991 12.7489C62.6045 14.3435 62.6045 16.9288 64.1991 18.5233C65.7937 20.1179 68.379 20.1179 69.9735 18.5233L78.6352 9.86171L69.9735 1.20007C68.379 -0.39449 65.7937 -0.394491 64.1991 1.20007Z" fill="#F26C55"/>
</svg>
