<svg width="120" height="48" viewBox="0 0 120 48" fill="none" xmlns="http://www.w3.org/2000/svg">
<path d="M21.8762 27.9835C21.8762 29.6916 21.5992 30.9133 21.0439 32.1814C20.49 33.4481 19.7378 34.5573 18.7875 35.4684C17.8371 36.3794 16.7686 37.0921 15.5413 37.6067C14.314 38.1212 13.0065 38.3588 11.6217 38.3588C7.99173 38.3588 6.19221 36.6338 5.56378 35.7847V37.8837H2.07861V9.05615H5.68188V20.2624C6.3328 19.4554 8.28415 17.6095 11.6611 17.6095C16.9078 17.6081 21.8762 21.0398 21.8762 27.9835ZM18.2729 27.9835C18.2729 25.9646 17.6782 24.3802 16.4509 23.1922C15.2236 22.0043 13.5998 21.411 11.5809 21.411C10.1947 21.411 8.96741 21.7273 7.85958 22.3614C6.75034 22.9954 6.03756 23.7869 5.68188 24.7373V31.1917C6.03897 32.142 6.75034 32.9336 7.85958 33.5676C8.96882 34.2017 10.1962 34.518 11.5809 34.518C13.5998 34.518 15.2236 33.9247 16.4509 32.7761C17.6782 31.6275 18.2729 30.0445 18.2729 28.0636V27.9835Z" fill="white"/>
<path d="M55.7915 17.6491C57.2958 17.6491 58.6033 17.8866 59.6717 18.4012C60.7416 18.9158 61.4544 19.5498 61.7707 20.3019V9.0957H65.374V37.9218H61.9296V35.8242C61.0917 36.8154 58.7523 38.359 55.8717 38.359C54.4855 38.359 53.1794 38.1214 51.9521 37.6069C50.7247 37.0923 49.6549 36.3796 48.7045 35.4685C47.7541 34.5575 47.002 33.4497 46.4481 32.1816C45.8941 30.9149 45.6172 29.8774 45.6172 27.9443C45.6158 22.0635 50.2003 17.6491 55.7915 17.6491ZM49.2584 28.1819C49.2584 30.1614 49.8517 31.7458 51.0804 32.8944C52.3078 34.043 53.9315 34.6363 55.9504 34.6363C57.3366 34.6363 58.5639 34.3199 59.6717 33.6859C60.781 33.0518 61.4938 32.2603 61.8494 31.31V24.8556C61.4923 23.9052 60.781 23.1137 59.6717 22.4796C58.5625 21.8456 57.3352 21.5293 55.9504 21.5293C53.9315 21.5293 52.3078 22.1226 51.0804 23.3105C49.8531 24.4985 49.2584 26.0829 49.2584 28.1017V28.1819Z" fill="white"/>
<path d="M78.1945 38.3574C77.0628 38.3574 76.0955 38.1592 75.0664 37.8035C74.0373 37.4464 73.1263 36.8925 72.3348 36.1797C71.5433 35.4669 70.9093 34.5165 70.3947 33.3679C69.8802 32.2193 69.6426 30.8331 69.6426 29.2501V18.0833H73.2458V29.17C73.2458 30.8725 73.721 32.18 74.6714 33.0896C75.6218 34.0006 76.8097 34.4364 78.2353 34.4364C78.8693 34.4364 79.4626 34.3577 80.0573 34.1595C80.6506 33.9612 81.1665 33.6843 81.6417 33.3679C82.1169 33.0516 82.5134 32.6552 82.8297 32.2193C83.146 31.7835 83.3836 31.3083 83.5031 30.7938V18.0833H87.1064V37.8428H83.6212V35.6651C82.8958 36.6675 81.1581 38.3574 78.1945 38.3574Z" fill="white"/>
<path d="M33.5803 38.3574C32.4485 38.3574 31.4813 38.1592 30.4522 37.8035C29.4231 37.4464 28.5121 36.8925 27.7206 36.1797C26.9291 35.4669 26.295 34.5165 25.7805 33.3679C25.2659 32.2193 25.0283 30.8331 25.0283 29.2501V18.0833H28.6316V29.17C28.6316 30.8725 29.1068 32.18 30.0571 33.0896C31.0075 34.0006 32.1955 34.4364 33.621 34.4364C34.2551 34.4364 34.8484 34.3577 35.4431 34.1595C36.0363 33.9612 36.5523 33.6843 37.0275 33.3679C37.5027 33.0516 37.8991 32.6552 38.2154 32.2193C38.5318 31.7835 38.7694 31.3083 38.8889 30.7938V18.0833H42.4893V37.8428H39.0055V35.6651C38.2815 36.6675 36.5425 38.3574 33.5803 38.3574Z" fill="white"/>
<path d="M97.7988 10.8002C95.4069 13.1921 95.4069 17.07 97.7988 19.4619L102.13 23.7927L97.7988 28.1235C95.4069 30.5153 95.4069 34.3933 97.7988 36.7851C100.191 39.177 104.069 39.177 106.46 36.7851L119.453 23.7927L106.46 10.8002C104.069 8.40839 100.191 8.40839 97.7988 10.8002Z" fill="#F26C55"/>
</svg>
