<svg width="120" height="120" viewBox="0 0 120 120" fill="none" xmlns="http://www.w3.org/2000/svg">
<path d="M3.24325 0H0V3.24324H3.24325V0Z" fill="black"/>
<path d="M3.24325 3.24316H0V6.48641H3.24325V3.24316Z" fill="black"/>
<path d="M3.24325 6.48633H0V9.72957H3.24325V6.48633Z" fill="black"/>
<path d="M3.24325 9.72998H0V12.9732H3.24325V9.72998Z" fill="black"/>
<path d="M3.24325 12.9731H0V16.2164H3.24325V12.9731Z" fill="black"/>
<path d="M3.24325 16.2163H0V19.4596H3.24325V16.2163Z" fill="black"/>
<path d="M3.24325 19.4595H0V22.7027H3.24325V19.4595Z" fill="black"/>
<path d="M3.24325 25.9462H0V29.1894H3.24325V25.9462Z" fill="black"/>
<path d="M3.24325 32.4325H0V35.6757H3.24325V32.4325Z" fill="black"/>
<path d="M3.24325 38.9188H0V42.1621H3.24325V38.9188Z" fill="black"/>
<path d="M3.24325 45.4056H0V48.6489H3.24325V45.4056Z" fill="black"/>
<path d="M3.24325 51.892H0V55.1352H3.24325V51.892Z" fill="black"/>
<path d="M3.24325 55.1351H0V58.3784H3.24325V55.1351Z" fill="black"/>
<path d="M3.24325 58.3783H0V61.6215H3.24325V58.3783Z" fill="black"/>
<path d="M3.24325 61.6215H0V64.8647H3.24325V61.6215Z" fill="black"/>
<path d="M3.24325 74.5946H0V77.8378H3.24325V74.5946Z" fill="black"/>
<path d="M3.24325 77.8378H0V81.081H3.24325V77.8378Z" fill="black"/>
<path d="M3.24325 81.0808H0V84.3241H3.24325V81.0808Z" fill="black"/>
<path d="M3.24325 87.5676H0V90.8109H3.24325V87.5676Z" fill="black"/>
<path d="M3.24325 97.2971H0V100.54H3.24325V97.2971Z" fill="black"/>
<path d="M3.24325 100.54H0V103.784H3.24325V100.54Z" fill="black"/>
<path d="M3.24325 103.784H0V107.027H3.24325V103.784Z" fill="black"/>
<path d="M3.24325 107.027H0V110.27H3.24325V107.027Z" fill="black"/>
<path d="M3.24325 110.27H0V113.514H3.24325V110.27Z" fill="black"/>
<path d="M3.24325 113.513H0V116.757H3.24325V113.513Z" fill="black"/>
<path d="M3.24325 116.757H0V120H3.24325V116.757Z" fill="black"/>
<path d="M6.48689 0H3.24365V3.24324H6.48689V0Z" fill="black"/>
<path d="M6.48689 19.4595H3.24365V22.7027H6.48689V19.4595Z" fill="black"/>
<path d="M6.48689 25.9462H3.24365V29.1894H6.48689V25.9462Z" fill="black"/>
<path d="M6.48689 35.6757H3.24365V38.9189H6.48689V35.6757Z" fill="black"/>
<path d="M6.48689 38.9188H3.24365V42.1621H6.48689V38.9188Z" fill="black"/>
<path d="M6.48689 55.1351H3.24365V58.3784H6.48689V55.1351Z" fill="black"/>
<path d="M6.48689 58.3783H3.24365V61.6215H6.48689V58.3783Z" fill="black"/>
<path d="M6.48689 61.6215H3.24365V64.8647H6.48689V61.6215Z" fill="black"/>
<path d="M6.48689 64.8651H3.24365V68.1084H6.48689V64.8651Z" fill="black"/>
<path d="M6.48689 77.8378H3.24365V81.081H6.48689V77.8378Z" fill="black"/>
<path d="M6.48689 87.5676H3.24365V90.8109H6.48689V87.5676Z" fill="black"/>
<path d="M6.48689 97.2971H3.24365V100.54H6.48689V97.2971Z" fill="black"/>
<path d="M6.48689 116.757H3.24365V120H6.48689V116.757Z" fill="black"/>
<path d="M9.72957 0H6.48633V3.24324H9.72957V0Z" fill="black"/>
<path d="M9.72957 6.48633H6.48633V9.72957H9.72957V6.48633Z" fill="black"/>
<path d="M9.72957 9.72998H6.48633V12.9732H9.72957V9.72998Z" fill="black"/>
<path d="M9.72957 12.9731H6.48633V16.2164H9.72957V12.9731Z" fill="black"/>
<path d="M9.72957 19.4595H6.48633V22.7027H9.72957V19.4595Z" fill="black"/>
<path d="M9.72957 25.9462H6.48633V29.1894H9.72957V25.9462Z" fill="black"/>
<path d="M9.72957 29.1893H6.48633V32.4326H9.72957V29.1893Z" fill="black"/>
<path d="M9.72957 35.6757H6.48633V38.9189H9.72957V35.6757Z" fill="black"/>
<path d="M9.72957 58.3783H6.48633V61.6215H9.72957V58.3783Z" fill="black"/>
<path d="M9.72957 61.6215H6.48633V64.8647H9.72957V61.6215Z" fill="black"/>
<path d="M9.72957 74.5946H6.48633V77.8378H9.72957V74.5946Z" fill="black"/>
<path d="M9.72957 87.5676H6.48633V90.8109H9.72957V87.5676Z" fill="black"/>
<path d="M9.72957 90.8108H6.48633V94.0541H9.72957V90.8108Z" fill="black"/>
<path d="M9.72957 97.2971H6.48633V100.54H9.72957V97.2971Z" fill="black"/>
<path d="M9.72957 103.784H6.48633V107.027H9.72957V103.784Z" fill="black"/>
<path d="M9.72957 107.027H6.48633V110.27H9.72957V107.027Z" fill="black"/>
<path d="M9.72957 110.27H6.48633V113.514H9.72957V110.27Z" fill="black"/>
<path d="M9.72957 116.757H6.48633V120H9.72957V116.757Z" fill="black"/>
<path d="M12.9732 0H9.72998V3.24324H12.9732V0Z" fill="black"/>
<path d="M12.9732 6.48633H9.72998V9.72957H12.9732V6.48633Z" fill="black"/>
<path d="M12.9732 9.72998H9.72998V12.9732H12.9732V9.72998Z" fill="black"/>
<path d="M12.9732 12.9731H9.72998V16.2164H12.9732V12.9731Z" fill="black"/>
<path d="M12.9732 19.4595H9.72998V22.7027H12.9732V19.4595Z" fill="black"/>
<path d="M12.9732 29.1893H9.72998V32.4326H12.9732V29.1893Z" fill="black"/>
<path d="M12.9732 45.4056H9.72998V48.6489H12.9732V45.4056Z" fill="black"/>
<path d="M12.9732 58.3783H9.72998V61.6215H12.9732V58.3783Z" fill="black"/>
<path d="M12.9732 61.6215H9.72998V64.8647H12.9732V61.6215Z" fill="black"/>
<path d="M12.9732 64.8651H9.72998V68.1084H12.9732V64.8651Z" fill="black"/>
<path d="M12.9732 74.5946H9.72998V77.8378H12.9732V74.5946Z" fill="black"/>
<path d="M12.9732 90.8108H9.72998V94.0541H12.9732V90.8108Z" fill="black"/>
<path d="M12.9732 97.2971H9.72998V100.54H12.9732V97.2971Z" fill="black"/>
<path d="M12.9732 103.784H9.72998V107.027H12.9732V103.784Z" fill="black"/>
<path d="M12.9732 107.027H9.72998V110.27H12.9732V107.027Z" fill="black"/>
<path d="M12.9732 110.27H9.72998V113.514H12.9732V110.27Z" fill="black"/>
<path d="M12.9732 116.757H9.72998V120H12.9732V116.757Z" fill="black"/>
<path d="M16.2164 0H12.9731V3.24324H16.2164V0Z" fill="black"/>
<path d="M16.2164 6.48633H12.9731V9.72957H16.2164V6.48633Z" fill="black"/>
<path d="M16.2164 9.72998H12.9731V12.9732H16.2164V9.72998Z" fill="black"/>
<path d="M16.2164 12.9731H12.9731V16.2164H16.2164V12.9731Z" fill="black"/>
<path d="M16.2164 19.4595H12.9731V22.7027H16.2164V19.4595Z" fill="black"/>
<path d="M16.2164 29.1893H12.9731V32.4326H16.2164V29.1893Z" fill="black"/>
<path d="M16.2164 38.9188H12.9731V42.1621H16.2164V38.9188Z" fill="black"/>
<path d="M16.2164 48.6488H12.9731V51.892H16.2164V48.6488Z" fill="black"/>
<path d="M16.2164 55.1351H12.9731V58.3784H16.2164V55.1351Z" fill="black"/>
<path d="M16.2164 61.6215H12.9731V64.8647H16.2164V61.6215Z" fill="black"/>
<path d="M16.2164 68.1083H12.9731V71.3515H16.2164V68.1083Z" fill="black"/>
<path d="M16.2164 77.8378H12.9731V81.081H16.2164V77.8378Z" fill="black"/>
<path d="M16.2164 97.2971H12.9731V100.54H16.2164V97.2971Z" fill="black"/>
<path d="M16.2164 103.784H12.9731V107.027H16.2164V103.784Z" fill="black"/>
<path d="M16.2164 107.027H12.9731V110.27H16.2164V107.027Z" fill="black"/>
<path d="M16.2164 110.27H12.9731V113.514H16.2164V110.27Z" fill="black"/>
<path d="M16.2164 116.757H12.9731V120H16.2164V116.757Z" fill="black"/>
<path d="M19.4596 0H16.2163V3.24324H19.4596V0Z" fill="black"/>
<path d="M19.4596 19.4595H16.2163V22.7027H19.4596V19.4595Z" fill="black"/>
<path d="M19.4596 25.9462H16.2163V29.1894H19.4596V25.9462Z" fill="black"/>
<path d="M19.4596 29.1893H16.2163V32.4326H19.4596V29.1893Z" fill="black"/>
<path d="M19.4596 35.6757H16.2163V38.9189H19.4596V35.6757Z" fill="black"/>
<path d="M19.4596 38.9188H16.2163V42.1621H19.4596V38.9188Z" fill="black"/>
<path d="M19.4596 45.4056H16.2163V48.6489H19.4596V45.4056Z" fill="black"/>
<path d="M19.4596 58.3783H16.2163V61.6215H19.4596V58.3783Z" fill="black"/>
<path d="M19.4596 68.1083H16.2163V71.3515H19.4596V68.1083Z" fill="black"/>
<path d="M19.4596 71.3514H16.2163V74.5947H19.4596V71.3514Z" fill="black"/>
<path d="M19.4596 74.5946H16.2163V77.8378H19.4596V74.5946Z" fill="black"/>
<path d="M19.4596 81.0808H16.2163V84.3241H19.4596V81.0808Z" fill="black"/>
<path d="M19.4596 87.5676H16.2163V90.8109H19.4596V87.5676Z" fill="black"/>
<path d="M19.4596 97.2971H16.2163V100.54H19.4596V97.2971Z" fill="black"/>
<path d="M19.4596 116.757H16.2163V120H19.4596V116.757Z" fill="black"/>
<path d="M22.7027 0H19.4595V3.24324H22.7027V0Z" fill="black"/>
<path d="M22.7027 3.24316H19.4595V6.48641H22.7027V3.24316Z" fill="black"/>
<path d="M22.7027 6.48633H19.4595V9.72957H22.7027V6.48633Z" fill="black"/>
<path d="M22.7027 9.72998H19.4595V12.9732H22.7027V9.72998Z" fill="black"/>
<path d="M22.7027 12.9731H19.4595V16.2164H22.7027V12.9731Z" fill="black"/>
<path d="M22.7027 16.2163H19.4595V19.4596H22.7027V16.2163Z" fill="black"/>
<path d="M22.7027 19.4595H19.4595V22.7027H22.7027V19.4595Z" fill="black"/>
<path d="M22.7027 25.9462H19.4595V29.1894H22.7027V25.9462Z" fill="black"/>
<path d="M22.7027 32.4325H19.4595V35.6757H22.7027V32.4325Z" fill="black"/>
<path d="M22.7027 38.9188H19.4595V42.1621H22.7027V38.9188Z" fill="black"/>
<path d="M22.7027 45.4056H19.4595V48.6489H22.7027V45.4056Z" fill="black"/>
<path d="M22.7027 51.892H19.4595V55.1352H22.7027V51.892Z" fill="black"/>
<path d="M22.7027 58.3783H19.4595V61.6215H22.7027V58.3783Z" fill="black"/>
<path d="M22.7027 64.8651H19.4595V68.1084H22.7027V64.8651Z" fill="black"/>
<path d="M22.7027 71.3514H19.4595V74.5947H22.7027V71.3514Z" fill="black"/>
<path d="M22.7027 77.8378H19.4595V81.081H22.7027V77.8378Z" fill="black"/>
<path d="M22.7027 84.3245H19.4595V87.5677H22.7027V84.3245Z" fill="black"/>
<path d="M22.7027 90.8108H19.4595V94.0541H22.7027V90.8108Z" fill="black"/>
<path d="M22.7027 97.2971H19.4595V100.54H22.7027V97.2971Z" fill="black"/>
<path d="M22.7027 100.54H19.4595V103.784H22.7027V100.54Z" fill="black"/>
<path d="M22.7027 103.784H19.4595V107.027H22.7027V103.784Z" fill="black"/>
<path d="M22.7027 107.027H19.4595V110.27H22.7027V107.027Z" fill="black"/>
<path d="M22.7027 110.27H19.4595V113.514H22.7027V110.27Z" fill="black"/>
<path d="M22.7027 113.513H19.4595V116.757H22.7027V113.513Z" fill="black"/>
<path d="M22.7027 116.757H19.4595V120H22.7027V116.757Z" fill="black"/>
<path d="M25.9459 32.4325H22.7026V35.6757H25.9459V32.4325Z" fill="black"/>
<path d="M25.9459 48.6488H22.7026V51.892H25.9459V48.6488Z" fill="black"/>
<path d="M25.9459 51.892H22.7026V55.1352H25.9459V51.892Z" fill="black"/>
<path d="M25.9459 55.1351H22.7026V58.3784H25.9459V55.1351Z" fill="black"/>
<path d="M25.9459 64.8651H22.7026V68.1084H25.9459V64.8651Z" fill="black"/>
<path d="M25.9459 68.1083H22.7026V71.3515H25.9459V68.1083Z" fill="black"/>
<path d="M29.189 0H25.9458V3.24324H29.189V0Z" fill="black"/>
<path d="M29.189 3.24316H25.9458V6.48641H29.189V3.24316Z" fill="black"/>
<path d="M29.189 12.9731H25.9458V16.2164H29.189V12.9731Z" fill="black"/>
<path d="M29.189 16.2163H25.9458V19.4596H29.189V16.2163Z" fill="black"/>
<path d="M29.189 19.4595H25.9458V22.7027H29.189V19.4595Z" fill="black"/>
<path d="M29.189 22.7026H25.9458V25.9459H29.189V22.7026Z" fill="black"/>
<path d="M29.189 25.9462H25.9458V29.1894H29.189V25.9462Z" fill="black"/>
<path d="M29.189 29.1893H25.9458V32.4326H29.189V29.1893Z" fill="black"/>
<path d="M29.189 35.6757H25.9458V38.9189H29.189V35.6757Z" fill="black"/>
<path d="M29.189 42.162H25.9458V45.4052H29.189V42.162Z" fill="black"/>
<path d="M29.189 45.4056H25.9458V48.6489H29.189V45.4056Z" fill="black"/>
<path d="M29.189 48.6488H25.9458V51.892H29.189V48.6488Z" fill="black"/>
<path d="M29.189 55.1351H25.9458V58.3784H29.189V55.1351Z" fill="black"/>
<path d="M29.189 58.3783H25.9458V61.6215H29.189V58.3783Z" fill="black"/>
<path d="M29.189 61.6215H25.9458V64.8647H29.189V61.6215Z" fill="black"/>
<path d="M29.189 68.1083H25.9458V71.3515H29.189V68.1083Z" fill="black"/>
<path d="M29.189 71.3514H25.9458V74.5947H29.189V71.3514Z" fill="black"/>
<path d="M29.189 81.0808H25.9458V84.3241H29.189V81.0808Z" fill="black"/>
<path d="M29.189 87.5676H25.9458V90.8109H29.189V87.5676Z" fill="black"/>
<path d="M29.189 90.8108H25.9458V94.0541H29.189V90.8108Z" fill="black"/>
<path d="M29.189 94.054H25.9458V97.2972H29.189V94.054Z" fill="black"/>
<path d="M29.189 100.54H25.9458V103.784H29.189V100.54Z" fill="black"/>
<path d="M29.189 110.27H25.9458V113.514H29.189V110.27Z" fill="black"/>
<path d="M29.189 113.513H25.9458V116.757H29.189V113.513Z" fill="black"/>
<path d="M29.189 116.757H25.9458V120H29.189V116.757Z" fill="black"/>
<path d="M32.4327 0H29.1895V3.24324H32.4327V0Z" fill="black"/>
<path d="M32.4327 6.48633H29.1895V9.72957H32.4327V6.48633Z" fill="black"/>
<path d="M32.4327 16.2163H29.1895V19.4596H32.4327V16.2163Z" fill="black"/>
<path d="M32.4327 22.7026H29.1895V25.9459H32.4327V22.7026Z" fill="black"/>
<path d="M32.4327 25.9462H29.1895V29.1894H32.4327V25.9462Z" fill="black"/>
<path d="M32.4327 35.6757H29.1895V38.9189H32.4327V35.6757Z" fill="black"/>
<path d="M32.4327 38.9188H29.1895V42.1621H32.4327V38.9188Z" fill="black"/>
<path d="M32.4327 42.162H29.1895V45.4052H32.4327V42.162Z" fill="black"/>
<path d="M32.4327 48.6488H29.1895V51.892H32.4327V48.6488Z" fill="black"/>
<path d="M32.4327 51.892H29.1895V55.1352H32.4327V51.892Z" fill="black"/>
<path d="M32.4327 55.1351H29.1895V58.3784H32.4327V55.1351Z" fill="black"/>
<path d="M32.4327 61.6215H29.1895V64.8647H32.4327V61.6215Z" fill="black"/>
<path d="M32.4327 64.8651H29.1895V68.1084H32.4327V64.8651Z" fill="black"/>
<path d="M32.4327 68.1083H29.1895V71.3515H32.4327V68.1083Z" fill="black"/>
<path d="M32.4327 71.3514H29.1895V74.5947H32.4327V71.3514Z" fill="black"/>
<path d="M32.4327 74.5946H29.1895V77.8378H32.4327V74.5946Z" fill="black"/>
<path d="M32.4327 81.0808H29.1895V84.3241H32.4327V81.0808Z" fill="black"/>
<path d="M32.4327 90.8108H29.1895V94.0541H32.4327V90.8108Z" fill="black"/>
<path d="M32.4327 107.027H29.1895V110.27H32.4327V107.027Z" fill="black"/>
<path d="M35.6759 0H32.4326V3.24324H35.6759V0Z" fill="black"/>
<path d="M35.6759 16.2163H32.4326V19.4596H35.6759V16.2163Z" fill="black"/>
<path d="M35.6759 19.4595H32.4326V22.7027H35.6759V19.4595Z" fill="black"/>
<path d="M35.6759 45.4056H32.4326V48.6489H35.6759V45.4056Z" fill="black"/>
<path d="M35.6759 48.6488H32.4326V51.892H35.6759V48.6488Z" fill="black"/>
<path d="M35.6759 51.892H32.4326V55.1352H35.6759V51.892Z" fill="black"/>
<path d="M35.6759 55.1351H32.4326V58.3784H35.6759V55.1351Z" fill="black"/>
<path d="M35.6759 61.6215H32.4326V64.8647H35.6759V61.6215Z" fill="black"/>
<path d="M35.6759 68.1083H32.4326V71.3515H35.6759V68.1083Z" fill="black"/>
<path d="M35.6759 87.5676H32.4326V90.8109H35.6759V87.5676Z" fill="black"/>
<path d="M35.6759 100.54H32.4326V103.784H35.6759V100.54Z" fill="black"/>
<path d="M35.6759 110.27H32.4326V113.514H35.6759V110.27Z" fill="black"/>
<path d="M35.6759 116.757H32.4326V120H35.6759V116.757Z" fill="black"/>
<path d="M38.919 0H35.6758V3.24324H38.919V0Z" fill="black"/>
<path d="M38.919 3.24316H35.6758V6.48641H38.919V3.24316Z" fill="black"/>
<path d="M38.919 9.72998H35.6758V12.9732H38.919V9.72998Z" fill="black"/>
<path d="M38.919 12.9731H35.6758V16.2164H38.919V12.9731Z" fill="black"/>
<path d="M38.919 25.9462H35.6758V29.1894H38.919V25.9462Z" fill="black"/>
<path d="M38.919 35.6757H35.6758V38.9189H38.919V35.6757Z" fill="black"/>
<path d="M38.919 45.4056H35.6758V48.6489H38.919V45.4056Z" fill="black"/>
<path d="M38.919 51.892H35.6758V55.1352H38.919V51.892Z" fill="black"/>
<path d="M38.919 61.6215H35.6758V64.8647H38.919V61.6215Z" fill="black"/>
<path d="M38.919 71.3514H35.6758V74.5947H38.919V71.3514Z" fill="black"/>
<path d="M38.919 77.8378H35.6758V81.081H38.919V77.8378Z" fill="black"/>
<path d="M38.919 87.5676H35.6758V90.8109H38.919V87.5676Z" fill="black"/>
<path d="M38.919 97.2971H35.6758V100.54H38.919V97.2971Z" fill="black"/>
<path d="M38.919 103.784H35.6758V107.027H38.919V103.784Z" fill="black"/>
<path d="M38.919 113.513H35.6758V116.757H38.919V113.513Z" fill="black"/>
<path d="M42.1622 9.72998H38.9189V12.9732H42.1622V9.72998Z" fill="black"/>
<path d="M42.1622 12.9731H38.9189V16.2164H42.1622V12.9731Z" fill="black"/>
<path d="M42.1622 16.2163H38.9189V19.4596H42.1622V16.2163Z" fill="black"/>
<path d="M42.1622 19.4595H38.9189V22.7027H42.1622V19.4595Z" fill="black"/>
<path d="M42.1622 25.9462H38.9189V29.1894H42.1622V25.9462Z" fill="black"/>
<path d="M42.1622 29.1893H38.9189V32.4326H42.1622V29.1893Z" fill="black"/>
<path d="M42.1622 32.4325H38.9189V35.6757H42.1622V32.4325Z" fill="black"/>
<path d="M42.1622 35.6757H38.9189V38.9189H42.1622V35.6757Z" fill="black"/>
<path d="M42.1622 51.892H38.9189V55.1352H42.1622V51.892Z" fill="black"/>
<path d="M42.1622 55.1351H38.9189V58.3784H42.1622V55.1351Z" fill="black"/>
<path d="M42.1622 58.3783H38.9189V61.6215H42.1622V58.3783Z" fill="black"/>
<path d="M42.1622 61.6215H38.9189V64.8647H42.1622V61.6215Z" fill="black"/>
<path d="M42.1622 77.8378H38.9189V81.081H42.1622V77.8378Z" fill="black"/>
<path d="M42.1622 81.0808H38.9189V84.3241H42.1622V81.0808Z" fill="black"/>
<path d="M42.1622 84.3245H38.9189V87.5677H42.1622V84.3245Z" fill="black"/>
<path d="M42.1622 87.5676H38.9189V90.8109H42.1622V87.5676Z" fill="black"/>
<path d="M42.1622 103.784H38.9189V107.027H42.1622V103.784Z" fill="black"/>
<path d="M42.1622 107.027H38.9189V110.27H42.1622V107.027Z" fill="black"/>
<path d="M42.1622 110.27H38.9189V113.514H42.1622V110.27Z" fill="black"/>
<path d="M42.1622 113.513H38.9189V116.757H42.1622V113.513Z" fill="black"/>
<path d="M45.4053 0H42.1621V3.24324H45.4053V0Z" fill="black"/>
<path d="M45.4053 6.48633H42.1621V9.72957H45.4053V6.48633Z" fill="black"/>
<path d="M45.4053 16.2163H42.1621V19.4596H45.4053V16.2163Z" fill="black"/>
<path d="M45.4053 22.7026H42.1621V25.9459H45.4053V22.7026Z" fill="black"/>
<path d="M45.4053 25.9462H42.1621V29.1894H45.4053V25.9462Z" fill="black"/>
<path d="M45.4053 32.4325H42.1621V35.6757H45.4053V32.4325Z" fill="black"/>
<path d="M45.4053 38.9188H42.1621V42.1621H45.4053V38.9188Z" fill="black"/>
<path d="M45.4053 42.162H42.1621V45.4052H45.4053V42.162Z" fill="black"/>
<path d="M45.4053 48.6488H42.1621V51.892H45.4053V48.6488Z" fill="black"/>
<path d="M45.4053 51.892H42.1621V55.1352H45.4053V51.892Z" fill="black"/>
<path d="M45.4053 58.3783H42.1621V61.6215H45.4053V58.3783Z" fill="black"/>
<path d="M45.4053 64.8651H42.1621V68.1084H45.4053V64.8651Z" fill="black"/>
<path d="M45.4053 68.1083H42.1621V71.3515H45.4053V68.1083Z" fill="black"/>
<path d="M45.4053 74.5946H42.1621V77.8378H45.4053V74.5946Z" fill="black"/>
<path d="M45.4053 77.8378H42.1621V81.081H45.4053V77.8378Z" fill="black"/>
<path d="M45.4053 84.3245H42.1621V87.5677H45.4053V84.3245Z" fill="black"/>
<path d="M45.4053 90.8108H42.1621V94.0541H45.4053V90.8108Z" fill="black"/>
<path d="M45.4053 94.054H42.1621V97.2972H45.4053V94.054Z" fill="black"/>
<path d="M45.4053 100.54H42.1621V103.784H45.4053V100.54Z" fill="black"/>
<path d="M45.4053 103.784H42.1621V107.027H45.4053V103.784Z" fill="black"/>
<path d="M45.4053 110.27H42.1621V113.514H45.4053V110.27Z" fill="black"/>
<path d="M45.4053 116.757H42.1621V120H45.4053V116.757Z" fill="black"/>
<path d="M48.649 0H45.4058V3.24324H48.649V0Z" fill="black"/>
<path d="M48.649 16.2163H45.4058V19.4596H48.649V16.2163Z" fill="black"/>
<path d="M48.649 19.4595H45.4058V22.7027H48.649V19.4595Z" fill="black"/>
<path d="M48.649 32.4325H45.4058V35.6757H48.649V32.4325Z" fill="black"/>
<path d="M48.649 35.6757H45.4058V38.9189H48.649V35.6757Z" fill="black"/>
<path d="M48.649 38.9188H45.4058V42.1621H48.649V38.9188Z" fill="black"/>
<path d="M48.649 42.162H45.4058V45.4052H48.649V42.162Z" fill="black"/>
<path d="M48.649 58.3783H45.4058V61.6215H48.649V58.3783Z" fill="black"/>
<path d="M48.649 61.6215H45.4058V64.8647H48.649V61.6215Z" fill="black"/>
<path d="M48.649 64.8651H45.4058V68.1084H48.649V64.8651Z" fill="black"/>
<path d="M48.649 68.1083H45.4058V71.3515H48.649V68.1083Z" fill="black"/>
<path d="M48.649 84.3245H45.4058V87.5677H48.649V84.3245Z" fill="black"/>
<path d="M48.649 87.5676H45.4058V90.8109H48.649V87.5676Z" fill="black"/>
<path d="M48.649 90.8108H45.4058V94.0541H48.649V90.8108Z" fill="black"/>
<path d="M48.649 94.054H45.4058V97.2972H48.649V94.054Z" fill="black"/>
<path d="M48.649 110.27H45.4058V113.514H48.649V110.27Z" fill="black"/>
<path d="M48.649 113.513H45.4058V116.757H48.649V113.513Z" fill="black"/>
<path d="M48.649 116.757H45.4058V120H48.649V116.757Z" fill="black"/>
<path d="M51.8917 0H48.6484V3.24324H51.8917V0Z" fill="black"/>
<path d="M51.8917 3.24316H48.6484V6.48641H51.8917V3.24316Z" fill="black"/>
<path d="M51.8917 9.72998H48.6484V12.9732H51.8917V9.72998Z" fill="black"/>
<path d="M51.8917 12.9731H48.6484V16.2164H51.8917V12.9731Z" fill="black"/>
<path d="M51.8917 25.9462H48.6484V29.1894H51.8917V25.9462Z" fill="black"/>
<path d="M51.8917 35.6757H48.6484V38.9189H51.8917V35.6757Z" fill="black"/>
<path d="M51.8917 45.4056H48.6484V48.6489H51.8917V45.4056Z" fill="black"/>
<path d="M51.8917 51.892H48.6484V55.1352H51.8917V51.892Z" fill="black"/>
<path d="M51.8917 61.6215H48.6484V64.8647H51.8917V61.6215Z" fill="black"/>
<path d="M51.8917 71.3514H48.6484V74.5947H51.8917V71.3514Z" fill="black"/>
<path d="M51.8917 81.0808H48.6484V84.3241H51.8917V81.0808Z" fill="black"/>
<path d="M51.8917 84.3245H48.6484V87.5677H51.8917V84.3245Z" fill="black"/>
<path d="M51.8917 90.8108H48.6484V94.0541H51.8917V90.8108Z" fill="black"/>
<path d="M51.8917 94.054H48.6484V97.2972H51.8917V94.054Z" fill="black"/>
<path d="M51.8917 97.2971H48.6484V100.54H51.8917V97.2971Z" fill="black"/>
<path d="M51.8917 107.027H48.6484V110.27H51.8917V107.027Z" fill="black"/>
<path d="M51.8917 110.27H48.6484V113.514H51.8917V110.27Z" fill="black"/>
<path d="M51.8917 116.757H48.6484V120H51.8917V116.757Z" fill="black"/>
<path d="M55.1353 9.72998H51.8921V12.9732H55.1353V9.72998Z" fill="black"/>
<path d="M55.1353 12.9731H51.8921V16.2164H55.1353V12.9731Z" fill="black"/>
<path d="M55.1353 16.2163H51.8921V19.4596H55.1353V16.2163Z" fill="black"/>
<path d="M55.1353 19.4595H51.8921V22.7027H55.1353V19.4595Z" fill="black"/>
<path d="M55.1353 25.9462H51.8921V29.1894H55.1353V25.9462Z" fill="black"/>
<path d="M55.1353 29.1893H51.8921V32.4326H55.1353V29.1893Z" fill="black"/>
<path d="M55.1353 32.4325H51.8921V35.6757H55.1353V32.4325Z" fill="black"/>
<path d="M55.1353 35.6757H51.8921V38.9189H55.1353V35.6757Z" fill="black"/>
<path d="M55.1353 51.892H51.8921V55.1352H55.1353V51.892Z" fill="black"/>
<path d="M55.1353 55.1351H51.8921V58.3784H55.1353V55.1351Z" fill="black"/>
<path d="M55.1353 58.3783H51.8921V61.6215H55.1353V58.3783Z" fill="black"/>
<path d="M55.1353 61.6215H51.8921V64.8647H55.1353V61.6215Z" fill="black"/>
<path d="M55.1353 64.8651H51.8921V68.1084H55.1353V64.8651Z" fill="black"/>
<path d="M55.1353 84.3245H51.8921V87.5677H55.1353V84.3245Z" fill="black"/>
<path d="M55.1353 87.5676H51.8921V90.8109H55.1353V87.5676Z" fill="black"/>
<path d="M55.1353 113.513H51.8921V116.757H55.1353V113.513Z" fill="black"/>
<path d="M58.3785 3.24316H55.1353V6.48641H58.3785V3.24316Z" fill="black"/>
<path d="M58.3785 6.48633H55.1353V9.72957H58.3785V6.48633Z" fill="black"/>
<path d="M58.3785 9.72998H55.1353V12.9732H58.3785V9.72998Z" fill="black"/>
<path d="M58.3785 32.4325H55.1353V35.6757H58.3785V32.4325Z" fill="black"/>
<path d="M58.3785 45.4056H55.1353V48.6489H58.3785V45.4056Z" fill="black"/>
<path d="M58.3785 58.3783H55.1353V61.6215H58.3785V58.3783Z" fill="black"/>
<path d="M58.3785 71.3514H55.1353V74.5947H58.3785V71.3514Z" fill="black"/>
<path d="M58.3785 84.3245H55.1353V87.5677H58.3785V84.3245Z" fill="black"/>
<path d="M58.3785 110.27H55.1353V113.514H58.3785V110.27Z" fill="black"/>
<path d="M61.6214 0H58.3782V3.24324H61.6214V0Z" fill="black"/>
<path d="M61.6217 3.24316H58.3784V6.48641H61.6217V3.24316Z" fill="black"/>
<path d="M61.6217 9.72998H58.3784V12.9732H61.6217V9.72998Z" fill="black"/>
<path d="M61.6217 12.9731H58.3784V16.2164H61.6217V12.9731Z" fill="black"/>
<path d="M61.6217 19.4595H58.3784V22.7027H61.6217V19.4595Z" fill="black"/>
<path d="M61.6217 22.7026H58.3784V25.9459H61.6217V22.7026Z" fill="black"/>
<path d="M61.6217 38.9188H58.3784V42.1621H61.6217V38.9188Z" fill="black"/>
<path d="M61.6217 42.162H58.3784V45.4052H61.6217V42.162Z" fill="black"/>
<path d="M61.6217 45.4056H58.3784V48.6489H61.6217V45.4056Z" fill="black"/>
<path d="M61.6217 48.6488H58.3784V51.892H61.6217V48.6488Z" fill="black"/>
<path d="M61.6217 51.892H58.3784V55.1352H61.6217V51.892Z" fill="black"/>
<path d="M61.6217 55.1351H58.3784V58.3784H61.6217V55.1351Z" fill="black"/>
<path d="M61.6217 64.8651H58.3784V68.1084H61.6217V64.8651Z" fill="black"/>
<path d="M61.6217 68.1083H58.3784V71.3515H61.6217V68.1083Z" fill="black"/>
<path d="M61.6217 74.5946H58.3784V77.8378H61.6217V74.5946Z" fill="black"/>
<path d="M61.6217 77.8378H58.3784V81.081H61.6217V77.8378Z" fill="black"/>
<path d="M61.6217 81.0808H58.3784V84.3241H61.6217V81.0808Z" fill="black"/>
<path d="M61.6217 84.3245H58.3784V87.5677H61.6217V84.3245Z" fill="black"/>
<path d="M61.6217 87.5676H58.3784V90.8109H61.6217V87.5676Z" fill="black"/>
<path d="M61.6217 90.8108H58.3784V94.0541H61.6217V90.8108Z" fill="black"/>
<path d="M61.6217 94.054H58.3784V97.2972H61.6217V94.054Z" fill="black"/>
<path d="M61.6217 97.2971H58.3784V100.54H61.6217V97.2971Z" fill="black"/>
<path d="M61.6217 100.54H58.3784V103.784H61.6217V100.54Z" fill="black"/>
<path d="M61.6217 103.784H58.3784V107.027H61.6217V103.784Z" fill="black"/>
<path d="M61.6217 107.027H58.3784V110.27H61.6217V107.027Z" fill="black"/>
<path d="M61.6217 116.757H58.3784V120H61.6217V116.757Z" fill="black"/>
<path d="M64.8653 6.48633H61.6221V9.72957H64.8653V6.48633Z" fill="black"/>
<path d="M64.8653 16.2163H61.6221V19.4596H64.8653V16.2163Z" fill="black"/>
<path d="M64.8653 25.9462H61.6221V29.1894H64.8653V25.9462Z" fill="black"/>
<path d="M64.8653 51.892H61.6221V55.1352H64.8653V51.892Z" fill="black"/>
<path d="M64.8653 61.6215H61.6221V64.8647H64.8653V61.6215Z" fill="black"/>
<path d="M64.8653 64.8651H61.6221V68.1084H64.8653V64.8651Z" fill="black"/>
<path d="M64.8653 68.1083H61.6221V71.3515H64.8653V68.1083Z" fill="black"/>
<path d="M64.8653 77.8378H61.6221V81.081H64.8653V77.8378Z" fill="black"/>
<path d="M64.8653 87.5676H61.6221V90.8109H64.8653V87.5676Z" fill="black"/>
<path d="M64.8653 94.054H61.6221V97.2972H64.8653V94.054Z" fill="black"/>
<path d="M64.8653 103.784H61.6221V107.027H64.8653V103.784Z" fill="black"/>
<path d="M64.8653 116.757H61.6221V120H64.8653V116.757Z" fill="black"/>
<path d="M68.1077 0H64.8645V3.24324H68.1077V0Z" fill="black"/>
<path d="M68.108 3.24316H64.8647V6.48641H68.108V3.24316Z" fill="black"/>
<path d="M68.108 9.72998H64.8647V12.9732H68.108V9.72998Z" fill="black"/>
<path d="M68.108 12.9731H64.8647V16.2164H68.108V12.9731Z" fill="black"/>
<path d="M68.108 19.4595H64.8647V22.7027H68.108V19.4595Z" fill="black"/>
<path d="M68.108 29.1893H64.8647V32.4326H68.108V29.1893Z" fill="black"/>
<path d="M68.108 32.4325H64.8647V35.6757H68.108V32.4325Z" fill="black"/>
<path d="M68.108 35.6757H64.8647V38.9189H68.108V35.6757Z" fill="black"/>
<path d="M68.108 38.9188H64.8647V42.1621H68.108V38.9188Z" fill="black"/>
<path d="M68.108 55.1351H64.8647V58.3784H68.108V55.1351Z" fill="black"/>
<path d="M68.108 58.3783H64.8647V61.6215H68.108V58.3783Z" fill="black"/>
<path d="M68.108 71.3514H64.8647V74.5947H68.108V71.3514Z" fill="black"/>
<path d="M68.108 81.0808H64.8647V84.3241H68.108V81.0808Z" fill="black"/>
<path d="M68.108 84.3245H64.8647V87.5677H68.108V84.3245Z" fill="black"/>
<path d="M68.108 87.5676H64.8647V90.8109H68.108V87.5676Z" fill="black"/>
<path d="M68.108 97.2971H64.8647V100.54H68.108V97.2971Z" fill="black"/>
<path d="M68.108 107.027H64.8647V110.27H68.108V107.027Z" fill="black"/>
<path d="M68.108 110.27H64.8647V113.514H68.108V110.27Z" fill="black"/>
<path d="M68.108 116.757H64.8647V120H68.108V116.757Z" fill="black"/>
<path d="M71.3514 0H68.1082V3.24324H71.3514V0Z" fill="black"/>
<path d="M71.3516 6.48633H68.1084V9.72957H71.3516V6.48633Z" fill="black"/>
<path d="M71.3516 9.72998H68.1084V12.9732H71.3516V9.72998Z" fill="black"/>
<path d="M71.3516 22.7026H68.1084V25.9459H71.3516V22.7026Z" fill="black"/>
<path d="M71.3516 25.9462H68.1084V29.1894H71.3516V25.9462Z" fill="black"/>
<path d="M71.3516 32.4325H68.1084V35.6757H71.3516V32.4325Z" fill="black"/>
<path d="M71.3516 35.6757H68.1084V38.9189H71.3516V35.6757Z" fill="black"/>
<path d="M71.3516 48.6488H68.1084V51.892H71.3516V48.6488Z" fill="black"/>
<path d="M71.3516 51.892H68.1084V55.1352H71.3516V51.892Z" fill="black"/>
<path d="M71.3516 58.3783H68.1084V61.6215H71.3516V58.3783Z" fill="black"/>
<path d="M71.3516 61.6215H68.1084V64.8647H71.3516V61.6215Z" fill="black"/>
<path d="M71.3516 71.3514H68.1084V74.5947H71.3516V71.3514Z" fill="black"/>
<path d="M71.3516 74.5946H68.1084V77.8378H71.3516V74.5946Z" fill="black"/>
<path d="M71.3516 77.8378H68.1084V81.081H71.3516V77.8378Z" fill="black"/>
<path d="M71.3516 84.3245H68.1084V87.5677H71.3516V84.3245Z" fill="black"/>
<path d="M71.3516 87.5676H68.1084V90.8109H71.3516V87.5676Z" fill="black"/>
<path d="M71.3516 94.054H68.1084V97.2972H71.3516V94.054Z" fill="black"/>
<path d="M71.3516 100.54H68.1084V103.784H71.3516V100.54Z" fill="black"/>
<path d="M71.3516 103.784H68.1084V107.027H71.3516V103.784Z" fill="black"/>
<path d="M71.3516 110.27H68.1084V113.514H71.3516V110.27Z" fill="black"/>
<path d="M71.3516 113.513H68.1084V116.757H71.3516V113.513Z" fill="black"/>
<path d="M71.3516 116.757H68.1084V120H71.3516V116.757Z" fill="black"/>
<path d="M74.5946 0H71.3513V3.24324H74.5946V0Z" fill="black"/>
<path d="M74.5948 12.9731H71.3516V16.2164H74.5948V12.9731Z" fill="black"/>
<path d="M74.5948 16.2163H71.3516V19.4596H74.5948V16.2163Z" fill="black"/>
<path d="M74.5948 19.4595H71.3516V22.7027H74.5948V19.4595Z" fill="black"/>
<path d="M74.5948 22.7026H71.3516V25.9459H74.5948V22.7026Z" fill="black"/>
<path d="M74.5948 29.1893H71.3516V32.4326H74.5948V29.1893Z" fill="black"/>
<path d="M74.5948 32.4325H71.3516V35.6757H74.5948V32.4325Z" fill="black"/>
<path d="M74.5948 38.9188H71.3516V42.1621H74.5948V38.9188Z" fill="black"/>
<path d="M74.5948 42.162H71.3516V45.4052H74.5948V42.162Z" fill="black"/>
<path d="M74.5948 48.6488H71.3516V51.892H74.5948V48.6488Z" fill="black"/>
<path d="M74.5948 55.1351H71.3516V58.3784H74.5948V55.1351Z" fill="black"/>
<path d="M74.5948 58.3783H71.3516V61.6215H74.5948V58.3783Z" fill="black"/>
<path d="M74.5948 64.8651H71.3516V68.1084H74.5948V64.8651Z" fill="black"/>
<path d="M74.5948 68.1083H71.3516V71.3515H74.5948V68.1083Z" fill="black"/>
<path d="M74.5948 81.0808H71.3516V84.3241H74.5948V81.0808Z" fill="black"/>
<path d="M74.5948 84.3245H71.3516V87.5677H74.5948V84.3245Z" fill="black"/>
<path d="M74.5948 90.8108H71.3516V94.0541H74.5948V90.8108Z" fill="black"/>
<path d="M74.5948 94.054H71.3516V97.2972H74.5948V94.054Z" fill="black"/>
<path d="M74.5948 107.027H71.3516V110.27H74.5948V107.027Z" fill="black"/>
<path d="M74.5948 110.27H71.3516V113.514H74.5948V110.27Z" fill="black"/>
<path d="M74.5948 113.513H71.3516V116.757H74.5948V113.513Z" fill="black"/>
<path d="M74.5948 116.757H71.3516V120H74.5948V116.757Z" fill="black"/>
<path d="M77.8377 0H74.5945V3.24324H77.8377V0Z" fill="black"/>
<path d="M77.838 3.24316H74.5947V6.48641H77.838V3.24316Z" fill="black"/>
<path d="M77.838 6.48633H74.5947V9.72957H77.838V6.48633Z" fill="black"/>
<path d="M77.838 12.9731H74.5947V16.2164H77.838V12.9731Z" fill="black"/>
<path d="M77.838 16.2163H74.5947V19.4596H77.838V16.2163Z" fill="black"/>
<path d="M77.838 29.1893H74.5947V32.4326H77.838V29.1893Z" fill="black"/>
<path d="M77.838 38.9188H74.5947V42.1621H77.838V38.9188Z" fill="black"/>
<path d="M77.838 51.892H74.5947V55.1352H77.838V51.892Z" fill="black"/>
<path d="M77.838 55.1351H74.5947V58.3784H77.838V55.1351Z" fill="black"/>
<path d="M77.838 64.8651H74.5947V68.1084H77.838V64.8651Z" fill="black"/>
<path d="M77.838 77.8378H74.5947V81.081H77.838V77.8378Z" fill="black"/>
<path d="M77.838 90.8108H74.5947V94.0541H77.838V90.8108Z" fill="black"/>
<path d="M77.838 103.784H74.5947V107.027H77.838V103.784Z" fill="black"/>
<path d="M77.838 116.757H74.5947V120H77.838V116.757Z" fill="black"/>
<path d="M81.0809 0H77.8376V3.24324H81.0809V0Z" fill="black"/>
<path d="M81.0811 3.24316H77.8379V6.48641H81.0811V3.24316Z" fill="black"/>
<path d="M81.0811 6.48633H77.8379V9.72957H81.0811V6.48633Z" fill="black"/>
<path d="M81.0811 9.72998H77.8379V12.9732H81.0811V9.72998Z" fill="black"/>
<path d="M81.0811 16.2163H77.8379V19.4596H81.0811V16.2163Z" fill="black"/>
<path d="M81.0811 19.4595H77.8379V22.7027H81.0811V19.4595Z" fill="black"/>
<path d="M81.0811 22.7026H77.8379V25.9459H81.0811V22.7026Z" fill="black"/>
<path d="M81.0811 32.4325H77.8379V35.6757H81.0811V32.4325Z" fill="black"/>
<path d="M81.0811 42.162H77.8379V45.4052H81.0811V42.162Z" fill="black"/>
<path d="M81.0811 45.4056H77.8379V48.6489H81.0811V45.4056Z" fill="black"/>
<path d="M81.0811 58.3783H77.8379V61.6215H81.0811V58.3783Z" fill="black"/>
<path d="M81.0811 68.1083H77.8379V71.3515H81.0811V68.1083Z" fill="black"/>
<path d="M81.0811 77.8378H77.8379V81.081H81.0811V77.8378Z" fill="black"/>
<path d="M81.0811 94.054H77.8379V97.2972H81.0811V94.054Z" fill="black"/>
<path d="M81.0811 103.784H77.8379V107.027H81.0811V103.784Z" fill="black"/>
<path d="M84.3248 3.24316H81.0815V6.48641H84.3248V3.24316Z" fill="black"/>
<path d="M84.3248 12.9731H81.0815V16.2164H84.3248V12.9731Z" fill="black"/>
<path d="M84.3248 22.7026H81.0815V25.9459H84.3248V22.7026Z" fill="black"/>
<path d="M84.3248 25.9462H81.0815V29.1894H84.3248V25.9462Z" fill="black"/>
<path d="M84.3248 32.4325H81.0815V35.6757H84.3248V32.4325Z" fill="black"/>
<path d="M84.3248 35.6757H81.0815V38.9189H84.3248V35.6757Z" fill="black"/>
<path d="M84.3248 38.9188H81.0815V42.1621H84.3248V38.9188Z" fill="black"/>
<path d="M84.3248 45.4056H81.0815V48.6489H84.3248V45.4056Z" fill="black"/>
<path d="M84.3248 48.6488H81.0815V51.892H84.3248V48.6488Z" fill="black"/>
<path d="M84.3248 58.3783H81.0815V61.6215H84.3248V58.3783Z" fill="black"/>
<path d="M84.3248 61.6215H81.0815V64.8647H84.3248V61.6215Z" fill="black"/>
<path d="M84.3248 64.8651H81.0815V68.1084H84.3248V64.8651Z" fill="black"/>
<path d="M84.3248 71.3514H81.0815V74.5947H84.3248V71.3514Z" fill="black"/>
<path d="M84.3248 74.5946H81.0815V77.8378H84.3248V74.5946Z" fill="black"/>
<path d="M84.3248 81.0808H81.0815V84.3241H84.3248V81.0808Z" fill="black"/>
<path d="M84.3248 84.3245H81.0815V87.5677H84.3248V84.3245Z" fill="black"/>
<path d="M84.3248 87.5676H81.0815V90.8109H84.3248V87.5676Z" fill="black"/>
<path d="M84.3248 90.8108H81.0815V94.0541H84.3248V90.8108Z" fill="black"/>
<path d="M84.3248 97.2971H81.0815V100.54H84.3248V97.2971Z" fill="black"/>
<path d="M84.3248 100.54H81.0815V103.784H84.3248V100.54Z" fill="black"/>
<path d="M84.3248 110.27H81.0815V113.514H84.3248V110.27Z" fill="black"/>
<path d="M84.3248 113.513H81.0815V116.757H84.3248V113.513Z" fill="black"/>
<path d="M84.3248 116.757H81.0815V120H84.3248V116.757Z" fill="black"/>
<path d="M87.5672 0H84.324V3.24324H87.5672V0Z" fill="black"/>
<path d="M87.5675 3.24316H84.3242V6.48641H87.5675V3.24316Z" fill="black"/>
<path d="M87.5675 9.72998H84.3242V12.9732H87.5675V9.72998Z" fill="black"/>
<path d="M87.5675 19.4595H84.3242V22.7027H87.5675V19.4595Z" fill="black"/>
<path d="M87.5675 22.7026H84.3242V25.9459H87.5675V22.7026Z" fill="black"/>
<path d="M87.5675 25.9462H84.3242V29.1894H87.5675V25.9462Z" fill="black"/>
<path d="M87.5675 32.4325H84.3242V35.6757H87.5675V32.4325Z" fill="black"/>
<path d="M87.5675 42.162H84.3242V45.4052H87.5675V42.162Z" fill="black"/>
<path d="M87.5675 45.4056H84.3242V48.6489H87.5675V45.4056Z" fill="black"/>
<path d="M87.5675 51.892H84.3242V55.1352H87.5675V51.892Z" fill="black"/>
<path d="M87.5675 55.1351H84.3242V58.3784H87.5675V55.1351Z" fill="black"/>
<path d="M87.5675 61.6215H84.3242V64.8647H87.5675V61.6215Z" fill="black"/>
<path d="M87.5675 68.1083H84.3242V71.3515H87.5675V68.1083Z" fill="black"/>
<path d="M87.5675 71.3514H84.3242V74.5947H87.5675V71.3514Z" fill="black"/>
<path d="M87.5675 77.8378H84.3242V81.081H87.5675V77.8378Z" fill="black"/>
<path d="M87.5675 81.0808H84.3242V84.3241H87.5675V81.0808Z" fill="black"/>
<path d="M87.5675 87.5676H84.3242V90.8109H87.5675V87.5676Z" fill="black"/>
<path d="M87.5675 94.054H84.3242V97.2972H87.5675V94.054Z" fill="black"/>
<path d="M87.5675 97.2971H84.3242V100.54H87.5675V97.2971Z" fill="black"/>
<path d="M87.5675 103.784H84.3242V107.027H87.5675V103.784Z" fill="black"/>
<path d="M87.5675 107.027H84.3242V110.27H87.5675V107.027Z" fill="black"/>
<path d="M87.5675 113.513H84.3242V116.757H87.5675V113.513Z" fill="black"/>
<path d="M90.8111 6.48633H87.5679V9.72957H90.8111V6.48633Z" fill="black"/>
<path d="M90.8111 25.9462H87.5679V29.1894H90.8111V25.9462Z" fill="black"/>
<path d="M90.8111 29.1893H87.5679V32.4326H90.8111V29.1893Z" fill="black"/>
<path d="M90.8111 32.4325H87.5679V35.6757H90.8111V32.4325Z" fill="black"/>
<path d="M90.8111 38.9188H87.5679V42.1621H90.8111V38.9188Z" fill="black"/>
<path d="M90.8111 42.162H87.5679V45.4052H90.8111V42.162Z" fill="black"/>
<path d="M90.8111 45.4056H87.5679V48.6489H90.8111V45.4056Z" fill="black"/>
<path d="M90.8111 48.6488H87.5679V51.892H90.8111V48.6488Z" fill="black"/>
<path d="M90.8111 55.1351H87.5679V58.3784H90.8111V55.1351Z" fill="black"/>
<path d="M90.8111 58.3783H87.5679V61.6215H90.8111V58.3783Z" fill="black"/>
<path d="M90.8111 64.8651H87.5679V68.1084H90.8111V64.8651Z" fill="black"/>
<path d="M90.8111 68.1083H87.5679V71.3515H90.8111V68.1083Z" fill="black"/>
<path d="M90.8111 71.3514H87.5679V74.5947H90.8111V71.3514Z" fill="black"/>
<path d="M90.8111 74.5946H87.5679V77.8378H90.8111V74.5946Z" fill="black"/>
<path d="M90.8111 77.8378H87.5679V81.081H90.8111V77.8378Z" fill="black"/>
<path d="M90.8111 81.0808H87.5679V84.3241H90.8111V81.0808Z" fill="black"/>
<path d="M90.8111 84.3245H87.5679V87.5677H90.8111V84.3245Z" fill="black"/>
<path d="M90.8111 87.5676H87.5679V90.8109H90.8111V87.5676Z" fill="black"/>
<path d="M90.8111 103.784H87.5679V107.027H90.8111V103.784Z" fill="black"/>
<path d="M90.8111 107.027H87.5679V110.27H90.8111V107.027Z" fill="black"/>
<path d="M94.054 0H90.8108V3.24324H94.054V0Z" fill="black"/>
<path d="M94.0543 6.48633H90.811V9.72957H94.0543V6.48633Z" fill="black"/>
<path d="M94.0543 9.72998H90.811V12.9732H94.0543V9.72998Z" fill="black"/>
<path d="M94.0543 19.4595H90.811V22.7027H94.0543V19.4595Z" fill="black"/>
<path d="M94.0543 29.1893H90.811V32.4326H94.0543V29.1893Z" fill="black"/>
<path d="M94.0543 38.9188H90.811V42.1621H94.0543V38.9188Z" fill="black"/>
<path d="M94.0543 42.162H90.811V45.4052H94.0543V42.162Z" fill="black"/>
<path d="M94.0543 48.6488H90.811V51.892H94.0543V48.6488Z" fill="black"/>
<path d="M94.0543 51.892H90.811V55.1352H94.0543V51.892Z" fill="black"/>
<path d="M94.0543 61.6215H90.811V64.8647H94.0543V61.6215Z" fill="black"/>
<path d="M94.0543 68.1083H90.811V71.3515H94.0543V68.1083Z" fill="black"/>
<path d="M94.0543 71.3514H90.811V74.5947H94.0543V71.3514Z" fill="black"/>
<path d="M94.0543 81.0808H90.811V84.3241H94.0543V81.0808Z" fill="black"/>
<path d="M94.0543 87.5676H90.811V90.8109H94.0543V87.5676Z" fill="black"/>
<path d="M94.0543 90.8108H90.811V94.0541H94.0543V90.8108Z" fill="black"/>
<path d="M94.0543 94.054H90.811V97.2972H94.0543V94.054Z" fill="black"/>
<path d="M94.0543 97.2971H90.811V100.54H94.0543V97.2971Z" fill="black"/>
<path d="M94.0543 100.54H90.811V103.784H94.0543V100.54Z" fill="black"/>
<path d="M94.0543 103.784H90.811V107.027H94.0543V103.784Z" fill="black"/>
<path d="M94.0543 113.513H90.811V116.757H94.0543V113.513Z" fill="black"/>
<path d="M94.0543 116.757H90.811V120H94.0543V116.757Z" fill="black"/>
<path d="M97.2974 25.9462H94.0542V29.1894H97.2974V25.9462Z" fill="black"/>
<path d="M97.2974 29.1893H94.0542V32.4326H97.2974V29.1893Z" fill="black"/>
<path d="M97.2974 32.4325H94.0542V35.6757H97.2974V32.4325Z" fill="black"/>
<path d="M97.2974 61.6215H94.0542V64.8647H97.2974V61.6215Z" fill="black"/>
<path d="M97.2974 64.8651H94.0542V68.1084H97.2974V64.8651Z" fill="black"/>
<path d="M97.2974 84.3245H94.0542V87.5677H97.2974V84.3245Z" fill="black"/>
<path d="M97.2974 87.5676H94.0542V90.8109H97.2974V87.5676Z" fill="black"/>
<path d="M97.2974 90.8108H94.0542V94.0541H97.2974V90.8108Z" fill="black"/>
<path d="M97.2974 103.784H94.0542V107.027H97.2974V103.784Z" fill="black"/>
<path d="M97.2974 107.027H94.0542V110.27H97.2974V107.027Z" fill="black"/>
<path d="M97.2974 110.27H94.0542V113.514H97.2974V110.27Z" fill="black"/>
<path d="M97.2974 113.513H94.0542V116.757H97.2974V113.513Z" fill="black"/>
<path d="M100.541 0H97.2976V3.24324H100.541V0Z" fill="black"/>
<path d="M100.541 3.24316H97.2979V6.48641H100.541V3.24316Z" fill="black"/>
<path d="M100.541 6.48633H97.2979V9.72957H100.541V6.48633Z" fill="black"/>
<path d="M100.541 9.72998H97.2979V12.9732H100.541V9.72998Z" fill="black"/>
<path d="M100.541 12.9731H97.2979V16.2164H100.541V12.9731Z" fill="black"/>
<path d="M100.541 16.2163H97.2979V19.4596H100.541V16.2163Z" fill="black"/>
<path d="M100.541 19.4595H97.2979V22.7027H100.541V19.4595Z" fill="black"/>
<path d="M100.541 25.9462H97.2979V29.1894H100.541V25.9462Z" fill="black"/>
<path d="M100.541 29.1893H97.2979V32.4326H100.541V29.1893Z" fill="black"/>
<path d="M100.541 32.4325H97.2979V35.6757H100.541V32.4325Z" fill="black"/>
<path d="M100.541 38.9188H97.2979V42.1621H100.541V38.9188Z" fill="black"/>
<path d="M100.541 42.162H97.2979V45.4052H100.541V42.162Z" fill="black"/>
<path d="M100.541 51.892H97.2979V55.1352H100.541V51.892Z" fill="black"/>
<path d="M100.541 55.1351H97.2979V58.3784H100.541V55.1351Z" fill="black"/>
<path d="M100.541 58.3783H97.2979V61.6215H100.541V58.3783Z" fill="black"/>
<path d="M100.541 64.8651H97.2979V68.1084H100.541V64.8651Z" fill="black"/>
<path d="M100.541 68.1083H97.2979V71.3515H100.541V68.1083Z" fill="black"/>
<path d="M100.541 74.5946H97.2979V77.8378H100.541V74.5946Z" fill="black"/>
<path d="M100.541 77.8378H97.2979V81.081H100.541V77.8378Z" fill="black"/>
<path d="M100.541 81.0808H97.2979V84.3241H100.541V81.0808Z" fill="black"/>
<path d="M100.541 84.3245H97.2979V87.5677H100.541V84.3245Z" fill="black"/>
<path d="M100.541 87.5676H97.2979V90.8109H100.541V87.5676Z" fill="black"/>
<path d="M100.541 90.8108H97.2979V94.0541H100.541V90.8108Z" fill="black"/>
<path d="M100.541 97.2971H97.2979V100.54H100.541V97.2971Z" fill="black"/>
<path d="M100.541 103.784H97.2979V107.027H100.541V103.784Z" fill="black"/>
<path d="M100.541 113.513H97.2979V116.757H100.541V113.513Z" fill="black"/>
<path d="M103.784 0H100.541V3.24324H103.784V0Z" fill="black"/>
<path d="M103.784 19.4595H100.541V22.7027H103.784V19.4595Z" fill="black"/>
<path d="M103.784 25.9462H100.541V29.1894H103.784V25.9462Z" fill="black"/>
<path d="M103.784 29.1893H100.541V32.4326H103.784V29.1893Z" fill="black"/>
<path d="M103.784 32.4325H100.541V35.6757H103.784V32.4325Z" fill="black"/>
<path d="M103.784 42.162H100.541V45.4052H103.784V42.162Z" fill="black"/>
<path d="M103.784 51.892H100.541V55.1352H103.784V51.892Z" fill="black"/>
<path d="M103.784 55.1351H100.541V58.3784H103.784V55.1351Z" fill="black"/>
<path d="M103.784 58.3783H100.541V61.6215H103.784V58.3783Z" fill="black"/>
<path d="M103.784 61.6215H100.541V64.8647H103.784V61.6215Z" fill="black"/>
<path d="M103.784 64.8651H100.541V68.1084H103.784V64.8651Z" fill="black"/>
<path d="M103.784 81.0808H100.541V84.3241H103.784V81.0808Z" fill="black"/>
<path d="M103.784 84.3245H100.541V87.5677H103.784V84.3245Z" fill="black"/>
<path d="M103.784 90.8108H100.541V94.0541H103.784V90.8108Z" fill="black"/>
<path d="M103.784 103.784H100.541V107.027H103.784V103.784Z" fill="black"/>
<path d="M103.784 107.027H100.541V110.27H103.784V107.027Z" fill="black"/>
<path d="M103.784 116.757H100.541V120H103.784V116.757Z" fill="black"/>
<path d="M107.027 0H103.784V3.24324H107.027V0Z" fill="black"/>
<path d="M107.027 6.48633H103.784V9.72957H107.027V6.48633Z" fill="black"/>
<path d="M107.027 9.72998H103.784V12.9732H107.027V9.72998Z" fill="black"/>
<path d="M107.027 12.9731H103.784V16.2164H107.027V12.9731Z" fill="black"/>
<path d="M107.027 19.4595H103.784V22.7027H107.027V19.4595Z" fill="black"/>
<path d="M107.027 25.9462H103.784V29.1894H107.027V25.9462Z" fill="black"/>
<path d="M107.027 32.4325H103.784V35.6757H107.027V32.4325Z" fill="black"/>
<path d="M107.027 45.4056H103.784V48.6489H107.027V45.4056Z" fill="black"/>
<path d="M107.027 61.6215H103.784V64.8647H107.027V61.6215Z" fill="black"/>
<path d="M107.027 84.3245H103.784V87.5677H107.027V84.3245Z" fill="black"/>
<path d="M107.027 90.8108H103.784V94.0541H107.027V90.8108Z" fill="black"/>
<path d="M107.027 94.054H103.784V97.2972H107.027V94.054Z" fill="black"/>
<path d="M107.027 97.2971H103.784V100.54H107.027V97.2971Z" fill="black"/>
<path d="M107.027 100.54H103.784V103.784H107.027V100.54Z" fill="black"/>
<path d="M107.027 103.784H103.784V107.027H107.027V103.784Z" fill="black"/>
<path d="M107.027 107.027H103.784V110.27H107.027V107.027Z" fill="black"/>
<path d="M107.027 110.27H103.784V113.514H107.027V110.27Z" fill="black"/>
<path d="M107.027 116.757H103.784V120H107.027V116.757Z" fill="black"/>
<path d="M110.27 0H107.027V3.24324H110.27V0Z" fill="black"/>
<path d="M110.271 6.48633H107.027V9.72957H110.271V6.48633Z" fill="black"/>
<path d="M110.271 9.72998H107.027V12.9732H110.271V9.72998Z" fill="black"/>
<path d="M110.271 12.9731H107.027V16.2164H110.271V12.9731Z" fill="black"/>
<path d="M110.271 19.4595H107.027V22.7027H110.271V19.4595Z" fill="black"/>
<path d="M110.271 29.1893H107.027V32.4326H110.271V29.1893Z" fill="black"/>
<path d="M110.271 32.4325H107.027V35.6757H110.271V32.4325Z" fill="black"/>
<path d="M110.271 35.6757H107.027V38.9189H110.271V35.6757Z" fill="black"/>
<path d="M110.271 45.4056H107.027V48.6489H110.271V45.4056Z" fill="black"/>
<path d="M110.271 48.6488H107.027V51.892H110.271V48.6488Z" fill="black"/>
<path d="M110.271 71.3514H107.027V74.5947H110.271V71.3514Z" fill="black"/>
<path d="M110.271 77.8378H107.027V81.081H110.271V77.8378Z" fill="black"/>
<path d="M110.271 81.0808H107.027V84.3241H110.271V81.0808Z" fill="black"/>
<path d="M110.271 90.8108H107.027V94.0541H110.271V90.8108Z" fill="black"/>
<path d="M110.271 94.054H107.027V97.2972H110.271V94.054Z" fill="black"/>
<path d="M110.271 100.54H107.027V103.784H110.271V100.54Z" fill="black"/>
<path d="M110.271 103.784H107.027V107.027H110.271V103.784Z" fill="black"/>
<path d="M110.271 113.513H107.027V116.757H110.271V113.513Z" fill="black"/>
<path d="M113.514 0H110.27V3.24324H113.514V0Z" fill="black"/>
<path d="M113.513 6.48633H110.27V9.72957H113.513V6.48633Z" fill="black"/>
<path d="M113.513 9.72998H110.27V12.9732H113.513V9.72998Z" fill="black"/>
<path d="M113.513 12.9731H110.27V16.2164H113.513V12.9731Z" fill="black"/>
<path d="M113.513 19.4595H110.27V22.7027H113.513V19.4595Z" fill="black"/>
<path d="M113.513 32.4325H110.27V35.6757H113.513V32.4325Z" fill="black"/>
<path d="M113.513 45.4056H110.27V48.6489H113.513V45.4056Z" fill="black"/>
<path d="M113.513 68.1083H110.27V71.3515H113.513V68.1083Z" fill="black"/>
<path d="M113.513 81.0808H110.27V84.3241H113.513V81.0808Z" fill="black"/>
<path d="M113.513 94.054H110.27V97.2972H113.513V94.054Z" fill="black"/>
<path d="M113.513 110.27H110.27V113.514H113.513V110.27Z" fill="black"/>
<path d="M116.757 0H113.513V3.24324H116.757V0Z" fill="black"/>
<path d="M116.756 19.4595H113.513V22.7027H116.756V19.4595Z" fill="black"/>
<path d="M116.756 25.9462H113.513V29.1894H116.756V25.9462Z" fill="black"/>
<path d="M116.756 29.1893H113.513V32.4326H116.756V29.1893Z" fill="black"/>
<path d="M116.756 42.162H113.513V45.4052H116.756V42.162Z" fill="black"/>
<path d="M116.756 51.892H113.513V55.1352H116.756V51.892Z" fill="black"/>
<path d="M116.756 61.6215H113.513V64.8647H116.756V61.6215Z" fill="black"/>
<path d="M116.756 68.1083H113.513V71.3515H116.756V68.1083Z" fill="black"/>
<path d="M116.756 71.3514H113.513V74.5947H116.756V71.3514Z" fill="black"/>
<path d="M116.756 74.5946H113.513V77.8378H116.756V74.5946Z" fill="black"/>
<path d="M116.756 77.8378H113.513V81.081H116.756V77.8378Z" fill="black"/>
<path d="M116.756 81.0808H113.513V84.3241H116.756V81.0808Z" fill="black"/>
<path d="M116.756 84.3245H113.513V87.5677H116.756V84.3245Z" fill="black"/>
<path d="M116.756 87.5676H113.513V90.8109H116.756V87.5676Z" fill="black"/>
<path d="M116.756 100.54H113.513V103.784H116.756V100.54Z" fill="black"/>
<path d="M116.756 103.784H113.513V107.027H116.756V103.784Z" fill="black"/>
<path d="M116.756 107.027H113.513V110.27H116.756V107.027Z" fill="black"/>
<path d="M120 0H116.757V3.24324H120V0Z" fill="black"/>
<path d="M120 3.24316H116.756V6.48641H120V3.24316Z" fill="black"/>
<path d="M120 6.48633H116.756V9.72957H120V6.48633Z" fill="black"/>
<path d="M120 9.72998H116.756V12.9732H120V9.72998Z" fill="black"/>
<path d="M120 12.9731H116.756V16.2164H120V12.9731Z" fill="black"/>
<path d="M120 16.2163H116.756V19.4596H120V16.2163Z" fill="black"/>
<path d="M120 19.4595H116.756V22.7027H120V19.4595Z" fill="black"/>
<path d="M120 25.9462H116.756V29.1894H120V25.9462Z" fill="black"/>
<path d="M120 29.1893H116.756V32.4326H120V29.1893Z" fill="black"/>
<path d="M120 32.4325H116.756V35.6757H120V32.4325Z" fill="black"/>
<path d="M120 38.9188H116.756V42.1621H120V38.9188Z" fill="black"/>
<path d="M120 42.162H116.756V45.4052H120V42.162Z" fill="black"/>
<path d="M120 45.4056H116.756V48.6489H120V45.4056Z" fill="black"/>
<path d="M120 55.1351H116.756V58.3784H120V55.1351Z" fill="black"/>
<path d="M120 58.3783H116.756V61.6215H120V58.3783Z" fill="black"/>
<path d="M120 61.6215H116.756V64.8647H120V61.6215Z" fill="black"/>
<path d="M120 68.1083H116.756V71.3515H120V68.1083Z" fill="black"/>
<path d="M120 74.5946H116.756V77.8378H120V74.5946Z" fill="black"/>
<path d="M120 81.0808H116.756V84.3241H120V81.0808Z" fill="black"/>
<path d="M120 87.5676H116.756V90.8109H120V87.5676Z" fill="black"/>
<path d="M120 94.054H116.756V97.2972H120V94.054Z" fill="black"/>
<path d="M120 103.784H116.756V107.027H120V103.784Z" fill="black"/>
<path d="M120 110.27H116.756V113.514H120V110.27Z" fill="black"/>
<path d="M120 116.757H116.756V120H120V116.757Z" fill="black"/>
</svg>
