<svg width="60" height="60" viewBox="0 0 60 60" fill="none" xmlns="http://www.w3.org/2000/svg">
<g clip-path="url(#clip0_66_6158)">
<path d="M11.9397 39.0998C13.3797 39.0998 16.9197 38.8498 19.5697 36.9098V38.3798H24.9097L24.9197 31.9298L27.1497 29.6198L31.9997 38.3798H38.4097L31.0497 25.8598L38.2197 17.9698H31.6597L24.9097 25.7098V10.8398H19.5597V13.1898C17.9297 11.4398 15.2897 10.1198 11.1797 10.1198C2.26969 10.1198 0.589687 15.5398 0.589687 18.5798C0.589687 22.7498 2.82969 25.0698 6.73969 26.0098L12.2797 27.3698C15.1997 28.0898 17.2897 28.6198 17.2897 30.7798C17.2897 33.6598 14.2497 34.3498 11.5197 34.3498C6.50969 34.3498 5.67969 31.4297 5.67969 29.8797H0.179688C0.179688 33.2997 1.91969 39.0998 11.9397 39.0998ZM15.5797 22.6798L8.86969 21.0498C7.72969 20.7797 5.94969 20.3298 5.94969 18.1698C5.94969 15.6998 8.56969 14.8698 10.7697 14.8698C15.7797 14.8698 16.2297 17.7898 16.3797 19.0398H19.5697V24.1698C18.3997 23.4798 17.0097 23.0398 15.5797 22.6798Z" fill="#3C3C43" fill-opacity="0.3"/>
<path d="M4.79023 51.1298C4.24023 51.1298 3.82024 51.0798 3.52024 50.9898V49.3498C3.74024 49.4498 3.96023 49.4998 4.17023 49.4998C4.57023 49.4998 4.86023 49.3298 5.04023 48.9698L5.08023 48.8898L1.24023 41.7798H3.53023L6.00023 46.9298L7.87024 41.7898H10.0702L6.75023 49.4498C6.60023 49.8098 6.39023 50.1198 6.15023 50.3698C5.90023 50.6198 5.65023 50.8098 5.40023 50.9398C5.15023 51.0598 4.95023 51.1298 4.79023 51.1298Z" fill="#3C3C43" fill-opacity="0.3"/>
<path d="M15.8605 50.9897H14.0705V48.1797C13.8905 48.2797 13.6105 48.4097 13.2205 48.5697C12.8305 48.7297 12.4405 48.8097 12.0505 48.8097C11.3305 48.8097 10.7705 48.6197 10.3505 48.2397C9.93047 47.8597 9.73047 47.2597 9.73047 46.4297V44.1797H11.5205V46.3797C11.5205 46.9897 11.9105 47.2997 12.6905 47.2997C12.9305 47.2997 13.1905 47.2497 13.4605 47.1397C13.7405 47.0297 13.9405 46.9497 14.0705 46.8797V44.1797H15.8605V50.9897Z" fill="#3C3C43" fill-opacity="0.3"/>
<path d="M23.4097 49.6497C23.4097 50.0197 23.4397 50.2797 23.5097 50.4197C23.5797 50.5697 23.6797 50.6597 23.8097 50.7097V50.9797H21.8697C21.7897 50.7197 21.7297 50.4497 21.7097 50.1697C21.4197 50.4697 21.1097 50.7097 20.7897 50.8897C20.4697 51.0697 20.0397 51.1597 19.4997 51.1597C19.1397 51.1597 18.7997 51.0897 18.4897 50.9497C18.1697 50.8097 17.9197 50.5897 17.7197 50.2897C17.5297 49.9897 17.4297 49.6197 17.4297 49.1797C17.4297 48.7497 17.5097 48.3797 17.6797 48.0797C17.8497 47.7697 18.0797 47.5297 18.3697 47.3597C18.6597 47.1897 19.0097 47.0697 19.4097 47.0097L21.0197 46.7697C21.4397 46.7097 21.6497 46.5297 21.6497 46.2297C21.6497 45.8997 21.5397 45.6797 21.3097 45.5797C21.0797 45.4797 20.7997 45.4297 20.4697 45.4297C20.0697 45.4297 19.7997 45.5197 19.6497 45.6997C19.4997 45.8797 19.3997 46.1097 19.3697 46.3797H17.6397C17.6997 45.7197 17.8797 45.2197 18.1797 44.8697C18.4697 44.5197 18.8297 44.2897 19.2397 44.1697C19.6597 44.0497 20.1397 43.9897 20.6897 43.9897C21.0897 43.9897 21.4997 44.0397 21.9097 44.1497C22.3197 44.2597 22.6697 44.4597 22.9697 44.7497C23.2697 45.0397 23.4197 45.4497 23.4197 45.9597V49.6497H23.4097ZM21.6497 47.6697C21.4497 47.8197 21.0497 47.9497 20.4297 48.0397C20.1697 48.0797 19.9597 48.1397 19.7897 48.2097C19.6197 48.2797 19.4797 48.3797 19.3697 48.5097C19.2697 48.6397 19.2097 48.8297 19.2097 49.0697C19.2097 49.3497 19.2997 49.5597 19.4697 49.6897C19.6397 49.8197 19.8297 49.8897 20.0497 49.8897C20.3197 49.8897 20.5797 49.8297 20.8197 49.7197C21.0697 49.6097 21.2697 49.4497 21.4197 49.2497C21.5697 49.0497 21.6497 48.8097 21.6497 48.5397V47.6697Z" fill="#3C3C43" fill-opacity="0.3"/>
<path d="M30.8301 48.4997C30.8101 48.7297 30.7501 48.9797 30.6501 49.2697C30.5501 49.5597 30.3901 49.8497 30.1601 50.1397C29.9301 50.4297 29.6101 50.6797 29.2101 50.8697C28.8001 51.0697 28.3101 51.1597 27.7301 51.1597C27.1201 51.1597 26.6101 51.0597 26.2001 50.8497C25.7801 50.6397 25.4601 50.3697 25.2301 50.0397C25.0001 49.7097 24.8301 49.3397 24.7301 48.9497C24.6301 48.5597 24.5801 48.1597 24.5801 47.7597C24.5801 47.0097 24.6901 46.3397 24.9201 45.7797C25.1501 45.2097 25.5101 44.7697 25.9901 44.4597C26.4801 44.1397 27.0901 43.9897 27.8401 43.9897C28.2701 43.9897 28.7001 44.0697 29.1401 44.2197C29.5801 44.3697 29.9601 44.6397 30.2801 45.0297C30.6101 45.4197 30.8001 45.9397 30.8501 46.5997H29.0301C28.9001 45.8697 28.5001 45.4997 27.8401 45.4997C27.4901 45.4997 27.2101 45.5997 27.0001 45.7997C26.7901 45.9997 26.6401 46.2497 26.5501 46.5397C26.4601 46.8397 26.4201 47.1497 26.4201 47.4697C26.4201 47.8397 26.4501 48.1797 26.5001 48.4897C26.5501 48.7997 26.6801 49.0797 26.8801 49.3197C27.0901 49.5597 27.3901 49.6897 27.8001 49.6897C28.0701 49.6897 28.3001 49.6197 28.4901 49.4797C28.6701 49.3397 28.8101 49.1697 28.8901 48.9797C28.9801 48.7897 29.0201 48.6297 29.0201 48.4997H30.8301Z" fill="#3C3C43" fill-opacity="0.3"/>
<path d="M33.5498 50.9899V45.6099H31.5098V44.1699H37.3798V45.6099H35.3398V50.9899H33.5498Z" fill="#3C3C43" fill-opacity="0.3"/>
<path d="M44.4796 50.9897H42.6896V48.2997H40.1396V50.9897H38.3496V44.1797H40.1396V46.8697H42.6896V44.1797H44.4796V50.9897Z" fill="#3C3C43" fill-opacity="0.3"/>
<path d="M52.2198 50.9897H50.4298V46.8897L48.0098 50.9897H46.0898V44.1797H47.8798V48.2797L50.2998 44.1797H52.2198V50.9897Z" fill="#3C3C43" fill-opacity="0.3"/>
<path d="M55.6201 50.9897H53.8301V44.1797H55.6201V46.7697L57.8701 44.1797H60.1101L57.6601 46.8197L60.2101 50.9897H58.0301L56.3501 48.0697L55.6101 48.8397V50.9897H55.6201Z" fill="#3C3C43" fill-opacity="0.3"/>
</g>
<defs>
<clipPath id="clip0_66_6158">
<rect width="60" height="60" fill="white" transform="translate(0 -0.000244141)"/>
</clipPath>
</defs>
</svg>
