<svg width="18" height="16" viewBox="0 0 18 16" fill="none" xmlns="http://www.w3.org/2000/svg">
<path fill-rule="evenodd" clip-rule="evenodd" d="M17.7999 0.999951C17.7999 0.558124 17.4418 0.199951 17 0.199951H0.99995C0.558123 0.199951 0.199951 0.558124 0.199951 0.999951C0.199951 1.44178 0.558123 1.79995 0.99995 1.79995H17C17.4418 1.79995 17.7999 1.44178 17.7999 0.999951ZM0.199951 7.99995C0.199951 7.55812 0.558123 7.19995 0.999951 7.19995H17C17.4418 7.19995 17.8 7.55812 17.8 7.99995C17.8 8.44178 17.4418 8.79995 17 8.79995H0.999951C0.558123 8.79995 0.199951 8.44178 0.199951 7.99995ZM0.999951 14.2C0.558123 14.2 0.199951 14.5581 0.199951 15C0.199951 15.4418 0.558123 15.8 0.999951 15.8H17C17.4418 15.8 17.8 15.4418 17.8 15C17.8 14.5581 17.4418 14.2 17 14.2H0.999951Z" fill="white"/>
</svg>
